<svg width="56" height="56" viewBox="0 0 56 56" fill="none" xmlns="http://www.w3.org/2000/svg">
<path d="M16.5454 7.09095C16.5454 5.98637 17.4245 5.09094 18.5091 5.09094H37.4908C38.5754 5.09094 39.4545 5.98637 39.4545 7.09095V7.42428C39.4545 13.8675 34.3261 19.0909 28 19.0909C21.6738 19.0909 16.5454 13.8675 16.5454 7.42428V7.09095Z" fill="#CEE5FE"/>
<path d="M48.3637 37.0682C48.3637 47.2604 39.2466 50.9091 28.0001 50.9091C16.7536 50.9091 7.63647 47.2604 7.63647 37.0682C7.63647 26.876 16.7536 14 28.0001 14C39.2466 14 48.3637 26.876 48.3637 37.0682Z" fill="#CEE5FE"/>
<path d="M22.8874 40.2454H21.5635C20.9008 40.2454 20.3635 39.7081 20.3635 39.0454V39.0454C20.3635 38.3827 20.9008 37.8454 21.5635 37.8454H22.8874V36.209H21.7272C20.974 36.209 20.3635 35.5985 20.3635 34.8454V34.8454C20.3635 34.0923 20.974 33.4818 21.7272 33.4818H22.8874V26.1818C22.8874 25.0772 23.7828 24.1818 24.8874 24.1818H29.3373C31.9734 24.1818 33.8897 24.709 35.0862 25.7636C36.3014 26.8181 36.909 28.2909 36.909 30.1818C36.909 32.0545 36.3014 33.5272 35.0862 34.5999C33.871 35.6727 31.9547 36.209 29.3373 36.209H26.2526V37.8454H31.5025C32.1653 37.8454 32.7025 38.3827 32.7025 39.0454V39.0454C32.7025 39.7081 32.1653 40.2454 31.5025 40.2454H26.2526V41.5901C26.2526 42.5194 25.4993 43.2727 24.57 43.2727V43.2727C23.6407 43.2727 22.8874 42.5194 22.8874 41.5901V40.2454ZM26.2526 27.0727V33.4818H29.3373C30.7395 33.4818 31.7584 33.1909 32.394 32.609C33.0484 32.0272 33.3755 31.2454 33.3755 30.2636C33.3755 29.2818 33.0484 28.509 32.394 27.9454C31.7584 27.3636 30.7395 27.0727 29.3373 27.0727H26.2526Z" fill="#4C73FE"/>
</svg>
