<svg width="56" height="56" viewBox="0 0 56 56" fill="none" xmlns="http://www.w3.org/2000/svg">
<path d="M45.7229 16.4051C45.6243 18.3662 43.7612 19.1031 42.3161 17.7756C41.659 17.1719 40.8724 16.4288 39.9365 15.5162C37.8227 17.4423 34.5443 20.4452 30.6357 24.0791C29.6093 25.0335 27.9422 24.9268 27.0454 23.8494L27.0447 23.8486C25.285 21.7405 23.5121 19.641 21.6775 17.5977C19.5337 19.1737 15.6857 22.177 11.8669 26.0005C10.8991 26.9695 9.32992 26.9695 8.3621 26.0005C7.39427 25.0315 7.39427 23.4604 8.3621 22.4914C12.1085 18.7403 16.219 15.2218 20.6274 12.2613L20.6343 12.2567C20.6359 12.2556 20.6354 12.2559 20.6354 12.2559C21.6184 11.5998 22.9273 11.7295 23.7626 12.5659C25.6817 14.4874 27.4158 16.6009 29.171 18.6721C32.155 15.9089 34.6688 13.6066 36.4316 11.9998C35.6317 11.1733 34.969 10.4686 34.4213 9.87089C33.095 8.42374 33.8313 6.55778 35.7905 6.45906C38.2903 6.33309 40.8559 6.25897 43.3254 6.72123C44.4373 6.92938 45.253 7.74614 45.4608 8.85949C45.9224 11.3324 45.8487 13.9016 45.7229 16.4051Z" fill="#4C73FF"/>
<path d="M9.43637 49.605C7.83933 49.5625 6.62967 48.5562 6.49911 46.8882C6.42092 45.8891 6.36377 44.516 6.36377 42.6364C6.36377 40.7568 6.42092 39.3837 6.49911 38.3846C6.62967 36.7166 7.83933 35.7103 9.43637 35.6678C10.1351 35.6492 11.0087 35.6364 12.091 35.6364C13.1734 35.6364 14.047 35.6492 14.7457 35.6678C16.3428 35.7103 17.5524 36.7166 17.683 38.3846C17.7611 39.3837 17.8183 40.7568 17.8183 42.6364C17.8183 44.516 17.7611 45.8891 17.683 46.8882C17.5524 48.5562 16.3428 49.5625 14.7457 49.605C14.047 49.6236 13.1734 49.6364 12.091 49.6364C11.0087 49.6364 10.1351 49.6236 9.43637 49.605Z" fill="#CEE5FE"/>
<path d="M41.7049 49.5949C39.8443 49.518 38.5396 48.1477 38.4189 46.201C38.2939 44.1825 38.1816 40.9038 38.1816 35.6364C38.1816 30.369 38.2939 27.0903 38.4189 25.0718C38.5396 23.1251 39.8443 21.7548 41.7049 21.6779C42.3188 21.6525 43.0478 21.6364 43.9089 21.6364C44.77 21.6364 45.499 21.6525 46.113 21.6779C47.9736 21.7548 49.2782 23.1251 49.3989 25.0718C49.5239 27.0903 49.6362 30.369 49.6362 35.6364C49.6362 40.9038 49.5239 44.1825 49.3989 46.201C49.2782 48.1477 47.9736 49.518 46.113 49.5949C45.499 49.6203 44.77 49.6364 43.9089 49.6364C43.0478 49.6364 42.3188 49.6203 41.7049 49.5949Z" fill="#CEE5FE"/>
<path d="M25.4048 49.6042C23.4238 49.5499 21.9799 48.3799 21.8375 46.6008C21.7257 45.2025 21.6362 43.1332 21.6362 40.0909C21.6362 37.0485 21.7257 34.9793 21.8375 33.581C21.9799 31.8019 23.4238 30.6318 25.4048 30.5776C26.1165 30.5581 26.9738 30.5454 27.9999 30.5454C29.0259 30.5454 29.8832 30.5581 30.595 30.5776C32.576 30.6318 34.0199 31.8019 34.1622 33.581C34.274 34.9793 34.3635 37.0485 34.3635 40.0909C34.3635 43.1332 34.274 45.2025 34.1622 46.6008C34.0199 48.3799 32.576 49.5499 30.595 49.6042C29.8832 49.6236 29.0259 49.6363 27.9999 49.6363C26.9738 49.6363 26.1165 49.6236 25.4048 49.6042Z" fill="#CEE5FE"/>
</svg>
