<svg width="56" height="56" viewBox="0 0 56 56" fill="none" xmlns="http://www.w3.org/2000/svg">
<path d="M4.61842 19.3824C4.30542 18.1766 5.21557 17 6.46133 17C7.33766 17 8.10081 17.5982 8.31018 18.4491L12.2764 34.57C12.2808 34.5876 12.2966 34.6 12.3147 34.6C12.3333 34.6 12.3494 34.587 12.3533 34.5689L15.621 19.4216C15.9258 18.0087 17.1752 17 18.6206 17C20.0388 17 21.2722 17.9718 21.6041 19.3506L25.2671 34.5696C25.2714 34.5874 25.2873 34.6 25.3057 34.6C25.3241 34.6 25.3401 34.5873 25.3444 34.5694L29.1541 18.381C29.3445 17.5718 30.0665 17 30.8978 17C32.0599 17 32.9144 18.0895 32.6375 19.2181L28.367 36.6263C28.0251 38.02 26.7756 39 25.3405 39C23.9024 39 22.651 38.0158 22.3121 36.6181L18.6296 21.4302C18.6253 21.4125 18.6094 21.4 18.5911 21.4C18.5726 21.4 18.5566 21.4128 18.5525 21.4309L15.1514 36.5715C14.8324 37.9912 13.5718 39 12.1168 39C10.7 39 9.46229 38.0425 9.10632 36.6712L4.61842 19.3824Z" fill="#FFA7D1"/>
<path d="M35.9971 19C35.9971 17.8954 36.8926 17 37.9971 17H43.5279C46.3519 17 48.3601 17.5238 49.5525 18.5714C50.7658 19.619 51.3724 21.0857 51.3724 22.9714C51.3724 24.9942 50.4503 26.5085 48.6061 27.5143C48.59 27.523 48.5798 27.54 48.5798 27.5583C48.5798 27.5784 48.592 27.5966 48.6105 27.6045C50.8702 28.5704 52 30.2527 52 32.6514C52 34.7257 51.3934 36.3076 50.1801 37.3971C48.9877 38.4657 46.9795 39 44.1555 39H37.9971C36.8926 39 35.9971 38.1046 35.9971 37V19ZM39.7625 20.4571V26.1143H43.371C44.8981 26.1143 45.9545 25.8733 46.5402 25.3914C47.1259 24.9095 47.4188 24.2076 47.4188 23.2857C47.4188 22.3638 47.1259 21.6619 46.5402 21.18C45.9545 20.6981 44.8981 20.4571 43.371 20.4571H39.7625ZM39.7625 29.2571V35.5429H43.9986C45.5256 35.5429 46.582 35.2914 47.1678 34.7886C47.7535 34.2648 48.0464 33.4686 48.0464 32.4C48.0464 31.3314 47.7535 30.5457 47.1678 30.0429C46.582 29.519 45.5256 29.2571 43.9986 29.2571H39.7625Z" fill="#FE4CA1"/>
</svg>
