<svg width="57" height="57" viewBox="0 0 57 57" fill="none" xmlns="http://www.w3.org/2000/svg">
<path d="M9.00302 17.8265C8.94105 16.2184 9.83519 14.8344 11.3604 14.3216C13.676 13.5431 18.0243 12.3933 25.7374 11.2488C33.4504 10.1044 37.9453 9.94211 40.3871 10.0148C41.9956 10.0627 43.253 11.1274 43.6605 12.6842C44.1893 14.7041 44.9506 18.1881 45.7921 23.8601C46.6336 29.5322 46.9165 33.0871 46.997 35.1736C47.059 36.7816 46.1648 38.1655 44.6396 38.6784C42.3241 39.457 37.9757 40.6067 30.2626 41.7512C22.5496 42.8956 18.0548 43.0579 15.6129 42.9852C14.0045 42.9373 12.7471 41.8726 12.3395 40.3158C11.8107 38.296 11.0494 34.812 10.2079 29.1399C9.36644 23.4678 9.08344 19.9128 9.00302 17.8265Z" fill="#4C73FF"/>
<path d="M11.4853 18.0483C11.6552 16.4843 12.7143 15.2641 14.2791 14.9716C16.6764 14.5235 21.1556 14 29 14C36.8444 14 41.3236 14.5235 43.7208 14.9716C45.2858 15.2641 46.3447 16.4843 46.5146 18.0483C46.7461 20.1783 47 23.9043 47 30C47 36.0957 46.7461 39.8217 46.5146 41.9517C46.3447 43.5157 45.2858 44.7359 43.7208 45.0284C41.3236 45.4765 36.8444 46 29 46C21.1556 46 16.6764 45.4765 14.2791 45.0284C12.7143 44.7359 11.6552 43.5157 11.4853 41.9517C11.2539 39.8217 11 36.0957 11 30C11 23.9043 11.2539 20.1783 11.4853 18.0483Z" fill="#CEE5FE"/>
<path d="M29.1084 23.1019C29.185 22.1116 29.902 21.3478 30.9819 21.2168C31.9348 21.1012 33.3758 21 35.5 21C37.6242 21 39.0652 21.1012 40.0181 21.2168C41.098 21.3478 41.815 22.1116 41.8916 23.1019C41.9508 23.8672 42 24.9651 42 26.5C42 28.0349 41.9508 29.1328 41.8916 29.8981C41.815 30.8884 41.098 31.6522 40.0181 31.7832C39.0652 31.8988 37.6242 32 35.5 32C33.3758 32 31.9348 31.8988 30.9819 31.7832C29.902 31.6522 29.185 30.8884 29.1084 29.8981C29.0492 29.1328 29 28.0349 29 26.5C29 24.9651 29.0492 23.8672 29.1084 23.1019Z" fill="#4C73FF"/>
<path d="M16 22.5C16 21.6716 16.8954 21 18 21H24C25.1046 21 26 21.6716 26 22.5C26 23.3284 25.1046 24 24 24H18C16.8954 24 16 23.3284 16 22.5Z" fill="#4C73FF"/>
<path d="M16 30C16 28.8954 16.8954 28 18 28H24C25.1046 28 26 28.8954 26 30C26 31.1046 25.1046 32 24 32H18C16.8954 32 16 31.1046 16 30Z" fill="#4C73FF"/>
<path d="M16 38C16 36.8954 16.8314 36 17.8571 36H40.1429C41.1686 36 42 36.8954 42 38C42 39.1046 41.1686 40 40.1429 40H17.8571C16.8314 40 16 39.1046 16 38Z" fill="#4C73FF"/>
</svg>
