<svg width="56" height="56" viewBox="0 0 56 56" fill="none" xmlns="http://www.w3.org/2000/svg">
<path d="M5.11813 13.0572C5.32893 10.9777 6.75758 9.39463 8.82225 9.06872C11.5762 8.63401 16.4165 8.16669 24.4993 8.16669C32.5823 8.16669 37.4225 8.63401 40.1764 9.06872C42.2411 9.39462 43.6698 10.9777 43.8806 13.0572C44.1097 15.3187 44.3327 18.9456 44.3327 24.5C44.3327 30.0544 44.1097 33.6813 43.8806 35.9428C43.6698 38.0224 42.2411 39.6054 40.1764 39.9313C37.4225 40.366 32.5823 40.8334 24.4993 40.8334C16.4165 40.8334 11.5762 40.366 8.82225 39.9313C6.75759 39.6054 5.32893 38.0224 5.11813 35.9428C4.88891 33.6813 4.66602 30.0544 4.66602 24.5C4.66602 18.9456 4.88891 15.3187 5.11813 13.0572Z" fill="#FA5E78"/>
<path d="M9.82676 17.7873C10.0413 15.7378 11.4593 14.19 13.4922 13.853C16.3873 13.373 21.5873 12.8333 30.334 12.8333C39.0807 12.8333 44.2807 13.373 47.1757 13.853C49.2087 14.19 50.6266 15.7378 50.8412 17.7873C51.0887 20.1525 51.334 24.0747 51.334 30.3333C51.334 36.5919 51.0887 40.5141 50.8412 42.8793C50.6266 44.9288 49.2087 46.4766 47.1757 46.8136C44.2807 47.2936 39.0807 47.8333 30.334 47.8333C21.5873 47.8333 16.3873 47.2936 13.4922 46.8136C11.4593 46.4766 10.0413 44.9288 9.82676 42.8793C9.57918 40.5141 9.33398 36.5919 9.33398 30.3333C9.33398 24.0747 9.57918 20.1525 9.82676 17.7873Z" fill="#FFCAE3"/>
<path fill-rule="evenodd" clip-rule="evenodd" d="M9.3369 31.5C9.33498 31.1205 9.33398 30.7317 9.33398 30.3334C9.33398 26.9806 9.40436 24.2983 9.50776 22.1667H51.1602C51.2636 24.2983 51.334 26.9806 51.334 30.3334C51.334 30.7317 51.3329 31.1205 51.3311 31.5H9.3369Z" fill="#FA5E78"/>
<path d="M44.3327 40.2698C44.3327 41.1202 43.7196 41.8351 42.8716 41.8985C42.1448 41.9526 41.1471 42 39.8781 42C38.7615 42 37.9598 41.9633 37.3941 41.9176C36.6524 41.8576 36.166 41.2423 36.166 40.4982V38.835C36.166 38.0909 36.6524 37.4756 37.3941 37.4157C37.9598 37.3699 38.7615 37.3333 39.8781 37.3333C41.1471 37.3333 42.1448 37.3807 42.8716 37.4348C43.7196 37.4982 44.3327 38.2131 44.3327 39.0635V40.2698Z" fill="#FA5E78"/>
</svg>
