<svg width="56" height="56" viewBox="0 0 56 56" fill="none" xmlns="http://www.w3.org/2000/svg">
<path d="M27.9994 51.3334C40.886 51.3334 51.3327 40.8867 51.3327 28C51.3327 15.1134 40.886 4.66669 27.9994 4.66669C15.1127 4.66669 4.66602 15.1134 4.66602 28C4.66602 40.8867 15.1127 51.3334 27.9994 51.3334Z" fill="#FFCAE3"/>
<path fill-rule="evenodd" clip-rule="evenodd" d="M39.8927 18.1402C40.8403 18.8737 41.1164 20.277 40.5139 21.3585C35.8396 29.7493 31.5863 35.3322 29.0728 38.3205C27.721 39.928 25.5472 40.1341 24.0144 38.7317C21.8259 36.7294 18.6095 33.3301 15.5315 28.3788C14.9515 27.4457 15.0771 26.2016 15.8 25.3947L17.6533 23.3261C18.5162 22.3631 19.9345 22.3366 20.8047 23.2918C23.8693 26.6557 26.2462 29.7061 26.2462 29.7061C26.2462 29.7061 29.7388 24.0401 35.1624 17.1703C35.912 16.2207 37.2053 16.0602 38.143 16.786L39.8927 18.1402Z" fill="#FA5E78"/>
</svg>
