<svg width="57" height="57" viewBox="0 0 57 57" fill="none" xmlns="http://www.w3.org/2000/svg">
<path d="M28.4251 51.5223C41.3118 51.5223 51.7585 41.0756 51.7585 28.189C51.7585 15.3023 41.3118 4.85565 28.4251 4.85565C15.5385 4.85565 5.0918 15.3023 5.0918 28.189C5.0918 41.0756 15.5385 51.5223 28.4251 51.5223Z" fill="#FFCAE3"/>
<path d="M34.5388 17.1393C35.4731 16.2795 36.9023 16.3263 37.7957 17.2296L39.1381 18.5868C40.0315 19.49 40.0778 20.9351 39.2273 21.8797C37.9611 23.286 35.9589 25.4724 33.4756 28.0562C36.0771 30.7556 38.1735 33.0439 39.4827 34.4982C40.3332 35.4428 40.287 36.8878 39.3936 37.7911L38.0512 39.1483C37.1578 40.0516 35.7286 40.0984 34.7943 39.2386C33.3566 37.9153 31.0947 35.797 28.4264 33.1684C25.7581 35.797 23.4962 37.9153 22.0585 39.2386C21.1243 40.0984 19.6951 40.0516 18.8017 39.1483L17.4593 37.7911C16.5659 36.8878 16.5197 35.4428 17.3702 34.4982C18.6794 33.0439 20.7758 30.7556 23.3772 28.0562C20.894 25.4724 18.8917 23.286 17.6255 21.8797C16.775 20.9351 16.8214 19.49 17.7148 18.5868L19.0572 17.2296C19.9506 16.3263 21.3798 16.2795 22.314 17.1393C23.7056 18.4201 25.8693 20.4458 28.4264 22.9582C30.9835 20.4458 33.1472 18.4201 34.5388 17.1393Z" fill="#FA5E78"/>
</svg>
