<svg width="56" height="56" viewBox="0 0 56 56" fill="none" xmlns="http://www.w3.org/2000/svg">
<path d="M19.4941 52.3518C16.7333 46.3152 17.0437 32.6673 17.0437 32.6673L47.1196 9.35156C46.2716 17.6202 32.9634 50.032 19.4941 52.3518Z" fill="#FFCAE3"/>
<path d="M6.32863 26.86C4.99422 25.6911 5.05021 23.8087 6.51469 22.8077C14.6172 17.2689 37.3199 6.03214 49.1588 3.86595C51.0602 3.51804 52.6225 5.06164 52.4877 6.98992C51.6513 18.9455 47.2046 41.7662 43.2586 49.4672C42.5752 50.8009 40.9805 51.0779 39.6805 50.3322C36.6617 48.6009 30.4795 44.837 20.8627 37.9903C12.8656 32.2966 8.56564 28.8194 6.32863 26.86Z" fill="#FFCAE3"/>
<path d="M46.9444 9.33348C45.7778 8.16681 18.6269 30.2359 16.4544 34.797C16.4544 34.797 16.3637 51.8589 19.4937 52.3515C21.187 52.3515 24.2927 43.3622 24.947 41.4107C25.0307 41.1613 25.1451 40.9416 25.3046 40.7323C32.1276 31.7823 48.0975 10.4867 46.9444 9.33348Z" fill="#FA5E78"/>
</svg>
