<svg width="447" height="530" viewBox="0 0 447 530" fill="none" xmlns="http://www.w3.org/2000/svg">
<path fill-rule="evenodd" clip-rule="evenodd" d="M201.318 279.907C202.769 276.003 205.055 264.017 210.864 258.915C214.699 255.557 213.421 253.895 209.313 256.877C206.308 259.065 203.347 262.904 201.582 266.904C201.451 262.273 201.397 240.973 199.831 212.968C199.506 207.338 199.041 206.705 197.515 207.455C195.609 208.429 194.652 209.904 194.69 211.827C194.693 211.876 196.31 269.845 195.694 269.864C195.596 269.871 195.022 269.097 194.337 268.134C189.772 261.546 185.927 259.177 184.041 261.828C183.142 263.077 184.088 265.281 187.091 268.993C188.336 270.534 190.916 274.202 192.855 277.175C197.807 284.698 199.349 285.206 201.318 279.907Z" fill="#BABABA"/>
<path fill-rule="evenodd" clip-rule="evenodd" d="M410.586 457.327C409.953 447.711 409.139 440.649 408.288 430.538C405.552 433.586 401.439 434.837 398.3 435.07C391.823 435.55 387.622 432.289 381.226 431.79C374.738 431.283 369.176 433.673 363.469 436.446C364.373 445.323 365.228 454.395 365.368 463.323C369.383 461.359 373.51 459.629 378.04 459.532C382.308 459.44 386.37 461.249 390.583 461.669C396.977 462.306 405.221 460.823 410.586 457.327Z" fill="white" stroke="#FE4CA1" stroke-width="2.65957" stroke-miterlimit="1.5" stroke-linecap="round" stroke-linejoin="round"/>
<path d="M388.816 441.903C387.313 441.752 385.658 441.739 384.402 442.691C383.383 443.464 382.865 444.871 384.019 445.81C385.691 447.17 388.427 446.305 389.945 447.984C390.992 449.142 390.155 450.723 389.004 451.404C388.113 451.932 387.031 451.989 386.027 451.845C384.956 451.692 383.871 451.572 382.806 451.387" stroke="#FE4CA1" stroke-width="2.65957" stroke-miterlimit="1.5" stroke-linecap="round" stroke-linejoin="round"/>
<path d="M386.723 441.919C386.739 441.294 386.779 440.673 386.758 440.047" stroke="#FE4CA1" stroke-width="2.65957" stroke-miterlimit="1.5" stroke-linecap="round" stroke-linejoin="round"/>
<path d="M386.525 451.87C386.544 452.461 386.564 453.052 386.596 453.642" stroke="#FE4CA1" stroke-width="2.65957" stroke-miterlimit="1.5" stroke-linecap="round" stroke-linejoin="round"/>
<path d="M378.376 453.809C376.627 453.587 374.752 453.718 373.107 454.382C372.45 453.272 371.174 452.678 369.905 452.75C369.616 449.348 369.399 445.922 369.159 442.518C370.609 441.665 371.43 440.258 371.539 438.601C374.637 436.789 377.868 436.133 381.382 436.869" stroke="#FE4CA1" stroke-width="2.65957" stroke-miterlimit="1.5" stroke-linecap="round" stroke-linejoin="round"/>
<path d="M393.461 439.98C395.823 440.279 398.242 440.336 400.612 440.085C401.421 440.852 402.513 441.454 403.641 441.542C403.805 444.646 404.453 447.717 404.726 450.816C403.139 451.489 401.47 452.653 401.361 454.535C398.881 455.12 396.243 455.113 393.77 454.531" stroke="#FE4CA1" stroke-width="2.65957" stroke-miterlimit="1.5" stroke-linecap="round" stroke-linejoin="round"/>
<g clip-path="url(#clip0_312_3)">
<path d="M424.178 340.054C423.503 331.073 410.28 327.58 405.136 335.038C402.033 339.539 405.179 344.864 403.875 349.734L414.332 354.011C415.146 352.899 416.373 351.683 417.177 350.955C418.846 349.444 420.622 348.736 421.963 346.837C423.239 345.029 424.339 342.19 424.178 340.054Z" stroke="#FE4CA1" stroke-width="2.77778" stroke-miterlimit="1.5" stroke-linecap="round" stroke-linejoin="round"/>
<path d="M401.103 355.964C401.684 354.534 402.198 353.077 402.807 351.659C403.048 351.098 403.234 350.367 403.885 350.172C404.836 349.887 405.933 350.238 406.829 350.579C408.507 351.219 410.177 351.918 411.839 352.602C412.596 352.913 413.781 353.244 414.31 353.9C414.814 354.524 414.579 355.566 414.383 356.255C414.007 357.574 413.227 360.545 411.756 361.084C410.83 361.423 409.724 361.122 408.817 360.875C406.409 360.219 400.398 357.695 401.103 355.964Z" stroke="#FE4CA1" stroke-width="2.77778" stroke-miterlimit="1.5" stroke-linecap="round" stroke-linejoin="round"/>
<path d="M406.548 360.089C406.249 360.874 405.938 361.659 405.56 362.411" stroke="#FE4CA1" stroke-width="2.77778" stroke-miterlimit="1.5" stroke-linecap="round" stroke-linejoin="round"/>
<path d="M393.271 340.805C394.263 340.708 395.26 340.703 396.253 340.628" stroke="#FE4CA1" stroke-width="2.77778" stroke-miterlimit="1.5" stroke-linecap="round" stroke-linejoin="round"/>
<path d="M400.114 324.076C400.788 325.026 401.398 326.021 402.076 326.968" stroke="#FE4CA1" stroke-width="2.77778" stroke-miterlimit="1.5" stroke-linecap="round" stroke-linejoin="round"/>
<path d="M420.888 324.573C421.325 323.415 421.797 322.281 422.302 321.152" stroke="#FE4CA1" stroke-width="2.77778" stroke-miterlimit="1.5" stroke-linecap="round" stroke-linejoin="round"/>
<path d="M431.792 338.138C433.245 337.849 434.712 337.62 436.172 337.369" stroke="#FE4CA1" stroke-width="2.77778" stroke-miterlimit="1.5" stroke-linecap="round" stroke-linejoin="round"/>
<path d="M423.416 352.925C423.974 354.076 424.54 355.218 425.057 356.388" stroke="#FE4CA1" stroke-width="2.77778" stroke-miterlimit="1.5" stroke-linecap="round" stroke-linejoin="round"/>
</g>
<path d="M80 44C80 60.5686 66.5686 74 50 74C33.4314 74 20 60.5686 20 44C20 27.4314 33.4314 14 50 14C66.5686 14 80 27.4314 80 44Z" fill="#BABABA"/>
<path d="M57.2057 60.4997C63.5599 57.7208 68 51.379 68 44C68 34.0589 59.9411 26 50 26C40.0589 26 32 34.0589 32 44C32 51.3794 36.4406 57.7215 42.7955 60.5003C38.8381 62.231 35.6231 65.3437 33.7607 69.2284C38.4416 72.2477 44.0166 74 50.0012 74C55.9856 74 61.5607 72.2477 66.2416 69.2284C64.379 65.3434 61.1636 62.2304 57.2057 60.4997Z" fill="#E8E8E8"/>
<path d="M176 36C176 52.5686 162.569 66 146 66C129.431 66 116 52.5686 116 36C116 19.4314 129.431 6 146 6C162.569 6 176 19.4314 176 36Z" fill="#BABABA"/>
<path d="M153.206 52.4997C159.56 49.7208 164 43.379 164 36C164 26.0589 155.941 18 146 18C136.059 18 128 26.0589 128 36C128 43.3794 132.441 49.7215 138.796 52.5003C134.838 54.231 131.623 57.3437 129.761 61.2284C134.442 64.2477 140.017 66 146.001 66C151.986 66 157.561 64.2477 162.242 61.2284C160.379 57.3434 157.164 54.2304 153.206 52.4997Z" fill="#E8E8E8"/>
<path d="M354 50C354 66.5686 340.569 80 324 80C307.431 80 294 66.5686 294 50C294 33.4314 307.431 20 324 20C340.569 20 354 33.4314 354 50Z" fill="#BABABA"/>
<path d="M331.206 66.4997C337.56 63.7208 342 57.379 342 50C342 40.0589 333.941 32 324 32C314.059 32 306 40.0589 306 50C306 57.3794 310.441 63.7215 316.796 66.5003C312.838 68.231 309.623 71.3437 307.761 75.2284C312.442 78.2477 318.017 80 324.001 80C329.986 80 335.561 78.2477 340.242 75.2284C338.379 71.3434 335.164 68.2304 331.206 66.4997Z" fill="#E8E8E8"/>
<path d="M132 126C132 142.569 118.569 156 102 156C85.4314 156 72 142.569 72 126C72 109.431 85.4314 96 102 96C118.569 96 132 109.431 132 126Z" fill="#BABABA"/>
<path d="M109.206 142.5C115.56 139.721 120 133.379 120 126C120 116.059 111.941 108 102 108C92.0589 108 84 116.059 84 126C84 133.379 88.4406 139.722 94.7955 142.5C90.8381 144.231 87.6231 147.344 85.7607 151.228C90.4416 154.248 96.0166 156 102.001 156C107.986 156 113.561 154.248 118.242 151.228C116.379 147.343 113.164 144.23 109.206 142.5Z" fill="#E8E8E8"/>
<path d="M409 120C409 136.569 395.569 150 379 150C362.431 150 349 136.569 349 120C349 103.431 362.431 90 379 90C395.569 90 409 103.431 409 120Z" fill="#BABABA"/>
<path d="M386.206 136.5C392.56 133.721 397 127.379 397 120C397 110.059 388.941 102 379 102C369.059 102 361 110.059 361 120C361 127.379 365.441 133.722 371.796 136.5C367.838 138.231 364.623 141.344 362.761 145.228C367.442 148.248 373.017 150 379.001 150C384.986 150 390.561 148.248 395.242 145.228C393.379 141.343 390.164 138.23 386.206 136.5Z" fill="#E8E8E8"/>
<path d="M312 126C312 142.569 298.569 156 282 156C265.431 156 252 142.569 252 126C252 109.431 265.431 96 282 96C298.569 96 312 109.431 312 126Z" fill="#BABABA"/>
<path d="M289.206 142.5C295.56 139.721 300 133.379 300 126C300 116.059 291.941 108 282 108C272.059 108 264 116.059 264 126C264 133.379 268.441 139.722 274.796 142.5C270.838 144.231 267.623 147.344 265.761 151.228C270.442 154.248 276.017 156 282.001 156C287.986 156 293.561 154.248 298.242 151.228C296.379 147.343 293.164 144.23 289.206 142.5Z" fill="#E8E8E8"/>
<path d="M238 368.5C231.321 364.397 183.001 392 151.203 379.292C148.584 377.994 144.792 376.902 142.502 375.013" stroke="#FE4CA1" stroke-width="2.77778" stroke-miterlimit="1.5" stroke-linecap="round" stroke-linejoin="round"/>
<path d="M173.501 453.5C202.03 453.5 270.047 448.794 273.001 448.5" stroke="#FE4CA1" stroke-width="2.77778" stroke-miterlimit="1.5" stroke-linecap="round" stroke-linejoin="round"/>
<path d="M328.001 388.5C320.816 389.721 299.5 428.518 221.501 414.5C113 395 89.6034 423.433 82.5007 425" stroke="#FE4CA1" stroke-width="2.77778" stroke-miterlimit="1.5" stroke-linecap="round" stroke-linejoin="round"/>
<path d="M176 453C176 469.569 162.569 483 146 483C129.431 483 116 469.569 116 453C116 436.431 129.431 423 146 423C162.569 423 176 436.431 176 453Z" fill="#FE4CA1"/>
<path d="M153.206 469.5C159.56 466.721 164 460.379 164 453C164 443.059 155.941 435 146 435C136.059 435 128 443.059 128 453C128 460.379 132.441 466.722 138.796 469.5C134.838 471.231 131.623 474.344 129.761 478.228C134.442 481.248 140.017 483 146.001 483C151.986 483 157.561 481.248 162.242 478.228C160.379 474.343 157.164 471.23 153.206 469.5Z" fill="#FFA7D1"/>
<path d="M146 463.5C149.106 463.5 151.771 461.612 152.91 458.921C153.556 457.395 152.157 456 150.5 456H141.5C139.843 456 138.445 457.395 139.091 458.921C140.23 461.612 142.894 463.5 146 463.5Z" fill="#FE4CA1"/>
<path d="M140 449.25C140 450.493 138.993 451.5 137.75 451.5C136.507 451.5 135.5 450.493 135.5 449.25C135.5 448.007 136.507 447 137.75 447C138.993 447 140 448.007 140 449.25Z" fill="#FE4CA1"/>
<path d="M156.5 449.25C156.5 450.493 155.493 451.5 154.25 451.5C153.007 451.5 152 450.493 152 449.25C152 448.007 153.007 447 154.25 447C155.493 447 156.5 448.007 156.5 449.25Z" fill="#FE4CA1"/>
<path d="M147 364C147 380.569 133.569 394 117 394C100.431 394 87 380.569 87 364C87 347.431 100.431 334 117 334C133.569 334 147 347.431 147 364Z" fill="#FE4CA1"/>
<path d="M97.5 364C97.5 353.23 106.23 344.5 117 344.5C127.77 344.5 136.5 353.23 136.5 364V377.227C136.5 378.206 135.706 379 134.727 379C132.527 379 130.421 378.599 128.477 377.867C127.192 378.932 125.756 379.822 124.206 380.5C128.164 382.23 131.379 385.343 133.242 389.228C128.561 392.248 122.986 394 117.001 394C111.017 394 105.442 392.248 100.761 389.228C102.623 385.344 105.838 382.231 109.796 380.5C108.245 379.822 106.809 378.932 105.523 377.867C103.579 378.599 101.473 379 99.2727 379C98.2936 379 97.5 378.206 97.5 377.227V364Z" fill="#FFA7D1"/>
<path fill-rule="evenodd" clip-rule="evenodd" d="M112.5 368.5C113.328 368.5 114 369.172 114 370C114 371.657 115.343 373 117 373C118.657 373 120 371.657 120 370C120 369.172 120.672 368.5 121.5 368.5C122.328 368.5 123 369.172 123 370C123 373.314 120.314 376 117 376C113.686 376 111 373.314 111 370C111 369.172 111.672 368.5 112.5 368.5Z" fill="#FE4CA1"/>
<path d="M111 360.25C111 361.493 109.993 362.5 108.75 362.5C107.507 362.5 106.5 361.493 106.5 360.25C106.5 359.007 107.507 358 108.75 358C109.993 358 111 359.007 111 360.25Z" fill="#FE4CA1"/>
<path d="M127.5 360.25C127.5 361.493 126.493 362.5 125.25 362.5C124.007 362.5 123 361.493 123 360.25C123 359.007 124.007 358 125.25 358C126.493 358 127.5 359.007 127.5 360.25Z" fill="#FE4CA1"/>
<path d="M86 435C86 451.569 72.5686 465 56 465C39.4314 465 26 451.569 26 435C26 418.431 39.4314 405 56 405C72.5686 405 86 418.431 86 435Z" fill="#FE4CA1"/>
<path d="M36.65 433.95C36.65 435.205 37.2212 436.327 38.1179 437.07C38.8599 443.551 43.0436 448.985 48.7955 451.5C44.8381 453.231 41.6231 456.344 39.7607 460.228C44.4416 463.248 50.0166 465 56.0012 465C61.9856 465 67.5607 463.248 72.2416 460.228C70.3792 456.343 67.1638 453.23 63.2057 451.5C68.9571 448.985 73.1405 443.55 73.8824 437.07C74.7789 436.327 75.3498 435.205 75.3498 433.95C75.3498 433.135 75.1091 432.376 74.6949 431.741C75.6417 430.999 76.2503 429.846 76.2503 428.55C76.2503 427.116 75.505 425.856 74.3806 425.136C74.7114 424.55 74.9003 423.872 74.9003 423.15C74.9003 420.913 73.0871 419.1 70.8503 419.1C70.8503 416.863 69.0371 415.05 66.8003 415.05C66.2733 415.05 65.7699 415.151 65.3083 415.334C64.8403 413.614 63.2678 412.35 61.4002 412.35C60.6783 412.35 60.0007 412.539 59.4138 412.87C58.6941 411.745 57.4341 411 56.0001 411C54.5661 411 53.3062 411.745 52.5865 412.87C51.9997 412.539 51.322 412.35 50.6002 412.35C48.7325 412.35 47.1601 413.614 46.6921 415.334C46.2304 415.151 45.7269 415.05 45.2 415.05C42.9632 415.05 41.15 416.863 41.15 419.1C38.9132 419.1 37.1 420.913 37.1 423.15C37.1 423.872 37.2889 424.55 37.6198 425.136C36.4954 425.856 35.75 427.116 35.75 428.55C35.75 429.846 36.3584 430.999 37.3052 431.74C36.8908 432.376 36.65 433.135 36.65 433.95Z" fill="#FFA7D1"/>
<path fill-rule="evenodd" clip-rule="evenodd" d="M51.5 439.5C52.3284 439.5 53 440.172 53 441C53 442.657 54.3431 444 56 444C57.6569 444 59 442.657 59 441C59 440.172 59.6715 439.5 60.5 439.5C61.3285 439.5 62 440.172 62 441C62 444.314 59.3137 447 56 447C52.6863 447 50 444.314 50 441C50 440.172 50.6716 439.5 51.5 439.5Z" fill="#FE4CA1"/>
<path d="M50 431.25C50 432.493 48.9926 433.5 47.75 433.5C46.5074 433.5 45.5 432.493 45.5 431.25C45.5 430.007 46.5074 429 47.75 429C48.9926 429 50 430.007 50 431.25Z" fill="#FE4CA1"/>
<path d="M66.5 431.25C66.5 432.493 65.4926 433.5 64.25 433.5C63.0074 433.5 62 432.493 62 431.25C62 430.007 63.0074 429 64.25 429C65.4926 429 66.5 430.007 66.5 431.25Z" fill="#FE4CA1"/>
<path d="M382 377C382 393.569 368.569 407 352 407C335.431 407 322 393.569 322 377C322 360.431 335.431 347 352 347C368.569 347 382 360.431 382 377Z" fill="#FE4CA1"/>
<path d="M359.206 393.5C365.56 390.721 370 384.379 370 377C370 367.059 361.941 359 352 359C342.059 359 334 367.059 334 377C334 384.379 338.441 390.722 344.796 393.5C340.838 395.231 337.623 398.344 335.761 402.228C340.442 405.248 346.017 407 352.001 407C357.986 407 363.561 405.248 368.242 402.228C366.379 398.343 363.164 395.23 359.206 393.5Z" fill="#FFA7D1"/>
<path d="M352 387.5C355.106 387.5 357.771 385.612 358.91 382.921C359.556 381.395 358.157 380 356.5 380H347.5C345.843 380 344.445 381.395 345.091 382.921C346.23 385.612 348.894 387.5 352 387.5Z" fill="#FE4CA1"/>
<path d="M346 373.25C346 374.493 344.993 375.5 343.75 375.5C342.507 375.5 341.5 374.493 341.5 373.25C341.5 372.007 342.507 371 343.75 371C344.993 371 346 372.007 346 373.25Z" fill="#FE4CA1"/>
<path d="M362.5 373.25C362.5 374.493 361.493 375.5 360.25 375.5C359.007 375.5 358 374.493 358 373.25C358 372.007 359.007 371 360.25 371C361.493 371 362.5 372.007 362.5 373.25Z" fill="#FE4CA1"/>
<path d="M326 445C326 461.569 312.569 475 296 475C279.431 475 266 461.569 266 445C266 428.431 279.431 415 296 415C312.569 415 326 428.431 326 445Z" fill="#FE4CA1"/>
<path d="M276.65 443.95C276.65 445.205 277.221 446.327 278.118 447.07C278.86 453.551 283.044 458.985 288.796 461.5C284.838 463.231 281.623 466.344 279.761 470.228C284.442 473.248 290.017 475 296.001 475C301.986 475 307.561 473.248 312.242 470.228C310.379 466.343 307.164 463.23 303.206 461.5C308.957 458.985 313.14 453.55 313.882 447.07C314.779 446.327 315.35 445.205 315.35 443.95C315.35 443.135 315.109 442.376 314.695 441.741C315.642 440.999 316.25 439.846 316.25 438.55C316.25 437.116 315.505 435.856 314.381 435.136C314.711 434.55 314.9 433.872 314.9 433.15C314.9 430.913 313.087 429.1 310.85 429.1C310.85 426.863 309.037 425.05 306.8 425.05C306.273 425.05 305.77 425.151 305.308 425.334C304.84 423.614 303.268 422.35 301.4 422.35C300.678 422.35 300.001 422.539 299.414 422.87C298.694 421.745 297.434 421 296 421C294.566 421 293.306 421.745 292.586 422.87C292 422.539 291.322 422.35 290.6 422.35C288.733 422.35 287.16 423.614 286.692 425.334C286.23 425.151 285.727 425.05 285.2 425.05C282.963 425.05 281.15 426.863 281.15 429.1C278.913 429.1 277.1 430.913 277.1 433.15C277.1 433.872 277.289 434.55 277.62 435.136C276.495 435.856 275.75 437.116 275.75 438.55C275.75 439.846 276.358 440.999 277.305 441.74C276.891 442.376 276.65 443.135 276.65 443.95Z" fill="#FFA7D1"/>
<path fill-rule="evenodd" clip-rule="evenodd" d="M291.5 449.5C292.328 449.5 293 450.172 293 451C293 452.657 294.343 454 296 454C297.657 454 299 452.657 299 451C299 450.172 299.672 449.5 300.5 449.5C301.328 449.5 302 450.172 302 451C302 454.314 299.314 457 296 457C292.686 457 290 454.314 290 451C290 450.172 290.672 449.5 291.5 449.5Z" fill="#FE4CA1"/>
<path d="M290 441.25C290 442.493 288.993 443.5 287.75 443.5C286.507 443.5 285.5 442.493 285.5 441.25C285.5 440.007 286.507 439 287.75 439C288.993 439 290 440.007 290 441.25Z" fill="#FE4CA1"/>
<path d="M306.5 441.25C306.5 442.493 305.493 443.5 304.25 443.5C303.007 443.5 302 442.493 302 441.25C302 440.007 303.007 439 304.25 439C305.493 439 306.5 440.007 306.5 441.25Z" fill="#FE4CA1"/>
<path d="M296 365C296 381.569 282.569 395 266 395C249.431 395 236 381.569 236 365C236 348.431 249.431 335 266 335C282.569 335 296 348.431 296 365Z" fill="#FE4CA1"/>
<path d="M246.65 363.95C246.65 365.205 247.221 366.327 248.118 367.07C248.86 373.551 253.044 378.985 258.796 381.5C254.838 383.231 251.623 386.344 249.761 390.228C254.442 393.248 260.017 395 266.001 395C271.986 395 277.561 393.248 282.242 390.228C280.379 386.343 277.164 383.23 273.206 381.5C278.957 378.985 283.14 373.55 283.882 367.07C284.779 366.327 285.35 365.205 285.35 363.95C285.35 363.135 285.109 362.376 284.695 361.741C285.642 360.999 286.25 359.846 286.25 358.55C286.25 357.116 285.505 355.856 284.381 355.136C284.711 354.55 284.9 353.872 284.9 353.15C284.9 350.913 283.087 349.1 280.85 349.1C280.85 346.863 279.037 345.05 276.8 345.05C276.273 345.05 275.77 345.151 275.308 345.334C274.84 343.614 273.268 342.35 271.4 342.35C270.678 342.35 270.001 342.539 269.414 342.87C268.694 341.745 267.434 341 266 341C264.566 341 263.306 341.745 262.586 342.87C262 342.539 261.322 342.35 260.6 342.35C258.733 342.35 257.16 343.614 256.692 345.334C256.23 345.151 255.727 345.05 255.2 345.05C252.963 345.05 251.15 346.863 251.15 349.1C248.913 349.1 247.1 350.913 247.1 353.15C247.1 353.872 247.289 354.55 247.62 355.136C246.495 355.856 245.75 357.116 245.75 358.55C245.75 359.846 246.358 360.999 247.305 361.74C246.891 362.376 246.65 363.135 246.65 363.95Z" fill="#FFA7D1"/>
<path fill-rule="evenodd" clip-rule="evenodd" d="M261.5 369.5C262.328 369.5 263 370.172 263 371C263 372.657 264.343 374 266 374C267.657 374 269 372.657 269 371C269 370.172 269.672 369.5 270.5 369.5C271.328 369.5 272 370.172 272 371C272 374.314 269.314 377 266 377C262.686 377 260 374.314 260 371C260 370.172 260.672 369.5 261.5 369.5Z" fill="#FE4CA1"/>
<path d="M260 361.25C260 362.493 258.993 363.5 257.75 363.5C256.507 363.5 255.5 362.493 255.5 361.25C255.5 360.007 256.507 359 257.75 359C258.993 359 260 360.007 260 361.25Z" fill="#FE4CA1"/>
<path d="M276.5 361.25C276.5 362.493 275.493 363.5 274.25 363.5C273.007 363.5 272 362.493 272 361.25C272 360.007 273.007 359 274.25 359C275.493 359 276.5 360.007 276.5 361.25Z" fill="#FE4CA1"/>
<path d="M14.92 187.2H27.88V204H25.624V189.264H17.176V204H14.92V187.2ZM36.4047 204.192C34.6927 204.192 33.3407 203.688 32.3487 202.68C31.3727 201.672 30.8847 200.224 30.8847 198.336V197.664C30.8847 195.792 31.3807 194.352 32.3727 193.344C33.3647 192.32 34.7087 191.808 36.4047 191.808C38.1167 191.808 39.4607 192.312 40.4367 193.32C41.4287 194.328 41.9247 195.776 41.9247 197.664V198.336C41.9247 200.208 41.4287 201.656 40.4367 202.68C39.4447 203.688 38.1007 204.192 36.4047 204.192ZM36.4047 202.224C37.4127 202.224 38.2047 201.912 38.7807 201.288C39.3727 200.648 39.6687 199.664 39.6687 198.336V197.664C39.6687 196.352 39.3727 195.376 38.7807 194.736C38.2047 194.096 37.4127 193.776 36.4047 193.776C35.3967 193.776 34.5967 194.096 34.0047 194.736C33.4287 195.36 33.1407 196.336 33.1407 197.664V198.336C33.1407 199.648 33.4287 200.624 34.0047 201.264C34.5967 201.904 35.3967 202.224 36.4047 202.224ZM49.36 204.192C47.744 204.192 46.456 203.688 45.496 202.68C44.552 201.672 44.08 200.184 44.08 198.216V197.544C44.08 196.632 44.208 195.824 44.464 195.12C44.72 194.416 45.072 193.816 45.52 193.32C45.984 192.824 46.536 192.448 47.176 192.192C47.832 191.936 48.56 191.808 49.36 191.808C50.112 191.808 50.776 191.912 51.352 192.12C51.944 192.312 52.448 192.576 52.864 192.912C53.28 193.248 53.616 193.648 53.872 194.112C54.128 194.576 54.304 195.072 54.4 195.6H52.144C51.968 195.088 51.664 194.656 51.232 194.304C50.816 193.952 50.232 193.776 49.48 193.776C48.52 193.776 47.752 194.088 47.176 194.712C46.616 195.32 46.336 196.264 46.336 197.544V198.216C46.336 199.608 46.616 200.624 47.176 201.264C47.752 201.904 48.52 202.224 49.48 202.224C50.232 202.224 50.816 202.04 51.232 201.672C51.664 201.288 51.968 200.784 52.144 200.16H54.4C54.304 200.752 54.128 201.296 53.872 201.792C53.616 202.272 53.28 202.696 52.864 203.064C52.448 203.416 51.944 203.696 51.352 203.904C50.776 204.096 50.112 204.192 49.36 204.192ZM59.3172 193.968H55.4772V192H65.3172V193.968H61.4772V204H59.3172V193.968ZM70.4931 204.192C69.1331 204.192 68.1091 203.872 67.4211 203.232C66.7491 202.592 66.4131 201.72 66.4131 200.616C66.4131 199.416 66.8131 198.472 67.6131 197.784C68.4291 197.08 69.7491 196.728 71.5731 196.728H74.3331V196.08C74.3331 195.296 74.1251 194.72 73.7091 194.352C73.3091 193.968 72.6371 193.776 71.6931 193.776C70.8291 193.776 70.1971 193.928 69.7971 194.232C69.3971 194.52 69.1651 194.896 69.1011 195.36H66.8931C66.9251 194.864 67.0451 194.4 67.2531 193.968C67.4771 193.536 67.7891 193.16 68.1891 192.84C68.5891 192.52 69.0771 192.272 69.6531 192.096C70.2451 191.904 70.9251 191.808 71.6931 191.808C73.3411 191.808 74.5491 192.176 75.3171 192.912C76.1011 193.648 76.4931 194.744 76.4931 196.2V204H74.8131L74.5491 202.2H74.5011C73.5251 203.528 72.1891 204.192 70.4931 204.192ZM70.7331 202.224C71.2291 202.224 71.6931 202.144 72.1251 201.984C72.5731 201.808 72.9571 201.576 73.2771 201.288C73.6131 200.984 73.8691 200.64 74.0451 200.256C74.2371 199.856 74.3331 199.432 74.3331 198.984V198.552H71.6931C70.5731 198.552 69.7891 198.744 69.3411 199.128C68.8931 199.496 68.6691 199.984 68.6691 200.592C68.6691 201.072 68.8371 201.464 69.1731 201.768C69.5251 202.072 70.0451 202.224 70.7331 202.224ZM79.9797 192H84.6597C86.2277 192 87.3557 192.304 88.0437 192.912C88.7477 193.52 89.0997 194.328 89.0997 195.336C89.0997 195.848 88.9717 196.312 88.7157 196.728C88.4597 197.128 88.0917 197.464 87.6117 197.736V197.784C88.2357 198.04 88.7157 198.408 89.0517 198.888C89.4037 199.352 89.5797 199.896 89.5797 200.52C89.5797 201.608 89.2277 202.464 88.5237 203.088C87.8357 203.696 86.7077 204 85.1397 204H79.9797V192ZM86.8437 195.456C86.8437 194.992 86.6757 194.632 86.3397 194.376C86.0197 194.104 85.4197 193.968 84.5397 193.968H82.1397V196.968H84.5397C85.4197 196.968 86.0197 196.84 86.3397 196.584C86.6757 196.312 86.8437 195.936 86.8437 195.456ZM87.3237 200.4C87.3237 199.888 87.1557 199.496 86.8197 199.224C86.4837 198.936 85.8837 198.792 85.0197 198.792H82.1397V202.032H85.0197C85.8837 202.032 86.4837 201.896 86.8197 201.624C87.1557 201.336 87.3237 200.928 87.3237 200.4ZM106.608 204H92.4484V192H94.6084V202.032H98.6884V192H100.848V202.032H104.928V192H107.088V202.032H108.768V207.12H106.608V204ZM111.058 192H113.218V201.36H113.266L118.498 192H121.378V204H119.218V194.64H119.17L113.938 204H111.058V192ZM124.98 192H127.14V196.776H128.82L132.084 192H134.58L130.524 197.688L135.06 204H132.468L128.82 198.744H127.14V204H124.98V192ZM137.214 192H139.374V201.36H139.422L144.654 192H147.534V204H145.374V194.64H145.326L140.094 204H137.214V192Z" fill="#BABABA"/>
<path d="M289.92 187.2H302.88V204H300.624V189.264H292.176V204H289.92V187.2ZM306.605 192H308.285L308.525 193.68H308.573C309.133 193.008 309.717 192.528 310.325 192.24C310.949 191.952 311.693 191.808 312.557 191.808C313.277 191.808 313.933 191.936 314.525 192.192C315.117 192.432 315.629 192.8 316.061 193.296C316.493 193.776 316.821 194.384 317.045 195.12C317.285 195.84 317.405 196.688 317.405 197.664V198.336C317.405 199.296 317.285 200.144 317.045 200.88C316.805 201.6 316.469 202.208 316.037 202.704C315.605 203.2 315.093 203.576 314.501 203.832C313.909 204.072 313.261 204.192 312.557 204.192C311.741 204.192 311.037 204.064 310.445 203.808C309.869 203.552 309.325 203.136 308.813 202.56H308.765V208.8H306.605V192ZM311.957 202.224C312.933 202.224 313.709 201.912 314.285 201.288C314.861 200.648 315.149 199.664 315.149 198.336V197.664C315.149 196.368 314.853 195.4 314.261 194.76C313.685 194.104 312.917 193.776 311.957 193.776C310.981 193.776 310.205 194.096 309.629 194.736C309.053 195.36 308.765 196.336 308.765 197.664V198.336C308.765 199.632 309.053 200.608 309.629 201.264C310.221 201.904 310.997 202.224 311.957 202.224ZM325.092 204.192C323.38 204.192 322.028 203.688 321.036 202.68C320.06 201.672 319.572 200.224 319.572 198.336V197.664C319.572 195.792 320.068 194.352 321.06 193.344C322.052 192.32 323.396 191.808 325.092 191.808C326.804 191.808 328.148 192.312 329.124 193.32C330.116 194.328 330.612 195.776 330.612 197.664V198.336C330.612 200.208 330.116 201.656 329.124 202.68C328.132 203.688 326.788 204.192 325.092 204.192ZM325.092 202.224C326.1 202.224 326.892 201.912 327.468 201.288C328.06 200.648 328.356 199.664 328.356 198.336V197.664C328.356 196.352 328.06 195.376 327.468 194.736C326.892 194.096 326.1 193.776 325.092 193.776C324.084 193.776 323.284 194.096 322.692 194.736C322.116 195.36 321.828 196.336 321.828 197.664V198.336C321.828 199.648 322.116 200.624 322.692 201.264C323.284 201.904 324.084 202.224 325.092 202.224ZM331.813 202.032H333.013C333.269 201.68 333.477 201.312 333.637 200.928C333.813 200.528 333.949 200.088 334.045 199.608C334.157 199.112 334.229 198.544 334.261 197.904C334.309 197.248 334.333 196.48 334.333 195.6V192H342.973V202.032H344.413V207.12H342.349V204H333.877V207.12H331.813V202.032ZM340.813 202.032V193.968H336.397V195.6C336.397 196.384 336.381 197.088 336.349 197.712C336.317 198.32 336.261 198.88 336.181 199.392C336.101 199.888 335.997 200.352 335.869 200.784C335.741 201.2 335.589 201.6 335.413 201.984V202.032H340.813ZM350.157 204.192C348.797 204.192 347.773 203.872 347.085 203.232C346.413 202.592 346.077 201.72 346.077 200.616C346.077 199.416 346.477 198.472 347.277 197.784C348.093 197.08 349.413 196.728 351.237 196.728H353.997V196.08C353.997 195.296 353.789 194.72 353.373 194.352C352.973 193.968 352.301 193.776 351.357 193.776C350.493 193.776 349.861 193.928 349.461 194.232C349.061 194.52 348.829 194.896 348.765 195.36H346.557C346.589 194.864 346.709 194.4 346.917 193.968C347.141 193.536 347.453 193.16 347.853 192.84C348.253 192.52 348.741 192.272 349.317 192.096C349.909 191.904 350.589 191.808 351.357 191.808C353.005 191.808 354.213 192.176 354.981 192.912C355.765 193.648 356.157 194.744 356.157 196.2V204H354.477L354.213 202.2H354.165C353.189 203.528 351.853 204.192 350.157 204.192ZM350.397 202.224C350.893 202.224 351.357 202.144 351.789 201.984C352.237 201.808 352.621 201.576 352.941 201.288C353.277 200.984 353.533 200.64 353.709 200.256C353.901 199.856 353.997 199.432 353.997 198.984V198.552H351.357C350.237 198.552 349.453 198.744 349.005 199.128C348.557 199.496 348.333 199.984 348.333 200.592C348.333 201.072 348.501 201.464 348.837 201.768C349.189 202.072 349.709 202.224 350.397 202.224ZM359.644 192H364.324C365.892 192 367.02 192.304 367.708 192.912C368.412 193.52 368.764 194.328 368.764 195.336C368.764 195.848 368.636 196.312 368.38 196.728C368.124 197.128 367.756 197.464 367.276 197.736V197.784C367.9 198.04 368.38 198.408 368.716 198.888C369.068 199.352 369.244 199.896 369.244 200.52C369.244 201.608 368.892 202.464 368.188 203.088C367.5 203.696 366.372 204 364.804 204H359.644V192ZM366.508 195.456C366.508 194.992 366.34 194.632 366.004 194.376C365.684 194.104 365.084 193.968 364.204 193.968H361.804V196.968H364.204C365.084 196.968 365.684 196.84 366.004 196.584C366.34 196.312 366.508 195.936 366.508 195.456ZM366.988 200.4C366.988 199.888 366.82 199.496 366.484 199.224C366.148 198.936 365.548 198.792 364.684 198.792H361.804V202.032H364.684C365.548 202.032 366.148 201.896 366.484 201.624C366.82 201.336 366.988 200.928 366.988 200.4ZM381.353 204H372.113V192H374.273V202.032H379.673V192H381.833V202.032H383.513V207.12H381.353V204ZM397.08 192H399.24V204H397.08V192ZM385.8 192H387.96V195.84H390.36C392.008 195.84 393.216 196.2 393.984 196.92C394.768 197.64 395.16 198.64 395.16 199.92C395.16 201.184 394.768 202.184 393.984 202.92C393.2 203.64 391.992 204 390.36 204H385.8V192ZM387.96 197.808V202.032H390.24C391.216 202.032 391.904 201.856 392.304 201.504C392.704 201.152 392.904 200.624 392.904 199.92C392.904 199.232 392.696 198.712 392.28 198.36C391.88 197.992 391.2 197.808 390.24 197.808H387.96Z" fill="#BABABA"/>
<path d="M14.92 506.2H27.88V523H25.624V508.264H17.176V523H14.92V506.2ZM36.4047 523.192C34.6927 523.192 33.3407 522.688 32.3487 521.68C31.3727 520.672 30.8847 519.224 30.8847 517.336V516.664C30.8847 514.792 31.3807 513.352 32.3727 512.344C33.3647 511.32 34.7087 510.808 36.4047 510.808C38.1167 510.808 39.4607 511.312 40.4367 512.32C41.4287 513.328 41.9247 514.776 41.9247 516.664V517.336C41.9247 519.208 41.4287 520.656 40.4367 521.68C39.4447 522.688 38.1007 523.192 36.4047 523.192ZM36.4047 521.224C37.4127 521.224 38.2047 520.912 38.7807 520.288C39.3727 519.648 39.6687 518.664 39.6687 517.336V516.664C39.6687 515.352 39.3727 514.376 38.7807 513.736C38.2047 513.096 37.4127 512.776 36.4047 512.776C35.3967 512.776 34.5967 513.096 34.0047 513.736C33.4287 514.36 33.1407 515.336 33.1407 516.664V517.336C33.1407 518.648 33.4287 519.624 34.0047 520.264C34.5967 520.904 35.3967 521.224 36.4047 521.224ZM49.36 523.192C47.744 523.192 46.456 522.688 45.496 521.68C44.552 520.672 44.08 519.184 44.08 517.216V516.544C44.08 515.632 44.208 514.824 44.464 514.12C44.72 513.416 45.072 512.816 45.52 512.32C45.984 511.824 46.536 511.448 47.176 511.192C47.832 510.936 48.56 510.808 49.36 510.808C50.112 510.808 50.776 510.912 51.352 511.12C51.944 511.312 52.448 511.576 52.864 511.912C53.28 512.248 53.616 512.648 53.872 513.112C54.128 513.576 54.304 514.072 54.4 514.6H52.144C51.968 514.088 51.664 513.656 51.232 513.304C50.816 512.952 50.232 512.776 49.48 512.776C48.52 512.776 47.752 513.088 47.176 513.712C46.616 514.32 46.336 515.264 46.336 516.544V517.216C46.336 518.608 46.616 519.624 47.176 520.264C47.752 520.904 48.52 521.224 49.48 521.224C50.232 521.224 50.816 521.04 51.232 520.672C51.664 520.288 51.968 519.784 52.144 519.16H54.4C54.304 519.752 54.128 520.296 53.872 520.792C53.616 521.272 53.28 521.696 52.864 522.064C52.448 522.416 51.944 522.696 51.352 522.904C50.776 523.096 50.112 523.192 49.36 523.192ZM59.3172 512.968H55.4772V511H65.3172V512.968H61.4772V523H59.3172V512.968ZM70.4931 523.192C69.1331 523.192 68.1091 522.872 67.4211 522.232C66.7491 521.592 66.4131 520.72 66.4131 519.616C66.4131 518.416 66.8131 517.472 67.6131 516.784C68.4291 516.08 69.7491 515.728 71.5731 515.728H74.3331V515.08C74.3331 514.296 74.1251 513.72 73.7091 513.352C73.3091 512.968 72.6371 512.776 71.6931 512.776C70.8291 512.776 70.1971 512.928 69.7971 513.232C69.3971 513.52 69.1651 513.896 69.1011 514.36H66.8931C66.9251 513.864 67.0451 513.4 67.2531 512.968C67.4771 512.536 67.7891 512.16 68.1891 511.84C68.5891 511.52 69.0771 511.272 69.6531 511.096C70.2451 510.904 70.9251 510.808 71.6931 510.808C73.3411 510.808 74.5491 511.176 75.3171 511.912C76.1011 512.648 76.4931 513.744 76.4931 515.2V523H74.8131L74.5491 521.2H74.5011C73.5251 522.528 72.1891 523.192 70.4931 523.192ZM70.7331 521.224C71.2291 521.224 71.6931 521.144 72.1251 520.984C72.5731 520.808 72.9571 520.576 73.2771 520.288C73.6131 519.984 73.8691 519.64 74.0451 519.256C74.2371 518.856 74.3331 518.432 74.3331 517.984V517.552H71.6931C70.5731 517.552 69.7891 517.744 69.3411 518.128C68.8931 518.496 68.6691 518.984 68.6691 519.592C68.6691 520.072 68.8371 520.464 69.1731 520.768C69.5251 521.072 70.0451 521.224 70.7331 521.224ZM79.9797 511H84.6597C86.2277 511 87.3557 511.304 88.0437 511.912C88.7477 512.52 89.0997 513.328 89.0997 514.336C89.0997 514.848 88.9717 515.312 88.7157 515.728C88.4597 516.128 88.0917 516.464 87.6117 516.736V516.784C88.2357 517.04 88.7157 517.408 89.0517 517.888C89.4037 518.352 89.5797 518.896 89.5797 519.52C89.5797 520.608 89.2277 521.464 88.5237 522.088C87.8357 522.696 86.7077 523 85.1397 523H79.9797V511ZM86.8437 514.456C86.8437 513.992 86.6757 513.632 86.3397 513.376C86.0197 513.104 85.4197 512.968 84.5397 512.968H82.1397V515.968H84.5397C85.4197 515.968 86.0197 515.84 86.3397 515.584C86.6757 515.312 86.8437 514.936 86.8437 514.456ZM87.3237 519.4C87.3237 518.888 87.1557 518.496 86.8197 518.224C86.4837 517.936 85.8837 517.792 85.0197 517.792H82.1397V521.032H85.0197C85.8837 521.032 86.4837 520.896 86.8197 520.624C87.1557 520.336 87.3237 519.928 87.3237 519.4ZM106.608 523H92.4484V511H94.6084V521.032H98.6884V511H100.848V521.032H104.928V511H107.088V521.032H108.768V526.12H106.608V523ZM111.058 511H113.218V520.36H113.266L118.498 511H121.378V523H119.218V513.64H119.17L113.938 523H111.058V511ZM124.98 511H127.14V515.776H128.82L132.084 511H134.58L130.524 516.688L135.06 523H132.468L128.82 517.744H127.14V523H124.98V511ZM137.214 511H139.374V520.36H139.422L144.654 511H147.534V523H145.374V513.64H145.326L140.094 523H137.214V511Z" fill="#FE4CA1"/>
<path d="M289.92 506.2H302.88V523H300.624V508.264H292.176V523H289.92V506.2ZM306.605 511H308.285L308.525 512.68H308.573C309.133 512.008 309.717 511.528 310.325 511.24C310.949 510.952 311.693 510.808 312.557 510.808C313.277 510.808 313.933 510.936 314.525 511.192C315.117 511.432 315.629 511.8 316.061 512.296C316.493 512.776 316.821 513.384 317.045 514.12C317.285 514.84 317.405 515.688 317.405 516.664V517.336C317.405 518.296 317.285 519.144 317.045 519.88C316.805 520.6 316.469 521.208 316.037 521.704C315.605 522.2 315.093 522.576 314.501 522.832C313.909 523.072 313.261 523.192 312.557 523.192C311.741 523.192 311.037 523.064 310.445 522.808C309.869 522.552 309.325 522.136 308.813 521.56H308.765V527.8H306.605V511ZM311.957 521.224C312.933 521.224 313.709 520.912 314.285 520.288C314.861 519.648 315.149 518.664 315.149 517.336V516.664C315.149 515.368 314.853 514.4 314.261 513.76C313.685 513.104 312.917 512.776 311.957 512.776C310.981 512.776 310.205 513.096 309.629 513.736C309.053 514.36 308.765 515.336 308.765 516.664V517.336C308.765 518.632 309.053 519.608 309.629 520.264C310.221 520.904 310.997 521.224 311.957 521.224ZM325.092 523.192C323.38 523.192 322.028 522.688 321.036 521.68C320.06 520.672 319.572 519.224 319.572 517.336V516.664C319.572 514.792 320.068 513.352 321.06 512.344C322.052 511.32 323.396 510.808 325.092 510.808C326.804 510.808 328.148 511.312 329.124 512.32C330.116 513.328 330.612 514.776 330.612 516.664V517.336C330.612 519.208 330.116 520.656 329.124 521.68C328.132 522.688 326.788 523.192 325.092 523.192ZM325.092 521.224C326.1 521.224 326.892 520.912 327.468 520.288C328.06 519.648 328.356 518.664 328.356 517.336V516.664C328.356 515.352 328.06 514.376 327.468 513.736C326.892 513.096 326.1 512.776 325.092 512.776C324.084 512.776 323.284 513.096 322.692 513.736C322.116 514.36 321.828 515.336 321.828 516.664V517.336C321.828 518.648 322.116 519.624 322.692 520.264C323.284 520.904 324.084 521.224 325.092 521.224ZM331.813 521.032H333.013C333.269 520.68 333.477 520.312 333.637 519.928C333.813 519.528 333.949 519.088 334.045 518.608C334.157 518.112 334.229 517.544 334.261 516.904C334.309 516.248 334.333 515.48 334.333 514.6V511H342.973V521.032H344.413V526.12H342.349V523H333.877V526.12H331.813V521.032ZM340.813 521.032V512.968H336.397V514.6C336.397 515.384 336.381 516.088 336.349 516.712C336.317 517.32 336.261 517.88 336.181 518.392C336.101 518.888 335.997 519.352 335.869 519.784C335.741 520.2 335.589 520.6 335.413 520.984V521.032H340.813ZM350.157 523.192C348.797 523.192 347.773 522.872 347.085 522.232C346.413 521.592 346.077 520.72 346.077 519.616C346.077 518.416 346.477 517.472 347.277 516.784C348.093 516.08 349.413 515.728 351.237 515.728H353.997V515.08C353.997 514.296 353.789 513.72 353.373 513.352C352.973 512.968 352.301 512.776 351.357 512.776C350.493 512.776 349.861 512.928 349.461 513.232C349.061 513.52 348.829 513.896 348.765 514.36H346.557C346.589 513.864 346.709 513.4 346.917 512.968C347.141 512.536 347.453 512.16 347.853 511.84C348.253 511.52 348.741 511.272 349.317 511.096C349.909 510.904 350.589 510.808 351.357 510.808C353.005 510.808 354.213 511.176 354.981 511.912C355.765 512.648 356.157 513.744 356.157 515.2V523H354.477L354.213 521.2H354.165C353.189 522.528 351.853 523.192 350.157 523.192ZM350.397 521.224C350.893 521.224 351.357 521.144 351.789 520.984C352.237 520.808 352.621 520.576 352.941 520.288C353.277 519.984 353.533 519.64 353.709 519.256C353.901 518.856 353.997 518.432 353.997 517.984V517.552H351.357C350.237 517.552 349.453 517.744 349.005 518.128C348.557 518.496 348.333 518.984 348.333 519.592C348.333 520.072 348.501 520.464 348.837 520.768C349.189 521.072 349.709 521.224 350.397 521.224ZM359.644 511H364.324C365.892 511 367.02 511.304 367.708 511.912C368.412 512.52 368.764 513.328 368.764 514.336C368.764 514.848 368.636 515.312 368.38 515.728C368.124 516.128 367.756 516.464 367.276 516.736V516.784C367.9 517.04 368.38 517.408 368.716 517.888C369.068 518.352 369.244 518.896 369.244 519.52C369.244 520.608 368.892 521.464 368.188 522.088C367.5 522.696 366.372 523 364.804 523H359.644V511ZM366.508 514.456C366.508 513.992 366.34 513.632 366.004 513.376C365.684 513.104 365.084 512.968 364.204 512.968H361.804V515.968H364.204C365.084 515.968 365.684 515.84 366.004 515.584C366.34 515.312 366.508 514.936 366.508 514.456ZM366.988 519.4C366.988 518.888 366.82 518.496 366.484 518.224C366.148 517.936 365.548 517.792 364.684 517.792H361.804V521.032H364.684C365.548 521.032 366.148 520.896 366.484 520.624C366.82 520.336 366.988 519.928 366.988 519.4ZM381.353 523H372.113V511H374.273V521.032H379.673V511H381.833V521.032H383.513V526.12H381.353V523ZM397.08 511H399.24V523H397.08V511ZM385.8 511H387.96V514.84H390.36C392.008 514.84 393.216 515.2 393.984 515.92C394.768 516.64 395.16 517.64 395.16 518.92C395.16 520.184 394.768 521.184 393.984 521.92C393.2 522.64 391.992 523 390.36 523H385.8V511ZM387.96 516.808V521.032H390.24C391.216 521.032 391.904 520.856 392.304 520.504C392.704 520.152 392.904 519.624 392.904 518.92C392.904 518.232 392.696 517.712 392.28 517.36C391.88 516.992 391.2 516.808 390.24 516.808H387.96Z" fill="#FE4CA1"/>
<path d="M33.379 347.889C24.3405 343.728 13.2764 347.523 8.40362 355.564C3.38431 363.847 5.7989 377.067 15.3657 381.564C20.8966 384.163 29.2932 384.42 34.7838 381.288C45.0192 375.45 47.5772 360.657 38.9397 351.629" stroke="#FE4CA1" stroke-width="2.77778" stroke-miterlimit="1.5" stroke-linecap="round" stroke-linejoin="round"/>
<path d="M27.1361 357.055C24.938 357.16 22.5507 357.495 20.9452 359.136C19.6424 360.468 19.1982 362.607 21.0619 363.712C23.7616 365.314 27.5191 363.482 30.065 365.575C31.8225 367.02 30.9549 369.475 29.4429 370.704C28.2719 371.655 26.726 371.97 25.2488 371.977C23.6725 371.985 22.0841 372.045 20.5088 372.008" stroke="#FE4CA1" stroke-width="2.77778" stroke-miterlimit="1.5" stroke-linecap="round" stroke-linejoin="round"/>
<path d="M24.7852 357.447C24.8089 356.536 24.8677 355.632 24.8368 354.721" stroke="#FE4CA1" stroke-width="2.77778" stroke-miterlimit="1.5" stroke-linecap="round" stroke-linejoin="round"/>
<path d="M24.6367 371.974C24.6641 372.836 24.6923 373.696 24.7398 374.557" stroke="#FE4CA1" stroke-width="2.77778" stroke-miterlimit="1.5" stroke-linecap="round" stroke-linejoin="round"/>
<defs>
<clipPath id="clip0_312_3">
<rect width="50" height="50" fill="white" transform="translate(399.93 309) rotate(22.2459)"/>
</clipPath>
</defs>
</svg>
