<svg width="349" height="261" viewBox="0 0 349 261" fill="none" xmlns="http://www.w3.org/2000/svg">
<path d="M75.2451 198.082C72.9497 189.515 72.0356 182.224 72.5027 176.209C73.088 169.989 74.3965 164.528 76.4281 159.826C78.4597 155.124 80.8045 150.944 83.4625 147.287C86.2821 143.587 88.8593 139.951 91.1941 136.38C93.4855 132.648 95.1463 128.825 96.1764 124.911C97.3248 120.792 97.1627 115.985 95.6902 110.489C93.8279 103.539 89.8877 98.5318 83.8694 95.467C77.8078 92.2406 70.1705 91.8617 60.9575 94.3303C50.9363 97.0155 44.0484 101.373 40.2938 107.403C36.7008 113.39 35.7721 120.914 37.5075 129.977L13.7477 136.344C12.122 128.984 11.801 121.967 12.7847 115.294C13.7251 108.459 15.8734 102.253 19.2298 96.6762C22.5861 91.0995 27.1937 86.3135 33.0527 82.3183C38.8683 78.1615 45.8169 75.0004 53.8985 72.8349C62.465 70.5395 70.3648 69.6354 77.598 70.1226C84.8313 70.6098 91.2521 72.2674 96.8605 75.0955C102.426 77.762 107.076 81.5399 110.811 86.429C114.665 91.1132 117.436 96.6071 119.125 102.911C121.117 110.346 121.713 116.769 120.911 122.181C120.109 127.593 118.649 132.489 116.53 136.867C114.412 141.246 111.884 145.388 108.946 149.294C106.127 152.994 103.636 156.953 101.474 161.17C99.2697 165.226 97.7013 169.717 96.7695 174.644C95.8376 179.571 96.2595 185.348 98.0352 191.975L75.2451 198.082ZM100.412 246.427C95.4018 247.77 90.8471 247.258 86.7483 244.891C82.7678 242.32 80.1496 238.691 78.8937 234.003C77.6377 229.316 78.1121 224.945 80.3169 220.889C82.6401 216.629 86.3069 213.827 91.3175 212.485C96.3281 211.142 100.824 211.756 104.804 214.328C108.903 216.694 111.58 220.221 112.836 224.908C114.092 229.596 113.559 234.07 111.236 238.33C109.031 242.386 105.423 245.085 100.412 246.427ZM190.413 131.363C184.271 133.008 178.354 133.554 172.662 133.001C167.132 132.404 162.032 130.825 157.361 128.265C152.853 125.662 148.979 122.196 145.74 117.867C142.501 113.538 140.102 108.464 138.543 102.645L136.074 93.432C134.515 87.6133 134.056 82.0196 134.696 76.6509C135.337 71.2823 136.958 66.3436 139.561 61.8349C142.326 57.2829 145.954 53.3658 150.445 50.0836C155.097 46.7582 160.495 44.2726 166.637 42.6268C172.779 40.9811 178.615 40.4567 184.145 41.0537C189.675 41.6507 194.695 43.2508 199.203 45.8538C203.874 48.4136 207.828 51.8582 211.067 56.1874C214.468 60.4733 216.947 65.5257 218.507 71.3444L220.975 80.5574C222.534 86.3761 222.913 91.9915 222.111 97.4034C221.471 102.772 219.768 107.732 217.003 112.284C214.4 116.793 210.853 120.689 206.363 123.971C201.872 127.253 196.555 129.717 190.413 131.363ZM185.346 112.452C191.65 110.763 196.103 107.664 198.706 103.155C201.471 98.6031 201.944 92.9328 200.125 86.1443L197.656 76.9313C195.837 70.1427 192.593 65.4686 187.922 62.9088C183.413 60.3057 178.007 59.8487 171.704 61.5377C165.4 63.2268 160.866 66.3473 158.101 70.8993C155.498 75.408 155.106 81.0566 156.925 87.8451L159.394 97.0581C161.213 103.847 164.376 108.542 168.885 111.146C173.555 113.705 179.042 114.141 185.346 112.452ZM329.525 185.037C323.383 186.682 317.466 187.228 311.774 186.675C306.244 186.078 301.144 184.499 296.473 181.94C291.965 179.336 288.091 175.87 284.852 171.541C281.613 167.212 279.214 162.138 277.655 156.319L275.187 147.106C273.627 141.287 273.168 135.694 273.808 130.325C274.449 124.956 276.07 120.018 278.673 115.509C281.438 110.957 285.066 107.04 289.557 103.758C294.209 100.432 299.607 97.9466 305.749 96.3009C311.891 94.6552 317.727 94.1308 323.257 94.7278C328.787 95.3248 333.807 96.9248 338.315 99.5279C342.986 102.088 346.94 105.532 350.179 109.861C353.58 114.147 356.059 119.2 357.619 125.018L360.087 134.231C361.646 140.05 362.025 145.666 361.223 151.078C360.583 156.446 358.88 161.407 356.115 165.959C353.512 170.467 349.965 174.363 345.475 177.645C340.984 180.927 335.667 183.391 329.525 185.037ZM324.458 166.126C330.762 164.437 335.215 161.338 337.818 156.829C340.583 152.277 341.056 146.607 339.237 139.818L336.768 130.605C334.949 123.817 331.705 119.143 327.034 116.583C322.525 113.98 317.119 113.523 310.816 115.212C304.512 116.901 299.978 120.021 297.213 124.573C294.61 129.082 294.218 134.731 296.037 141.519L298.506 150.732C300.325 157.521 303.488 162.217 307.997 164.82C312.667 167.379 318.154 167.815 324.458 166.126ZM262.681 18.9708L285.955 12.7342L233.481 208.693L210.206 214.929L262.681 18.9708Z" fill="#FF0024" fill-opacity="0.1"/>
</svg>
