<svg width="549" height="329" viewBox="0 0 549 329" fill="none" xmlns="http://www.w3.org/2000/svg">
<circle cx="239" cy="9" r="9" fill="#FF4B53"/>
<path d="M202.461 27.2H214.941V44H213.261V28.736H204.141V44H202.461V27.2ZM223.705 44.168C222.089 44.168 220.801 43.672 219.841 42.68C218.897 41.688 218.425 40.264 218.425 38.408V37.592C218.425 36.68 218.545 35.864 218.785 35.144C219.041 34.424 219.401 33.824 219.865 33.344C220.329 32.848 220.881 32.472 221.521 32.216C222.177 31.96 222.905 31.832 223.705 31.832C225.321 31.832 226.601 32.328 227.545 33.32C228.505 34.312 228.985 35.736 228.985 37.592V38.408C228.985 39.32 228.857 40.136 228.601 40.856C228.361 41.576 228.009 42.184 227.545 42.68C227.081 43.16 226.521 43.528 225.865 43.784C225.225 44.04 224.505 44.168 223.705 44.168ZM223.705 42.728C224.809 42.728 225.689 42.368 226.345 41.648C227.017 40.928 227.353 39.848 227.353 38.408V37.592C227.353 36.168 227.017 35.096 226.345 34.376C225.673 33.64 224.793 33.272 223.705 33.272C222.601 33.272 221.713 33.632 221.041 34.352C220.385 35.072 220.057 36.152 220.057 37.592V38.408C220.057 39.832 220.393 40.912 221.065 41.648C221.737 42.368 222.617 42.728 223.705 42.728ZM234.32 33.44H230.312V32H239.912V33.44H235.904V44H234.32V33.44ZM246.414 44.168C245.646 44.168 244.942 44.04 244.302 43.784C243.662 43.528 243.118 43.16 242.67 42.68C242.222 42.184 241.87 41.584 241.614 40.88C241.374 40.16 241.254 39.336 241.254 38.408V37.592C241.254 36.68 241.374 35.864 241.614 35.144C241.87 34.424 242.222 33.824 242.67 33.344C243.134 32.848 243.678 32.472 244.302 32.216C244.942 31.96 245.646 31.832 246.414 31.832C247.182 31.832 247.886 31.96 248.526 32.216C249.166 32.472 249.71 32.848 250.158 33.344C250.606 33.84 250.95 34.456 251.19 35.192C251.446 35.912 251.574 36.752 251.574 37.712V38.432H242.886C242.886 39.824 243.19 40.888 243.798 41.624C244.406 42.36 245.278 42.728 246.414 42.728C248.126 42.728 249.262 42.032 249.822 40.64H251.454C251.166 41.792 250.59 42.672 249.726 43.28C248.878 43.872 247.774 44.168 246.414 44.168ZM246.414 33.272C245.39 33.272 244.566 33.6 243.942 34.256C243.318 34.896 242.966 35.84 242.886 37.088H249.942C249.862 35.792 249.502 34.832 248.862 34.208C248.238 33.584 247.422 33.272 246.414 33.272ZM254.935 32H256.183L256.375 33.8H256.423C256.951 33.112 257.535 32.616 258.175 32.312C258.815 31.992 259.567 31.832 260.431 31.832C261.135 31.832 261.783 31.96 262.375 32.216C262.967 32.456 263.471 32.824 263.887 33.32C264.319 33.8 264.655 34.4 264.895 35.12C265.135 35.84 265.255 36.664 265.255 37.592V38.408C265.255 39.336 265.135 40.16 264.895 40.88C264.655 41.584 264.319 42.184 263.887 42.68C263.455 43.16 262.943 43.528 262.351 43.784C261.759 44.04 261.119 44.168 260.431 44.168C258.703 44.168 257.415 43.552 256.567 42.32H256.519V48.8H254.935V32ZM260.071 42.728C261.127 42.728 261.983 42.376 262.639 41.672C263.295 40.952 263.623 39.864 263.623 38.408V37.592C263.623 36.168 263.287 35.096 262.615 34.376C261.959 33.64 261.111 33.272 260.071 33.272C259.015 33.272 258.159 33.632 257.503 34.352C256.847 35.056 256.519 36.136 256.519 37.592V38.408C256.519 39.832 256.847 40.912 257.503 41.648C258.175 42.368 259.031 42.728 260.071 42.728ZM270.35 39.2C269.534 38.928 268.942 38.504 268.574 37.928C268.206 37.352 268.022 36.632 268.022 35.768C268.022 34.568 268.39 33.64 269.126 32.984C269.878 32.328 271.11 32 272.822 32H276.662V44H275.078V39.536H272.822C272.662 39.536 272.502 39.536 272.342 39.536C272.198 39.536 272.054 39.528 271.91 39.512L269.366 44H267.542L270.35 39.2ZM269.654 35.768C269.654 36.52 269.894 37.096 270.374 37.496C270.854 37.896 271.71 38.096 272.942 38.096H275.078V33.44H272.942C271.71 33.44 270.854 33.64 270.374 34.04C269.894 34.44 269.654 35.016 269.654 35.768ZM197.869 75.168C196.237 75.168 194.941 74.648 193.981 73.608C193.037 72.552 192.565 70.912 192.565 68.688V67.392C192.565 66.48 192.605 65.616 192.685 64.8C192.765 63.984 192.901 63.24 193.093 62.568C193.301 61.896 193.581 61.304 193.933 60.792C194.285 60.264 194.741 59.832 195.301 59.496C195.797 59.208 196.285 59.016 196.765 58.92C197.261 58.808 197.781 58.728 198.325 58.68C198.869 58.632 199.453 58.576 200.077 58.512C200.701 58.432 201.397 58.272 202.165 58.032V59.496C201.557 59.72 200.965 59.864 200.389 59.928C199.829 59.992 199.285 60.048 198.757 60.096C198.245 60.144 197.757 60.208 197.293 60.288C196.829 60.368 196.405 60.528 196.021 60.768C195.429 61.152 194.981 61.696 194.677 62.4C194.389 63.104 194.197 64.024 194.101 65.16H194.149C194.565 64.488 195.109 63.976 195.781 63.624C196.469 63.256 197.261 63.072 198.157 63.072C198.877 63.072 199.541 63.2 200.149 63.456C200.757 63.712 201.277 64.08 201.709 64.56C202.157 65.04 202.501 65.632 202.741 66.336C202.997 67.04 203.125 67.832 203.125 68.712V69.528C203.125 70.408 202.997 71.2 202.741 71.904C202.485 72.592 202.125 73.184 201.661 73.68C201.213 74.16 200.661 74.528 200.005 74.784C199.365 75.04 198.653 75.168 197.869 75.168ZM197.869 73.728C198.957 73.728 199.829 73.376 200.485 72.672C201.157 71.952 201.493 70.904 201.493 69.528V68.712C201.493 67.336 201.157 66.296 200.485 65.592C199.829 64.872 198.957 64.512 197.869 64.512C196.749 64.512 195.853 64.864 195.181 65.568C194.525 66.272 194.197 67.32 194.197 68.712V69.528C194.197 70.888 194.533 71.928 195.205 72.648C195.877 73.368 196.765 73.728 197.869 73.728ZM206.478 63H208.062V68.16H210.75C210.782 67.328 210.926 66.584 211.182 65.928C211.438 65.256 211.79 64.696 212.238 64.248C212.686 63.784 213.214 63.432 213.822 63.192C214.43 62.952 215.094 62.832 215.814 62.832C216.566 62.832 217.254 62.96 217.878 63.216C218.502 63.472 219.03 63.848 219.462 64.344C219.91 64.824 220.254 65.424 220.494 66.144C220.75 66.848 220.878 67.664 220.878 68.592V69.408C220.878 70.32 220.75 71.136 220.494 71.856C220.254 72.576 219.91 73.184 219.462 73.68C219.014 74.16 218.478 74.528 217.854 74.784C217.23 75.04 216.55 75.168 215.814 75.168C215.062 75.168 214.374 75.048 213.75 74.808C213.142 74.552 212.614 74.192 212.166 73.728C211.734 73.248 211.39 72.664 211.134 71.976C210.878 71.288 210.75 70.496 210.75 69.6H208.062V75H206.478V63ZM215.814 73.728C216.806 73.728 217.622 73.368 218.262 72.648C218.918 71.928 219.246 70.848 219.246 69.408V68.592C219.246 67.872 219.158 67.248 218.982 66.72C218.806 66.176 218.566 65.728 218.262 65.376C217.958 65.008 217.598 64.736 217.182 64.56C216.766 64.368 216.31 64.272 215.814 64.272C214.806 64.272 213.982 64.624 213.342 65.328C212.702 66.032 212.382 67.08 212.382 68.472V69.288C212.382 70.776 212.702 71.888 213.342 72.624C213.998 73.36 214.822 73.728 215.814 73.728ZM222.449 73.56H223.769C224.025 73.16 224.233 72.752 224.393 72.336C224.569 71.92 224.705 71.448 224.801 70.92C224.913 70.392 224.985 69.784 225.017 69.096C225.065 68.392 225.089 67.56 225.089 66.6V63H233.249V73.56H234.809V78.12H233.273V75H223.985V78.12H222.449V73.56ZM231.665 73.56V64.44H226.625V66.6C226.625 67.464 226.609 68.224 226.577 68.88C226.545 69.536 226.489 70.136 226.409 70.68C226.329 71.208 226.217 71.704 226.073 72.168C225.929 72.616 225.753 73.064 225.545 73.512V73.56H231.665ZM239.929 68.688L236.473 63H238.249L241.201 68.04H243.361V63H244.945V68.04H247.105L250.057 63H251.833L248.377 68.688L252.073 75H250.249L247.105 69.48H244.945V75H243.361V69.48H241.201L238.057 75H236.233L239.929 68.688ZM258.8 75.168C258.032 75.168 257.328 75.04 256.688 74.784C256.048 74.528 255.504 74.16 255.056 73.68C254.608 73.184 254.256 72.584 254 71.88C253.76 71.16 253.64 70.336 253.64 69.408V68.592C253.64 67.68 253.76 66.864 254 66.144C254.256 65.424 254.608 64.824 255.056 64.344C255.52 63.848 256.064 63.472 256.688 63.216C257.328 62.96 258.032 62.832 258.8 62.832C259.568 62.832 260.272 62.96 260.912 63.216C261.552 63.472 262.096 63.848 262.544 64.344C262.992 64.84 263.336 65.456 263.576 66.192C263.832 66.912 263.96 67.752 263.96 68.712V69.432H255.272C255.272 70.824 255.576 71.888 256.184 72.624C256.792 73.36 257.664 73.728 258.8 73.728C260.512 73.728 261.648 73.032 262.208 71.64H263.84C263.552 72.792 262.976 73.672 262.112 74.28C261.264 74.872 260.16 75.168 258.8 75.168ZM258.8 64.272C257.776 64.272 256.952 64.6 256.328 65.256C255.704 65.896 255.352 66.84 255.272 68.088H262.328C262.248 66.792 261.888 65.832 261.248 65.208C260.624 64.584 259.808 64.272 258.8 64.272ZM269.301 64.44H265.293V63H274.893V64.44H270.885V75H269.301V64.44ZM280.308 75.168C278.98 75.168 277.988 74.864 277.332 74.256C276.676 73.632 276.348 72.776 276.348 71.688C276.348 70.552 276.74 69.648 277.524 68.976C278.308 68.304 279.556 67.968 281.268 67.968H284.364V67.08C284.364 66.12 284.132 65.424 283.668 64.992C283.204 64.544 282.444 64.32 281.388 64.32C280.412 64.32 279.692 64.488 279.228 64.824C278.78 65.16 278.524 65.592 278.46 66.12H276.828C276.86 65.688 276.98 65.272 277.188 64.872C277.396 64.472 277.684 64.12 278.052 63.816C278.436 63.512 278.908 63.272 279.468 63.096C280.028 62.92 280.668 62.832 281.388 62.832C282.94 62.832 284.084 63.192 284.82 63.912C285.572 64.616 285.948 65.672 285.948 67.08V75H284.7L284.508 72.96H284.46C283.98 73.68 283.38 74.232 282.66 74.616C281.956 74.984 281.172 75.168 280.308 75.168ZM280.428 73.68C281.004 73.68 281.532 73.592 282.012 73.416C282.492 73.224 282.908 72.968 283.26 72.648C283.612 72.312 283.884 71.92 284.076 71.472C284.268 71.008 284.364 70.504 284.364 69.96V69.312H281.388C280.156 69.312 279.276 69.528 278.748 69.96C278.236 70.392 277.98 70.968 277.98 71.688C277.98 72.296 278.172 72.784 278.556 73.152C278.956 73.504 279.58 73.68 280.428 73.68Z" fill="black"/>
<circle cx="45" cy="103" r="9" fill="#C0C0C0"/>
<path d="M13.4647 121.2H18.7447C20.6647 121.2 22.0647 121.6 22.9447 122.4C23.8247 123.184 24.2647 124.272 24.2647 125.664C24.2647 126.496 24.0647 127.216 23.6647 127.824C23.2807 128.432 22.7207 128.904 21.9847 129.24V129.288C22.8967 129.608 23.5847 130.112 24.0487 130.8C24.5127 131.472 24.7447 132.304 24.7447 133.296C24.7447 134.816 24.3047 135.984 23.4247 136.8C22.5447 137.6 21.1447 138 19.2247 138H13.4647V121.2ZM15.1447 122.736V128.592H18.6247C20.0327 128.592 21.0327 128.336 21.6247 127.824C22.2327 127.296 22.5367 126.576 22.5367 125.664C22.5367 124.752 22.2327 124.04 21.6247 123.528C21.0327 123 20.0327 122.736 18.6247 122.736H15.1447ZM15.1447 130.128V136.464H19.1047C20.5127 136.464 21.5127 136.2 22.1047 135.672C22.7127 135.128 23.0167 134.336 23.0167 133.296C23.0167 132.256 22.7127 131.472 22.1047 130.944C21.5127 130.4 20.5127 130.128 19.1047 130.128H15.1447ZM28.2275 126H29.8115V136.2H29.8595L35.8595 126H38.0675V138H36.4835V127.8H36.4355L30.4355 138H28.2275V126ZM40.5894 136.56H41.9094C42.1654 136.16 42.3734 135.752 42.5334 135.336C42.7094 134.92 42.8454 134.448 42.9414 133.92C43.0534 133.392 43.1254 132.784 43.1574 132.096C43.2054 131.392 43.2294 130.56 43.2294 129.6V126H51.3894V136.56H52.9494V141.12H51.4134V138H42.1254V141.12H40.5894V136.56ZM49.8054 136.56V127.44H44.7654V129.6C44.7654 130.464 44.7494 131.224 44.7174 131.88C44.6854 132.536 44.6294 133.136 44.5494 133.68C44.4694 134.208 44.3574 134.704 44.2134 135.168C44.0694 135.616 43.8934 136.064 43.6854 136.512V136.56H49.8054ZM60.0191 138.168C59.2511 138.168 58.5471 138.04 57.9071 137.784C57.2671 137.528 56.7231 137.16 56.2751 136.68C55.8271 136.184 55.4751 135.584 55.2191 134.88C54.9791 134.16 54.8591 133.336 54.8591 132.408V131.592C54.8591 130.68 54.9791 129.864 55.2191 129.144C55.4751 128.424 55.8271 127.824 56.2751 127.344C56.7391 126.848 57.2831 126.472 57.9071 126.216C58.5471 125.96 59.2511 125.832 60.0191 125.832C60.7871 125.832 61.4911 125.96 62.1311 126.216C62.7711 126.472 63.3151 126.848 63.7631 127.344C64.2111 127.84 64.5551 128.456 64.7951 129.192C65.0511 129.912 65.1791 130.752 65.1791 131.712V132.432H56.4911C56.4911 133.824 56.7951 134.888 57.4031 135.624C58.0111 136.36 58.8831 136.728 60.0191 136.728C61.7311 136.728 62.8671 136.032 63.4271 134.64H65.0591C64.7711 135.792 64.1951 136.672 63.3311 137.28C62.4831 137.872 61.3791 138.168 60.0191 138.168ZM60.0191 127.272C58.9951 127.272 58.1711 127.6 57.5471 128.256C56.9231 128.896 56.5711 129.84 56.4911 131.088H63.5471C63.4671 129.792 63.1071 128.832 62.4671 128.208C61.8431 127.584 61.0271 127.272 60.0191 127.272ZM73.1 138.168C71.484 138.168 70.196 137.672 69.236 136.68C68.292 135.688 67.82 134.264 67.82 132.408V131.592C67.82 130.68 67.94 129.864 68.18 129.144C68.436 128.424 68.796 127.824 69.26 127.344C69.724 126.848 70.276 126.472 70.916 126.216C71.572 125.96 72.3 125.832 73.1 125.832C74.716 125.832 75.996 126.328 76.94 127.32C77.9 128.312 78.38 129.736 78.38 131.592V132.408C78.38 133.32 78.252 134.136 77.996 134.856C77.756 135.576 77.404 136.184 76.94 136.68C76.476 137.16 75.916 137.528 75.26 137.784C74.62 138.04 73.9 138.168 73.1 138.168ZM73.1 136.728C74.204 136.728 75.084 136.368 75.74 135.648C76.412 134.928 76.748 133.848 76.748 132.408V131.592C76.748 130.168 76.412 129.096 75.74 128.376C75.068 127.64 74.188 127.272 73.1 127.272C71.996 127.272 71.108 127.632 70.436 128.352C69.78 129.072 69.452 130.152 69.452 131.592V132.408C69.452 133.832 69.788 134.912 70.46 135.648C71.132 136.368 72.012 136.728 73.1 136.728Z" fill="black"/>
<path d="M46 103H245.5C254.337 103 261.5 110.163 261.5 119V192.5" stroke="#C0C0C0" stroke-width="2" stroke-dasharray="8 8"/>
<circle cx="45" cy="193" r="9" fill="#C0C0C0"/>
<path d="M15.818 228.168C14.81 228.168 13.89 227.992 13.058 227.64C12.226 227.288 11.506 226.776 10.898 226.104C10.29 225.416 9.81797 224.576 9.48197 223.584C9.14597 222.576 8.97797 221.424 8.97797 220.128V218.832C8.97797 217.6 9.14597 216.504 9.48197 215.544C9.81797 214.568 10.29 213.752 10.898 213.096C11.506 212.424 12.226 211.912 13.058 211.56C13.906 211.208 14.826 211.032 15.818 211.032C16.73 211.032 17.546 211.168 18.266 211.44C19.002 211.696 19.642 212.048 20.186 212.496C20.73 212.944 21.162 213.472 21.482 214.08C21.818 214.672 22.05 215.312 22.178 216H20.402C20.274 215.52 20.082 215.072 19.826 214.656C19.586 214.24 19.274 213.88 18.89 213.576C18.506 213.256 18.058 213.008 17.546 212.832C17.034 212.656 16.458 212.568 15.818 212.568C15.082 212.568 14.402 212.704 13.778 212.976C13.154 213.248 12.61 213.648 12.146 214.176C11.698 214.704 11.346 215.36 11.09 216.144C10.834 216.912 10.706 217.808 10.706 218.832V220.128C10.706 221.2 10.834 222.144 11.09 222.96C11.362 223.776 11.722 224.456 12.17 225C12.634 225.544 13.178 225.952 13.802 226.224C14.426 226.496 15.098 226.632 15.818 226.632C17.114 226.632 18.138 226.288 18.89 225.6C19.658 224.912 20.162 224.032 20.402 222.96H22.178C22.05 223.712 21.818 224.408 21.482 225.048C21.162 225.672 20.73 226.216 20.186 226.68C19.642 227.144 19.002 227.512 18.266 227.784C17.546 228.04 16.73 228.168 15.818 228.168ZM28.2185 217.44H24.2105V216H33.8105V217.44H29.8025V228H28.2185V217.44ZM39.2264 228.168C37.8984 228.168 36.9064 227.864 36.2504 227.256C35.5944 226.632 35.2664 225.776 35.2664 224.688C35.2664 223.552 35.6584 222.648 36.4424 221.976C37.2264 221.304 38.4744 220.968 40.1864 220.968H43.2824V220.08C43.2824 219.12 43.0504 218.424 42.5864 217.992C42.1224 217.544 41.3624 217.32 40.3064 217.32C39.3304 217.32 38.6104 217.488 38.1464 217.824C37.6984 218.16 37.4424 218.592 37.3784 219.12H35.7464C35.7784 218.688 35.8984 218.272 36.1064 217.872C36.3144 217.472 36.6024 217.12 36.9704 216.816C37.3544 216.512 37.8264 216.272 38.3864 216.096C38.9464 215.92 39.5864 215.832 40.3064 215.832C41.8584 215.832 43.0024 216.192 43.7384 216.912C44.4904 217.616 44.8664 218.672 44.8664 220.08V228H43.6184L43.4264 225.96H43.3784C42.8984 226.68 42.2984 227.232 41.5784 227.616C40.8744 227.984 40.0904 228.168 39.2264 228.168ZM39.3464 226.68C39.9224 226.68 40.4504 226.592 40.9304 226.416C41.4104 226.224 41.8264 225.968 42.1784 225.648C42.5304 225.312 42.8024 224.92 42.9944 224.472C43.1864 224.008 43.2824 223.504 43.2824 222.96V222.312H40.3064C39.0744 222.312 38.1944 222.528 37.6664 222.96C37.1544 223.392 36.8984 223.968 36.8984 224.688C36.8984 225.296 37.0904 225.784 37.4744 226.152C37.8744 226.504 38.4984 226.68 39.3464 226.68ZM50.8122 217.44H46.8042V216H56.4042V217.44H52.3962V228H50.8122V217.44ZM58.9345 216H60.5185V220.32H63.2545C64.8065 220.32 65.9505 220.664 66.6865 221.352C67.4385 222.04 67.8145 222.976 67.8145 224.16C67.8145 225.328 67.4385 226.264 66.6865 226.968C65.9345 227.656 64.7905 228 63.2545 228H58.9345V216ZM60.5185 221.76V226.56H63.1345C64.2385 226.56 65.0225 226.352 65.4865 225.936C65.9505 225.52 66.1825 224.928 66.1825 224.16C66.1825 223.392 65.9425 222.8 65.4625 222.384C64.9985 221.968 64.2225 221.76 63.1345 221.76H60.5185ZM70.7002 216H72.2842V226.2H72.3322L78.3322 216H80.5402V228H78.9562V217.8H78.9082L72.9082 228H70.7002V216Z" fill="black"/>
<path d="M47.5 192.5H263.5" stroke="#C0C0C0" stroke-width="2" stroke-dasharray="8 8"/>
<path d="M266 194H269.958V192H266V194ZM277.875 194H285.792V192H277.875V194ZM293.708 194H301.625V192H293.708V194ZM309.542 194H317.458V192H309.542V194ZM325.375 194H333.292V192H325.375V194ZM341.208 194H349.125V192H341.208V194ZM357.042 194H361V192H357.042V194Z" fill="#C0C0C0"/>
<circle cx="414" cy="87" r="9" fill="#FF4B53"/>
<path d="M347.262 105.2H348.942V112.592H358.302V105.2H359.982V122H358.302V114.128H348.942V122H347.262V105.2ZM368.621 122.168C367.853 122.168 367.149 122.04 366.509 121.784C365.869 121.528 365.325 121.16 364.877 120.68C364.429 120.184 364.077 119.584 363.821 118.88C363.581 118.16 363.461 117.336 363.461 116.408V115.592C363.461 114.68 363.581 113.864 363.821 113.144C364.077 112.424 364.429 111.824 364.877 111.344C365.341 110.848 365.885 110.472 366.509 110.216C367.149 109.96 367.853 109.832 368.621 109.832C369.389 109.832 370.093 109.96 370.733 110.216C371.373 110.472 371.917 110.848 372.365 111.344C372.813 111.84 373.157 112.456 373.397 113.192C373.653 113.912 373.781 114.752 373.781 115.712V116.432H365.093C365.093 117.824 365.397 118.888 366.005 119.624C366.613 120.36 367.485 120.728 368.621 120.728C370.333 120.728 371.469 120.032 372.029 118.64H373.661C373.373 119.792 372.797 120.672 371.933 121.28C371.085 121.872 369.981 122.168 368.621 122.168ZM368.621 111.272C367.597 111.272 366.773 111.6 366.149 112.256C365.525 112.896 365.173 113.84 365.093 115.088H372.149C372.069 113.792 371.709 112.832 371.069 112.208C370.445 111.584 369.629 111.272 368.621 111.272ZM387.702 122.168C386.086 122.168 384.798 121.672 383.838 120.68C382.894 119.688 382.422 118.264 382.422 116.408V115.592C382.422 114.68 382.542 113.864 382.782 113.144C383.038 112.424 383.398 111.824 383.862 111.344C384.326 110.848 384.878 110.472 385.518 110.216C386.174 109.96 386.902 109.832 387.702 109.832C389.318 109.832 390.598 110.328 391.542 111.32C392.502 112.312 392.982 113.736 392.982 115.592V116.408C392.982 117.32 392.854 118.136 392.598 118.856C392.358 119.576 392.006 120.184 391.542 120.68C391.078 121.16 390.518 121.528 389.862 121.784C389.222 122.04 388.502 122.168 387.702 122.168ZM387.702 120.728C388.806 120.728 389.686 120.368 390.342 119.648C391.014 118.928 391.35 117.848 391.35 116.408V115.592C391.35 114.168 391.014 113.096 390.342 112.376C389.67 111.64 388.79 111.272 387.702 111.272C386.598 111.272 385.71 111.632 385.038 112.352C384.382 113.072 384.054 114.152 384.054 115.592V116.408C384.054 117.832 384.39 118.912 385.062 119.648C385.734 120.368 386.614 120.728 387.702 120.728ZM396.337 110H397.921V115.04H400.081L403.585 110H405.457L401.353 115.712L405.937 122H404.017L400.081 116.48H397.921V122H396.337V110ZM412.382 122L407.366 110H409.094L413.198 120.032H413.246L417.014 110H418.646L412.166 126.8H410.534L412.382 122ZM421.274 110H430.634V122H429.05V111.44H422.858V122H421.274V110ZM434.704 110H436.288V120.2H436.336L442.336 110H444.544V122H442.96V111.8H442.912L436.912 122H434.704V110ZM447.066 120.728H447.426C447.922 120.728 448.306 120.56 448.578 120.224C448.85 119.888 449.05 119.4 449.178 118.76C449.322 118.12 449.402 117.344 449.418 116.432C449.45 115.52 449.466 114.496 449.466 113.36V110H457.626V122H456.042V111.44H451.05V113.36C451.05 114.656 451.026 115.84 450.978 116.912C450.946 117.984 450.81 118.912 450.57 119.696C450.346 120.48 449.986 121.088 449.49 121.52C449.01 121.952 448.322 122.168 447.426 122.168H447.066V120.728ZM466.024 122.168C465.272 122.168 464.584 122.048 463.96 121.808C463.336 121.552 462.8 121.176 462.352 120.68C461.92 120.184 461.584 119.568 461.344 118.832C461.104 118.096 460.984 117.248 460.984 116.288V115.472C460.984 114.576 461.104 113.784 461.344 113.096C461.6 112.392 461.944 111.8 462.376 111.32C462.824 110.84 463.352 110.472 463.96 110.216C464.584 109.96 465.272 109.832 466.024 109.832C466.728 109.832 467.36 109.928 467.92 110.12C468.48 110.296 468.96 110.552 469.36 110.888C469.76 111.208 470.08 111.584 470.32 112.016C470.56 112.432 470.728 112.88 470.824 113.36H469.192C469.016 112.768 468.688 112.272 468.208 111.872C467.728 111.472 467.04 111.272 466.144 111.272C465.12 111.272 464.272 111.632 463.6 112.352C462.944 113.072 462.616 114.112 462.616 115.472V116.288C462.616 117.76 462.952 118.872 463.624 119.624C464.296 120.36 465.136 120.728 466.144 120.728C467.04 120.728 467.728 120.52 468.208 120.104C468.688 119.688 469.016 119.12 469.192 118.4H470.824C470.728 118.944 470.56 119.448 470.32 119.912C470.08 120.36 469.76 120.752 469.36 121.088C468.96 121.424 468.48 121.688 467.92 121.88C467.36 122.072 466.728 122.168 466.024 122.168ZM475.549 117.2C474.733 116.928 474.141 116.504 473.773 115.928C473.405 115.352 473.221 114.632 473.221 113.768C473.221 112.568 473.589 111.64 474.325 110.984C475.077 110.328 476.309 110 478.021 110H481.861V122H480.277V117.536H478.021C477.861 117.536 477.701 117.536 477.541 117.536C477.397 117.536 477.253 117.528 477.109 117.512L474.565 122H472.741L475.549 117.2ZM474.853 113.768C474.853 114.52 475.093 115.096 475.573 115.496C476.053 115.896 476.909 116.096 478.141 116.096H480.277V111.44H478.141C476.909 111.44 476.053 111.64 475.573 112.04C475.093 112.44 474.853 113.016 474.853 113.768Z" fill="black"/>
<path d="M239 8.0002L238.98 8.99999L239 8.0002ZM61.0503 77.8133C61.2232 78.3378 61.7886 78.6228 62.3131 78.4499L70.8606 75.6321C71.3851 75.4591 71.6701 74.8938 71.4972 74.3692C71.3243 73.8447 70.7589 73.5597 70.2344 73.7326L62.6366 76.2374L60.1319 68.6396C59.9589 68.1151 59.3936 67.8301 58.869 68.003C58.3445 68.1759 58.0595 68.7413 58.2324 69.2658L61.0503 77.8133ZM62.8929 77.9504C63.4334 76.8782 64.0917 75.7083 64.8733 74.4545L63.1761 73.3965C62.3662 74.6957 61.6776 75.9182 61.1071 77.05L62.8929 77.9504ZM69.6083 67.8341C71.1801 65.8732 72.9792 63.8093 75.0164 61.675L73.5696 60.2941C71.494 62.4686 69.6569 64.5758 68.0477 66.5832L69.6083 67.8341ZM80.8898 55.9581C82.8165 54.21 84.8948 52.4363 87.1297 50.6527L85.8822 49.0895C83.6145 50.8992 81.504 52.7003 79.5459 54.477L80.8898 55.9581ZM93.6907 45.7237C95.8535 44.1931 98.1345 42.6657 100.537 41.1513L99.4704 39.4594C97.0379 40.9927 94.7272 42.5399 92.5353 44.0912L93.6907 45.7237ZM107.579 36.9557C109.902 35.6482 112.322 34.358 114.84 33.0918L113.942 31.3049C111.395 32.5851 108.948 33.89 106.598 35.2129L107.579 36.9557ZM122.285 29.5557C124.721 28.4635 127.239 27.3958 129.84 26.3575L129.099 24.5C126.472 25.5485 123.928 26.6271 121.466 27.7307L122.285 29.5557ZM137.535 23.4638C140.066 22.5683 142.668 21.7014 145.344 20.8669L144.748 18.9576C142.049 19.7996 139.422 20.6744 136.867 21.5783L137.535 23.4638ZM153.247 18.5574C155.843 17.8483 158.503 17.1698 161.227 16.525L160.766 14.5788C158.02 15.2289 155.339 15.9129 152.72 16.628L153.247 18.5574ZM169.269 14.7588C171.911 14.2229 174.609 13.7184 177.363 13.2476L177.026 11.2762C174.252 11.7504 171.534 12.2587 168.872 12.7987L169.269 14.7588ZM185.499 11.9804C188.173 11.6038 190.896 11.2585 193.67 10.9465L193.447 8.95905C190.654 9.27311 187.912 9.62073 185.22 10L185.499 11.9804ZM201.872 10.1355C204.571 9.90474 207.314 9.70496 210.103 9.53779L209.983 7.54137C207.177 7.70955 204.417 7.91056 201.702 8.1428L201.872 10.1355ZM218.36 9.14435C221.061 9.0483 223.803 8.98233 226.586 8.94776L226.561 6.94792C223.763 6.98267 221.006 7.04901 218.289 7.14561L218.36 9.14435ZM234.81 8.93708C236.19 8.95041 237.58 8.97133 238.98 8.99999L239.02 7.00041C237.614 6.9716 236.217 6.95057 234.829 6.93717L234.81 8.93708ZM238.98 8.99999C240.388 9.02882 241.786 9.06497 243.174 9.10828L243.237 7.10926C241.841 7.06572 240.436 7.02939 239.02 7.00041L238.98 8.99999ZM251.447 9.45616C254.244 9.60456 256.998 9.78248 259.711 9.98863L259.863 7.99438C257.134 7.78707 254.365 7.60817 251.553 7.45897L251.447 9.45616ZM268.001 10.7177C270.799 10.9978 273.55 11.3084 276.256 11.6479L276.505 9.66341C273.783 9.32185 271.015 9.0094 268.2 8.72762L268.001 10.7177ZM284.476 12.7875C287.254 13.2101 289.98 13.6634 292.657 14.1457L293.011 12.1774C290.317 11.6919 287.572 11.2355 284.777 10.8103L284.476 12.7875ZM300.794 15.7318C303.546 16.3096 306.241 16.9183 308.88 17.5556L309.35 15.6115C306.691 14.9694 303.976 14.3563 301.204 13.7745L300.794 15.7318ZM316.907 19.627C319.623 20.3739 322.275 21.1512 324.863 21.956L325.457 20.0461C322.847 19.2348 320.174 18.4513 317.437 17.6986L316.907 19.627ZM332.735 24.5521C335.398 25.4821 337.988 26.4407 340.506 27.4245L341.234 25.5615C338.693 24.5689 336.08 23.6019 333.395 22.664L332.735 24.5521ZM348.156 30.5809C350.741 31.7061 353.243 32.8567 355.663 34.0279L356.534 32.2276C354.09 31.0447 351.564 29.883 348.954 28.7471L348.156 30.5809ZM363.057 37.801C365.556 39.1446 367.957 40.5076 370.261 41.8834L371.287 40.1662C368.957 38.775 366.53 37.3973 364.004 36.0394L363.057 37.801ZM377.248 46.2812C379.63 47.8623 381.892 49.4511 384.036 51.0381L385.226 49.4305C383.054 47.8231 380.764 46.2147 378.353 44.6148L377.248 46.2812ZM390.542 56.1328C392.758 57.9712 394.819 59.7934 396.73 61.5844L398.097 60.1254C396.157 58.3064 394.066 56.4574 391.819 54.5934L390.542 56.1328ZM402.557 67.4291C404.581 69.6085 406.368 71.7089 407.928 73.6987L409.502 72.4647C407.906 70.4294 406.083 68.2867 404.022 66.068L402.557 67.4291ZM412.635 80.4094C413.414 81.6814 414.068 82.8643 414.604 83.9444L416.396 83.0559C415.831 81.9165 415.147 80.6813 414.34 79.3645L412.635 80.4094Z" fill="#FF4B53"/>
<circle cx="45" cy="283" r="9" fill="#C0C0C0"/>
<path d="M4.02188 316.632H4.26188C4.96588 316.632 5.50988 316.416 5.89388 315.984C6.29388 315.552 6.58188 314.96 6.75788 314.208C6.94988 313.44 7.06188 312.544 7.09388 311.52C7.12588 310.48 7.14188 309.36 7.14188 308.16V301.2H17.7019V318H16.0219V302.736H8.82188V308.16C8.82188 309.488 8.78988 310.752 8.72588 311.952C8.67788 313.152 8.50988 314.216 8.22188 315.144C7.93388 316.072 7.47788 316.808 6.85388 317.352C6.24588 317.896 5.38188 318.168 4.26188 318.168H4.02188V316.632ZM26.3316 318.168C25.5636 318.168 24.8596 318.04 24.2196 317.784C23.5796 317.528 23.0356 317.16 22.5876 316.68C22.1396 316.184 21.7876 315.584 21.5316 314.88C21.2916 314.16 21.1716 313.336 21.1716 312.408V311.592C21.1716 310.68 21.2916 309.864 21.5316 309.144C21.7876 308.424 22.1396 307.824 22.5876 307.344C23.0516 306.848 23.5956 306.472 24.2196 306.216C24.8596 305.96 25.5636 305.832 26.3316 305.832C27.0996 305.832 27.8036 305.96 28.4436 306.216C29.0836 306.472 29.6276 306.848 30.0756 307.344C30.5236 307.84 30.8676 308.456 31.1076 309.192C31.3636 309.912 31.4916 310.752 31.4916 311.712V312.432H22.8036C22.8036 313.824 23.1076 314.888 23.7156 315.624C24.3236 316.36 25.1956 316.728 26.3316 316.728C28.0436 316.728 29.1796 316.032 29.7396 314.64H31.3716C31.0836 315.792 30.5076 316.672 29.6436 317.28C28.7956 317.872 27.6916 318.168 26.3316 318.168ZM26.3316 307.272C25.3076 307.272 24.4836 307.6 23.8596 308.256C23.2356 308.896 22.8836 309.84 22.8036 311.088H29.8596C29.7796 309.792 29.4196 308.832 28.7796 308.208C28.1556 307.584 27.3396 307.272 26.3316 307.272ZM34.8525 306H36.4365V311.04H38.5965L42.1005 306H43.9725L39.8685 311.712L44.4525 318H42.5325L38.5965 312.48H36.4365V318H34.8525V306ZM56.5429 318H47.0869V306H48.6709V316.56H54.7429V306H56.3269V316.56H58.1269V321.12H56.5429V318ZM60.7744 306H62.3584V316.2H62.4064L68.4064 306H70.6144V318H69.0304V307.8H68.9824L62.9824 318H60.7744V306ZM74.6963 306H76.2803V316.2H76.3283L82.3283 306H84.5363V318H82.9523V307.8H82.9043L76.9043 318H74.6963V306Z" fill="black"/>
<path d="M45.5 283.5H245.5C254.06 283.5 261 276.56 261 268V268" stroke="#C0C0C0" stroke-width="2" stroke-dasharray="8 8"/>
<circle cx="262" cy="193" r="9" fill="#C0C0C0"/>
<path d="M171.681 228.168C170.673 228.168 169.753 227.992 168.921 227.64C168.089 227.288 167.369 226.776 166.761 226.104C166.153 225.416 165.681 224.576 165.345 223.584C165.009 222.576 164.841 221.424 164.841 220.128V218.832C164.841 217.6 165.009 216.504 165.345 215.544C165.681 214.568 166.153 213.752 166.761 213.096C167.369 212.424 168.089 211.912 168.921 211.56C169.769 211.208 170.689 211.032 171.681 211.032C172.593 211.032 173.409 211.168 174.129 211.44C174.865 211.696 175.505 212.048 176.049 212.496C176.593 212.944 177.025 213.472 177.345 214.08C177.681 214.672 177.913 215.312 178.041 216H176.265C176.137 215.52 175.945 215.072 175.689 214.656C175.449 214.24 175.137 213.88 174.753 213.576C174.369 213.256 173.921 213.008 173.409 212.832C172.897 212.656 172.321 212.568 171.681 212.568C170.945 212.568 170.265 212.704 169.641 212.976C169.017 213.248 168.473 213.648 168.009 214.176C167.561 214.704 167.209 215.36 166.953 216.144C166.697 216.912 166.569 217.808 166.569 218.832V220.128C166.569 221.2 166.697 222.144 166.953 222.96C167.225 223.776 167.585 224.456 168.033 225C168.497 225.544 169.041 225.952 169.665 226.224C170.289 226.496 170.961 226.632 171.681 226.632C172.977 226.632 174.001 226.288 174.753 225.6C175.521 224.912 176.025 224.032 176.265 222.96H178.041C177.913 223.712 177.681 224.408 177.345 225.048C177.025 225.672 176.593 226.216 176.049 226.68C175.505 227.144 174.865 227.512 174.129 227.784C173.409 228.04 172.593 228.168 171.681 228.168ZM184.519 228.168C183.191 228.168 182.199 227.864 181.543 227.256C180.887 226.632 180.559 225.776 180.559 224.688C180.559 223.552 180.951 222.648 181.735 221.976C182.519 221.304 183.767 220.968 185.479 220.968H188.575V220.08C188.575 219.12 188.343 218.424 187.879 217.992C187.415 217.544 186.655 217.32 185.599 217.32C184.623 217.32 183.903 217.488 183.439 217.824C182.991 218.16 182.735 218.592 182.671 219.12H181.039C181.071 218.688 181.191 218.272 181.399 217.872C181.607 217.472 181.895 217.12 182.263 216.816C182.647 216.512 183.119 216.272 183.679 216.096C184.239 215.92 184.879 215.832 185.599 215.832C187.151 215.832 188.295 216.192 189.031 216.912C189.783 217.616 190.159 218.672 190.159 220.08V228H188.911L188.719 225.96H188.671C188.191 226.68 187.591 227.232 186.871 227.616C186.167 227.984 185.383 228.168 184.519 228.168ZM184.639 226.68C185.215 226.68 185.743 226.592 186.223 226.416C186.703 226.224 187.119 225.968 187.471 225.648C187.823 225.312 188.095 224.92 188.287 224.472C188.479 224.008 188.575 223.504 188.575 222.96V222.312H185.599C184.367 222.312 183.487 222.528 182.959 222.96C182.447 223.392 182.191 223.968 182.191 224.688C182.191 225.296 182.383 225.784 182.767 226.152C183.167 226.504 183.791 226.68 184.639 226.68ZM194.126 216H196.43L200.27 223.392H200.318L204.158 216H206.366V228H204.782V218.04H204.734L201.038 225.12H199.454L195.758 218.04H195.71V228H194.126V216ZM214.998 228.168C213.382 228.168 212.094 227.672 211.134 226.68C210.19 225.688 209.718 224.264 209.718 222.408V221.592C209.718 220.68 209.838 219.864 210.078 219.144C210.334 218.424 210.694 217.824 211.158 217.344C211.622 216.848 212.174 216.472 212.814 216.216C213.47 215.96 214.198 215.832 214.998 215.832C216.614 215.832 217.894 216.328 218.838 217.32C219.798 218.312 220.278 219.736 220.278 221.592V222.408C220.278 223.32 220.15 224.136 219.894 224.856C219.654 225.576 219.302 226.184 218.838 226.68C218.374 227.16 217.814 227.528 217.158 227.784C216.518 228.04 215.798 228.168 214.998 228.168ZM214.998 226.728C216.102 226.728 216.982 226.368 217.638 225.648C218.31 224.928 218.646 223.848 218.646 222.408V221.592C218.646 220.168 218.31 219.096 217.638 218.376C216.966 217.64 216.086 217.272 214.998 217.272C213.894 217.272 213.006 217.632 212.334 218.352C211.678 219.072 211.35 220.152 211.35 221.592V222.408C211.35 223.832 211.686 224.912 212.358 225.648C213.03 226.368 213.91 226.728 214.998 226.728ZM227.954 228.168C227.202 228.168 226.514 228.048 225.89 227.808C225.266 227.552 224.73 227.176 224.282 226.68C223.85 226.184 223.514 225.568 223.274 224.832C223.034 224.096 222.914 223.248 222.914 222.288V221.472C222.914 220.576 223.034 219.784 223.274 219.096C223.53 218.392 223.874 217.8 224.306 217.32C224.754 216.84 225.282 216.472 225.89 216.216C226.514 215.96 227.202 215.832 227.954 215.832C228.658 215.832 229.29 215.928 229.85 216.12C230.41 216.296 230.89 216.552 231.29 216.888C231.69 217.208 232.01 217.584 232.25 218.016C232.49 218.432 232.658 218.88 232.754 219.36H231.122C230.946 218.768 230.618 218.272 230.138 217.872C229.658 217.472 228.97 217.272 228.074 217.272C227.05 217.272 226.202 217.632 225.53 218.352C224.874 219.072 224.546 220.112 224.546 221.472V222.288C224.546 223.76 224.882 224.872 225.554 225.624C226.226 226.36 227.066 226.728 228.074 226.728C228.97 226.728 229.658 226.52 230.138 226.104C230.618 225.688 230.946 225.12 231.122 224.4H232.754C232.658 224.944 232.49 225.448 232.25 225.912C232.01 226.36 231.69 226.752 231.29 227.088C230.89 227.424 230.41 227.688 229.85 227.88C229.29 228.072 228.658 228.168 227.954 228.168ZM238.199 217.44H234.191V216H243.791V217.44H239.783V228H238.199V217.44ZM250.413 228.168C248.797 228.168 247.509 227.672 246.549 226.68C245.605 225.688 245.133 224.264 245.133 222.408V221.592C245.133 220.68 245.253 219.864 245.493 219.144C245.749 218.424 246.109 217.824 246.573 217.344C247.037 216.848 247.589 216.472 248.229 216.216C248.885 215.96 249.613 215.832 250.413 215.832C252.029 215.832 253.309 216.328 254.253 217.32C255.213 218.312 255.693 219.736 255.693 221.592V222.408C255.693 223.32 255.565 224.136 255.309 224.856C255.069 225.576 254.717 226.184 254.253 226.68C253.789 227.16 253.229 227.528 252.573 227.784C251.933 228.04 251.213 228.168 250.413 228.168ZM250.413 226.728C251.517 226.728 252.397 226.368 253.053 225.648C253.725 224.928 254.061 223.848 254.061 222.408V221.592C254.061 220.168 253.725 219.096 253.053 218.376C252.381 217.64 251.501 217.272 250.413 217.272C249.309 217.272 248.421 217.632 247.749 218.352C247.093 219.072 246.765 220.152 246.765 221.592V222.408C246.765 223.832 247.101 224.912 247.773 225.648C248.445 226.368 249.325 226.728 250.413 226.728ZM260.776 223.2C259.96 222.928 259.368 222.504 259 221.928C258.632 221.352 258.448 220.632 258.448 219.768C258.448 218.568 258.816 217.64 259.552 216.984C260.304 216.328 261.536 216 263.248 216H267.088V228H265.504V223.536H263.248C263.088 223.536 262.928 223.536 262.768 223.536C262.624 223.536 262.48 223.528 262.336 223.512L259.792 228H257.968L260.776 223.2ZM260.08 219.768C260.08 220.52 260.32 221.096 260.8 221.496C261.28 221.896 262.136 222.096 263.368 222.096H265.504V217.44H263.368C262.136 217.44 261.28 217.64 260.8 218.04C260.32 218.44 260.08 219.016 260.08 219.768ZM273.613 217.44H269.605V216H279.205V217.44H275.197V228H273.613V217.44ZM285.707 228.168C284.939 228.168 284.235 228.04 283.595 227.784C282.955 227.528 282.411 227.16 281.963 226.68C281.515 226.184 281.163 225.584 280.907 224.88C280.667 224.16 280.547 223.336 280.547 222.408V221.592C280.547 220.68 280.667 219.864 280.907 219.144C281.163 218.424 281.515 217.824 281.963 217.344C282.427 216.848 282.971 216.472 283.595 216.216C284.235 215.96 284.939 215.832 285.707 215.832C286.475 215.832 287.179 215.96 287.819 216.216C288.459 216.472 289.003 216.848 289.451 217.344C289.899 217.84 290.243 218.456 290.483 219.192C290.739 219.912 290.867 220.752 290.867 221.712V222.432H282.179C282.179 223.824 282.483 224.888 283.091 225.624C283.699 226.36 284.571 226.728 285.707 226.728C287.419 226.728 288.555 226.032 289.115 224.64H290.747C290.459 225.792 289.883 226.672 289.019 227.28C288.171 227.872 287.067 228.168 285.707 228.168ZM285.707 217.272C284.683 217.272 283.859 217.6 283.235 218.256C282.611 218.896 282.259 219.84 282.179 221.088H289.235C289.155 219.792 288.795 218.832 288.155 218.208C287.531 217.584 286.715 217.272 285.707 217.272ZM292.433 226.728H292.793C293.289 226.728 293.673 226.56 293.945 226.224C294.217 225.888 294.417 225.4 294.545 224.76C294.689 224.12 294.769 223.344 294.785 222.432C294.817 221.52 294.833 220.496 294.833 219.36V216H302.993V228H301.409V217.44H296.417V219.36C296.417 220.656 296.393 221.84 296.345 222.912C296.313 223.984 296.177 224.912 295.937 225.696C295.713 226.48 295.353 227.088 294.857 227.52C294.377 227.952 293.689 228.168 292.793 228.168H292.433V226.728ZM307.071 216H308.655V220.32H311.391C312.943 220.32 314.087 220.664 314.823 221.352C315.575 222.04 315.951 222.976 315.951 224.16C315.951 225.328 315.575 226.264 314.823 226.968C314.071 227.656 312.927 228 311.391 228H307.071V216ZM308.655 221.76V226.56H311.271C312.375 226.56 313.159 226.352 313.623 225.936C314.087 225.52 314.319 224.928 314.319 224.16C314.319 223.392 314.079 222.8 313.599 222.384C313.135 221.968 312.359 221.76 311.271 221.76H308.655ZM318.837 216H320.421V221.16H327.093V216H328.677V228H327.093V222.6H320.421V228H318.837V216ZM344.135 216H345.719V228H344.135V216ZM332.759 216H334.343V220.32H337.079C338.631 220.32 339.775 220.664 340.511 221.352C341.263 222.04 341.639 222.976 341.639 224.16C341.639 225.328 341.263 226.264 340.511 226.968C339.759 227.656 338.615 228 337.079 228H332.759V216ZM334.343 221.76V226.56H336.959C338.063 226.56 338.847 226.352 339.311 225.936C339.775 225.52 340.007 224.928 340.007 224.16C340.007 223.392 339.767 222.8 339.287 222.384C338.823 221.968 338.047 221.76 336.959 221.76H334.343ZM354.238 228.168C353.47 228.168 352.766 228.04 352.126 227.784C351.486 227.528 350.942 227.16 350.494 226.68C350.046 226.184 349.694 225.584 349.438 224.88C349.198 224.16 349.078 223.336 349.078 222.408V221.592C349.078 220.68 349.198 219.864 349.438 219.144C349.694 218.424 350.046 217.824 350.494 217.344C350.958 216.848 351.502 216.472 352.126 216.216C352.766 215.96 353.47 215.832 354.238 215.832C355.006 215.832 355.71 215.96 356.35 216.216C356.99 216.472 357.534 216.848 357.982 217.344C358.43 217.84 358.774 218.456 359.014 219.192C359.27 219.912 359.398 220.752 359.398 221.712V222.432H350.71C350.71 223.824 351.014 224.888 351.622 225.624C352.23 226.36 353.102 226.728 354.238 226.728C355.95 226.728 357.086 226.032 357.646 224.64H359.278C358.99 225.792 358.414 226.672 357.55 227.28C356.702 227.872 355.598 228.168 354.238 228.168ZM354.238 217.272C353.214 217.272 352.39 217.6 351.766 218.256C351.142 218.896 350.79 219.84 350.71 221.088H357.766C357.686 219.792 357.326 218.832 356.686 218.208C356.062 217.584 355.246 217.272 354.238 217.272ZM215.325 247H224.685V259H223.101V248.44H216.909V259H215.325V247ZM228.755 247H230.003L230.195 248.8H230.243C230.771 248.112 231.355 247.616 231.995 247.312C232.635 246.992 233.387 246.832 234.251 246.832C234.955 246.832 235.603 246.96 236.195 247.216C236.787 247.456 237.291 247.824 237.707 248.32C238.139 248.8 238.475 249.4 238.715 250.12C238.955 250.84 239.075 251.664 239.075 252.592V253.408C239.075 254.336 238.955 255.16 238.715 255.88C238.475 256.584 238.139 257.184 237.707 257.68C237.275 258.16 236.763 258.528 236.171 258.784C235.579 259.04 234.939 259.168 234.251 259.168C232.523 259.168 231.235 258.552 230.387 257.32H230.339V263.8H228.755V247ZM233.891 257.728C234.947 257.728 235.803 257.376 236.459 256.672C237.115 255.952 237.443 254.864 237.443 253.408V252.592C237.443 251.168 237.107 250.096 236.435 249.376C235.779 248.64 234.931 248.272 233.891 248.272C232.835 248.272 231.979 248.632 231.323 249.352C230.667 250.056 230.339 251.136 230.339 252.592V253.408C230.339 254.832 230.667 255.912 231.323 256.648C231.995 257.368 232.851 257.728 233.891 257.728ZM247.002 259.168C245.386 259.168 244.098 258.672 243.138 257.68C242.194 256.688 241.722 255.264 241.722 253.408V252.592C241.722 251.68 241.842 250.864 242.082 250.144C242.338 249.424 242.698 248.824 243.162 248.344C243.626 247.848 244.178 247.472 244.818 247.216C245.474 246.96 246.202 246.832 247.002 246.832C248.618 246.832 249.898 247.328 250.842 248.32C251.802 249.312 252.282 250.736 252.282 252.592V253.408C252.282 254.32 252.154 255.136 251.898 255.856C251.658 256.576 251.306 257.184 250.842 257.68C250.378 258.16 249.818 258.528 249.162 258.784C248.522 259.04 247.802 259.168 247.002 259.168ZM247.002 257.728C248.106 257.728 248.986 257.368 249.642 256.648C250.314 255.928 250.65 254.848 250.65 253.408V252.592C250.65 251.168 250.314 250.096 249.642 249.376C248.97 248.64 248.09 248.272 247.002 248.272C245.898 248.272 245.01 248.632 244.338 249.352C243.682 250.072 243.354 251.152 243.354 252.592V253.408C243.354 254.832 243.69 255.912 244.362 256.648C245.034 257.368 245.914 257.728 247.002 257.728ZM253.843 257.56H255.163C255.419 257.16 255.627 256.752 255.787 256.336C255.963 255.92 256.099 255.448 256.195 254.92C256.307 254.392 256.379 253.784 256.411 253.096C256.459 252.392 256.483 251.56 256.483 250.6V247H264.643V257.56H266.203V262.12H264.667V259H255.379V262.12H253.843V257.56ZM263.059 257.56V248.44H258.019V250.6C258.019 251.464 258.003 252.224 257.971 252.88C257.939 253.536 257.883 254.136 257.803 254.68C257.723 255.208 257.611 255.704 257.467 256.168C257.323 256.616 257.147 257.064 256.939 257.512V257.56H263.059ZM272.187 259.168C270.859 259.168 269.867 258.864 269.211 258.256C268.555 257.632 268.227 256.776 268.227 255.688C268.227 254.552 268.619 253.648 269.403 252.976C270.187 252.304 271.435 251.968 273.147 251.968H276.243V251.08C276.243 250.12 276.011 249.424 275.547 248.992C275.083 248.544 274.323 248.32 273.267 248.32C272.291 248.32 271.571 248.488 271.107 248.824C270.659 249.16 270.403 249.592 270.339 250.12H268.707C268.739 249.688 268.859 249.272 269.067 248.872C269.275 248.472 269.563 248.12 269.931 247.816C270.315 247.512 270.787 247.272 271.347 247.096C271.907 246.92 272.547 246.832 273.267 246.832C274.819 246.832 275.963 247.192 276.699 247.912C277.451 248.616 277.827 249.672 277.827 251.08V259H276.579L276.387 256.96H276.339C275.859 257.68 275.259 258.232 274.539 258.616C273.835 258.984 273.051 259.168 272.187 259.168ZM272.307 257.68C272.883 257.68 273.411 257.592 273.891 257.416C274.371 257.224 274.787 256.968 275.139 256.648C275.491 256.312 275.763 255.92 275.955 255.472C276.147 255.008 276.243 254.504 276.243 253.96V253.312H273.267C272.035 253.312 271.155 253.528 270.627 253.96C270.115 254.392 269.859 254.968 269.859 255.688C269.859 256.296 270.051 256.784 270.435 257.152C270.835 257.504 271.459 257.68 272.307 257.68ZM284.05 252.688L280.594 247H282.37L285.322 252.04H287.482V247H289.066V252.04H291.226L294.178 247H295.954L292.498 252.688L296.194 259H294.37L291.226 253.48H289.066V259H287.482V253.48H285.322L282.178 259H280.354L284.05 252.688ZM298.833 247H300.417V257.2H300.465L306.465 247H308.673V259H307.089V248.8H307.041L301.041 259H298.833V247Z" fill="black"/>
<circle cx="414" cy="273" r="9" fill="#21EA4D"/>
<path d="M369.7 308.168C368.66 308.168 367.716 307.992 366.868 307.64C366.02 307.288 365.284 306.776 364.66 306.104C364.052 305.416 363.58 304.576 363.244 303.584C362.908 302.576 362.74 301.424 362.74 300.128V298.832C362.74 297.6 362.908 296.504 363.244 295.544C363.596 294.568 364.076 293.752 364.684 293.096C365.292 292.424 366.02 291.912 366.868 291.56C367.732 291.208 368.676 291.032 369.7 291.032C370.724 291.032 371.66 291.208 372.508 291.56C373.372 291.896 374.108 292.4 374.716 293.072C375.34 293.728 375.82 294.544 376.156 295.52C376.492 296.48 376.66 297.584 376.66 298.832V300.128C376.66 301.424 376.484 302.576 376.132 303.584C375.796 304.576 375.324 305.416 374.716 306.104C374.108 306.776 373.372 307.288 372.508 307.64C371.66 307.992 370.724 308.168 369.7 308.168ZM369.7 306.632C370.468 306.632 371.172 306.496 371.812 306.224C372.452 305.952 373.004 305.544 373.468 305C373.932 304.456 374.292 303.784 374.548 302.984C374.804 302.168 374.932 301.216 374.932 300.128V298.832C374.932 297.824 374.796 296.936 374.524 296.168C374.268 295.384 373.908 294.728 373.444 294.2C372.98 293.656 372.428 293.248 371.788 292.976C371.148 292.704 370.452 292.568 369.7 292.568C368.932 292.568 368.228 292.704 367.588 292.976C366.948 293.248 366.396 293.648 365.932 294.176C365.468 294.704 365.108 295.36 364.852 296.144C364.596 296.912 364.468 297.808 364.468 298.832V300.128C364.468 301.2 364.596 302.144 364.852 302.96C365.124 303.76 365.492 304.432 365.956 304.976C366.42 305.52 366.972 305.936 367.612 306.224C368.252 306.496 368.948 306.632 369.7 306.632ZM380.259 296H381.843V301.04H384.003L387.507 296H389.379L385.275 301.712L389.859 308H387.939L384.003 302.48H381.843V308H380.259V296ZM396.304 308L391.288 296H393.016L397.12 306.032H397.168L400.936 296H402.568L396.088 312.8H394.456L396.304 308ZM405.196 296H414.556V308H412.972V297.44H406.78V308H405.196V296ZM418.626 296H420.21V306.2H420.258L426.258 296H428.466V308H426.882V297.8H426.834L420.834 308H418.626V296ZM430.988 306.728H431.348C431.844 306.728 432.228 306.56 432.5 306.224C432.772 305.888 432.972 305.4 433.1 304.76C433.244 304.12 433.324 303.344 433.34 302.432C433.372 301.52 433.388 300.496 433.388 299.36V296H441.548V308H439.964V297.44H434.972V299.36C434.972 300.656 434.948 301.84 434.9 302.912C434.868 303.984 434.732 304.912 434.492 305.696C434.268 306.48 433.908 307.088 433.412 307.52C432.932 307.952 432.244 308.168 431.348 308.168H430.988V306.728ZM449.946 308.168C449.194 308.168 448.506 308.048 447.882 307.808C447.258 307.552 446.722 307.176 446.274 306.68C445.842 306.184 445.506 305.568 445.266 304.832C445.026 304.096 444.906 303.248 444.906 302.288V301.472C444.906 300.576 445.026 299.784 445.266 299.096C445.522 298.392 445.866 297.8 446.298 297.32C446.746 296.84 447.274 296.472 447.882 296.216C448.506 295.96 449.194 295.832 449.946 295.832C450.65 295.832 451.282 295.928 451.842 296.12C452.402 296.296 452.882 296.552 453.282 296.888C453.682 297.208 454.002 297.584 454.242 298.016C454.482 298.432 454.65 298.88 454.746 299.36H453.114C452.938 298.768 452.61 298.272 452.13 297.872C451.65 297.472 450.962 297.272 450.066 297.272C449.042 297.272 448.194 297.632 447.522 298.352C446.866 299.072 446.538 300.112 446.538 301.472V302.288C446.538 303.76 446.874 304.872 447.546 305.624C448.218 306.36 449.058 306.728 450.066 306.728C450.962 306.728 451.65 306.52 452.13 306.104C452.61 305.688 452.938 305.12 453.114 304.4H454.746C454.65 304.944 454.482 305.448 454.242 305.912C454.002 306.36 453.682 306.752 453.282 307.088C452.882 307.424 452.402 307.688 451.842 307.88C451.282 308.072 450.65 308.168 449.946 308.168ZM459.471 303.2C458.655 302.928 458.063 302.504 457.695 301.928C457.327 301.352 457.143 300.632 457.143 299.768C457.143 298.568 457.511 297.64 458.247 296.984C458.999 296.328 460.231 296 461.943 296H465.783V308H464.199V303.536H461.943C461.783 303.536 461.623 303.536 461.463 303.536C461.319 303.536 461.175 303.528 461.031 303.512L458.487 308H456.663L459.471 303.2ZM458.775 299.768C458.775 300.52 459.015 301.096 459.495 301.496C459.975 301.896 460.831 302.096 462.063 302.096H464.199V297.44H462.063C460.831 297.44 459.975 297.64 459.495 298.04C459.015 298.44 458.775 299.016 458.775 299.768Z" fill="black"/>
<path d="M411.996 132.909C411.946 132.359 411.459 131.954 410.909 132.004L401.946 132.819C401.396 132.869 400.991 133.355 401.041 133.905C401.091 134.455 401.577 134.861 402.127 134.811L410.095 134.086L410.819 142.054C410.869 142.604 411.355 143.009 411.905 142.959C412.455 142.909 412.861 142.423 412.811 141.873L411.996 132.909ZM361.768 193.64L364.268 190.64L362.732 189.36L360.232 192.36L361.768 193.64ZM369.268 184.64L374.268 178.64L372.732 177.36L367.732 183.36L369.268 184.64ZM379.268 172.64L384.268 166.64L382.732 165.36L377.732 171.36L379.268 172.64ZM389.268 160.64L394.268 154.64L392.732 153.36L387.732 159.36L389.268 160.64ZM399.268 148.64L404.268 142.64L402.732 141.36L397.732 147.36L399.268 148.64ZM409.268 136.64L411.768 133.64L410.232 132.36L407.732 135.36L409.268 136.64Z" fill="#C0C0C0"/>
<path d="M402.783 259.976C403.322 260.096 403.856 259.756 403.976 259.217L405.929 250.431C406.048 249.892 405.708 249.358 405.169 249.238C404.63 249.118 404.096 249.458 403.976 249.997L402.241 257.807L394.431 256.071C393.892 255.952 393.358 256.292 393.238 256.831C393.118 257.37 393.458 257.904 393.997 258.024L402.783 259.976ZM360.156 193.537L362.256 196.837L363.944 195.763L361.844 192.463L360.156 193.537ZM366.456 203.437L370.656 210.037L372.344 208.963L368.144 202.363L366.456 203.437ZM374.856 216.637L379.056 223.237L380.744 222.163L376.544 215.563L374.856 216.637ZM383.256 229.837L387.456 236.437L389.144 235.363L384.944 228.763L383.256 229.837ZM391.656 243.037L395.856 249.637L397.544 248.563L393.344 241.963L391.656 243.037ZM400.056 256.237L402.156 259.537L403.844 258.463L401.744 255.163L400.056 256.237Z" fill="#C0C0C0"/>
</svg>
