<svg width="355" height="201" viewBox="0 0 355 201" fill="none" xmlns="http://www.w3.org/2000/svg">
<circle cx="77" cy="9" r="9" fill="#C0C0C0"/>
<path d="M2.43344 27.2H14.9134V44H13.2334V28.736H4.11344V44H2.43344V27.2ZM19.1181 32H20.3661L20.5581 33.8H20.6061C21.1341 33.112 21.7181 32.616 22.3581 32.312C22.9981 31.992 23.7501 31.832 24.6141 31.832C25.3181 31.832 25.9661 31.96 26.5581 32.216C27.1501 32.456 27.6541 32.824 28.0701 33.32C28.5021 33.8 28.8381 34.4 29.0781 35.12C29.3181 35.84 29.4381 36.664 29.4381 37.592V38.408C29.4381 39.336 29.3181 40.16 29.0781 40.88C28.8381 41.584 28.5021 42.184 28.0701 42.68C27.6381 43.16 27.1261 43.528 26.5341 43.784C25.9421 44.04 25.3021 44.168 24.6141 44.168C22.8861 44.168 21.5981 43.552 20.7501 42.32H20.7021V48.8H19.1181V32ZM24.2541 42.728C25.3101 42.728 26.1661 42.376 26.8221 41.672C27.4781 40.952 27.8061 39.864 27.8061 38.408V37.592C27.8061 36.168 27.4701 35.096 26.7981 34.376C26.1421 33.64 25.2941 33.272 24.2541 33.272C23.1981 33.272 22.3421 33.632 21.6861 34.352C21.0301 35.056 20.7021 36.136 20.7021 37.592V38.408C20.7021 39.832 21.0301 40.912 21.6861 41.648C22.3581 42.368 23.2141 42.728 24.2541 42.728ZM37.3656 44.168C35.7496 44.168 34.4616 43.672 33.5016 42.68C32.5576 41.688 32.0856 40.264 32.0856 38.408V37.592C32.0856 36.68 32.2056 35.864 32.4456 35.144C32.7016 34.424 33.0616 33.824 33.5256 33.344C33.9896 32.848 34.5416 32.472 35.1816 32.216C35.8376 31.96 36.5656 31.832 37.3656 31.832C38.9816 31.832 40.2616 32.328 41.2056 33.32C42.1656 34.312 42.6456 35.736 42.6456 37.592V38.408C42.6456 39.32 42.5176 40.136 42.2616 40.856C42.0216 41.576 41.6696 42.184 41.2056 42.68C40.7416 43.16 40.1816 43.528 39.5256 43.784C38.8856 44.04 38.1656 44.168 37.3656 44.168ZM37.3656 42.728C38.4696 42.728 39.3496 42.368 40.0056 41.648C40.6776 40.928 41.0136 39.848 41.0136 38.408V37.592C41.0136 36.168 40.6776 35.096 40.0056 34.376C39.3336 33.64 38.4536 33.272 37.3656 33.272C36.2616 33.272 35.3736 33.632 34.7016 34.352C34.0456 35.072 33.7176 36.152 33.7176 37.592V38.408C33.7176 39.832 34.0536 40.912 34.7256 41.648C35.3976 42.368 36.2776 42.728 37.3656 42.728ZM46.0009 32H50.5609C51.9689 32 53.0009 32.296 53.6569 32.888C54.3129 33.48 54.6409 34.28 54.6409 35.288C54.6409 35.816 54.5049 36.296 54.2329 36.728C53.9769 37.16 53.6089 37.496 53.1289 37.736V37.784C53.7849 38.04 54.2809 38.408 54.6169 38.888C54.9529 39.368 55.1209 39.928 55.1209 40.568C55.1209 41.64 54.7929 42.48 54.1369 43.088C53.4809 43.696 52.4489 44 51.0409 44H46.0009V32ZM53.0089 35.312C53.0089 34.72 52.8169 34.264 52.4329 33.944C52.0489 33.608 51.3849 33.44 50.4409 33.44H47.5849V37.208H50.4409C51.3849 37.208 52.0489 37.048 52.4329 36.728C52.8169 36.392 53.0089 35.92 53.0089 35.312ZM53.4889 40.544C53.4889 39.888 53.2969 39.392 52.9129 39.056C52.5289 38.72 51.8649 38.552 50.9209 38.552H47.5849V42.56H50.9209C51.8649 42.56 52.5289 42.392 52.9129 42.056C53.2969 41.72 53.4889 41.216 53.4889 40.544ZM62.9097 44.168C62.1417 44.168 61.4377 44.04 60.7977 43.784C60.1577 43.528 59.6137 43.16 59.1657 42.68C58.7177 42.184 58.3657 41.584 58.1097 40.88C57.8697 40.16 57.7497 39.336 57.7497 38.408V37.592C57.7497 36.68 57.8697 35.864 58.1097 35.144C58.3657 34.424 58.7177 33.824 59.1657 33.344C59.6297 32.848 60.1737 32.472 60.7977 32.216C61.4377 31.96 62.1417 31.832 62.9097 31.832C63.6777 31.832 64.3817 31.96 65.0217 32.216C65.6617 32.472 66.2057 32.848 66.6537 33.344C67.1017 33.84 67.4457 34.456 67.6857 35.192C67.9417 35.912 68.0697 36.752 68.0697 37.712V38.432H59.3817C59.3817 39.824 59.6857 40.888 60.2937 41.624C60.9017 42.36 61.7737 42.728 62.9097 42.728C64.6217 42.728 65.7577 42.032 66.3177 40.64H67.9497C67.6617 41.792 67.0857 42.672 66.2217 43.28C65.3737 43.872 64.2697 44.168 62.9097 44.168ZM62.9097 33.272C61.8857 33.272 61.0617 33.6 60.4377 34.256C59.8137 34.896 59.4617 35.84 59.3817 37.088H66.4377C66.3577 35.792 65.9977 34.832 65.3577 34.208C64.7337 33.584 63.9177 33.272 62.9097 33.272ZM71.4306 32H72.6786L72.8706 33.8H72.9186C73.4466 33.112 74.0306 32.616 74.6706 32.312C75.3106 31.992 76.0626 31.832 76.9266 31.832C77.6306 31.832 78.2786 31.96 78.8706 32.216C79.4626 32.456 79.9666 32.824 80.3826 33.32C80.8146 33.8 81.1506 34.4 81.3906 35.12C81.6306 35.84 81.7506 36.664 81.7506 37.592V38.408C81.7506 39.336 81.6306 40.16 81.3906 40.88C81.1506 41.584 80.8146 42.184 80.3826 42.68C79.9506 43.16 79.4386 43.528 78.8466 43.784C78.2546 44.04 77.6146 44.168 76.9266 44.168C75.1986 44.168 73.9106 43.552 73.0626 42.32H73.0146V48.8H71.4306V32ZM76.5666 42.728C77.6226 42.728 78.4786 42.376 79.1346 41.672C79.7906 40.952 80.1186 39.864 80.1186 38.408V37.592C80.1186 36.168 79.7826 35.096 79.1106 34.376C78.4546 33.64 77.6066 33.272 76.5666 33.272C75.5106 33.272 74.6546 33.632 73.9986 34.352C73.3426 35.056 73.0146 36.136 73.0146 37.592V38.408C73.0146 39.832 73.3426 40.912 73.9986 41.648C74.6706 42.368 75.5266 42.728 76.5666 42.728ZM89.5581 44.168C88.7901 44.168 88.0861 44.04 87.4461 43.784C86.8061 43.528 86.2621 43.16 85.8141 42.68C85.3661 42.184 85.0141 41.584 84.7581 40.88C84.5181 40.16 84.3981 39.336 84.3981 38.408V37.592C84.3981 36.68 84.5181 35.864 84.7581 35.144C85.0141 34.424 85.3661 33.824 85.8141 33.344C86.2781 32.848 86.8221 32.472 87.4461 32.216C88.0861 31.96 88.7901 31.832 89.5581 31.832C90.3261 31.832 91.0301 31.96 91.6701 32.216C92.3101 32.472 92.8541 32.848 93.3021 33.344C93.7501 33.84 94.0941 34.456 94.3341 35.192C94.5901 35.912 94.7181 36.752 94.7181 37.712V38.432H86.0301C86.0301 39.824 86.3341 40.888 86.9421 41.624C87.5501 42.36 88.4221 42.728 89.5581 42.728C91.2701 42.728 92.4061 42.032 92.9661 40.64H94.5981C94.3101 41.792 93.7341 42.672 92.8701 43.28C92.0221 43.872 90.9181 44.168 89.5581 44.168ZM89.5581 33.272C88.5341 33.272 87.7101 33.6 87.0861 34.256C86.4621 34.896 86.1101 35.84 86.0301 37.088H93.0861C93.0061 35.792 92.6461 34.832 92.0061 34.208C91.3821 33.584 90.5661 33.272 89.5581 33.272ZM98.0791 32H99.6631V37.16H106.335V32H107.919V44H106.335V38.6H99.6631V44H98.0791V32ZM112.001 32H113.585V37.16H120.257V32H121.841V44H120.257V38.6H113.585V44H112.001V32ZM129.043 44.168C127.715 44.168 126.723 43.864 126.067 43.256C125.411 42.632 125.083 41.776 125.083 40.688C125.083 39.552 125.475 38.648 126.259 37.976C127.043 37.304 128.291 36.968 130.003 36.968H133.099V36.08C133.099 35.12 132.867 34.424 132.403 33.992C131.939 33.544 131.179 33.32 130.123 33.32C129.147 33.32 128.427 33.488 127.963 33.824C127.515 34.16 127.259 34.592 127.195 35.12H125.563C125.595 34.688 125.715 34.272 125.923 33.872C126.131 33.472 126.419 33.12 126.787 32.816C127.171 32.512 127.643 32.272 128.203 32.096C128.763 31.92 129.403 31.832 130.123 31.832C131.675 31.832 132.819 32.192 133.555 32.912C134.307 33.616 134.683 34.672 134.683 36.08V44H133.435L133.243 41.96H133.195C132.715 42.68 132.115 43.232 131.395 43.616C130.691 43.984 129.907 44.168 129.043 44.168ZM129.163 42.68C129.739 42.68 130.267 42.592 130.747 42.416C131.227 42.224 131.643 41.968 131.995 41.648C132.347 41.312 132.619 40.92 132.811 40.472C133.003 40.008 133.099 39.504 133.099 38.96V38.312H130.123C128.891 38.312 128.011 38.528 127.483 38.96C126.971 39.392 126.715 39.968 126.715 40.688C126.715 41.296 126.907 41.784 127.291 42.152C127.691 42.504 128.315 42.68 129.163 42.68ZM140.377 39.2C139.561 38.928 138.969 38.504 138.601 37.928C138.233 37.352 138.049 36.632 138.049 35.768C138.049 34.568 138.417 33.64 139.153 32.984C139.905 32.328 141.137 32 142.849 32H146.689V44H145.105V39.536H142.849C142.689 39.536 142.529 39.536 142.369 39.536C142.225 39.536 142.081 39.528 141.937 39.512L139.393 44H137.569L140.377 39.2ZM139.681 35.768C139.681 36.52 139.921 37.096 140.401 37.496C140.881 37.896 141.737 38.096 142.969 38.096H145.105V33.44H142.969C141.737 33.44 140.881 33.64 140.401 34.04C139.921 34.44 139.681 35.016 139.681 35.768ZM27.5673 63H29.8713L33.7113 70.392H33.7593L37.5993 63H39.8073V75H38.2233V65.04H38.1753L34.4793 72.12H32.8953L29.1993 65.04H29.1513V75H27.5673V63ZM48.3198 75.168C47.5518 75.168 46.8478 75.04 46.2078 74.784C45.5678 74.528 45.0238 74.16 44.5758 73.68C44.1278 73.184 43.7758 72.584 43.5198 71.88C43.2798 71.16 43.1598 70.336 43.1598 69.408V68.592C43.1598 67.68 43.2798 66.864 43.5198 66.144C43.7758 65.424 44.1278 64.824 44.5758 64.344C45.0398 63.848 45.5838 63.472 46.2078 63.216C46.8478 62.96 47.5518 62.832 48.3198 62.832C49.0878 62.832 49.7918 62.96 50.4318 63.216C51.0718 63.472 51.6158 63.848 52.0638 64.344C52.5118 64.84 52.8558 65.456 53.0958 66.192C53.3518 66.912 53.4798 67.752 53.4798 68.712V69.432H44.7918C44.7918 70.824 45.0958 71.888 45.7038 72.624C46.3118 73.36 47.1838 73.728 48.3198 73.728C50.0318 73.728 51.1678 73.032 51.7278 71.64H53.3598C53.0718 72.792 52.4958 73.672 51.6318 74.28C50.7838 74.872 49.6798 75.168 48.3198 75.168ZM48.3198 64.272C47.2958 64.272 46.4718 64.6 45.8478 65.256C45.2238 65.896 44.8718 66.84 44.7918 68.088H51.8478C51.7678 66.792 51.4078 65.832 50.7678 65.208C50.1438 64.584 49.3278 64.272 48.3198 64.272ZM58.82 64.44H54.812V63H64.412V64.44H60.404V75H58.82V64.44ZM71.0336 75.168C69.4176 75.168 68.1296 74.672 67.1696 73.68C66.2256 72.688 65.7536 71.264 65.7536 69.408V68.592C65.7536 67.68 65.8736 66.864 66.1136 66.144C66.3696 65.424 66.7296 64.824 67.1936 64.344C67.6576 63.848 68.2096 63.472 68.8496 63.216C69.5056 62.96 70.2336 62.832 71.0336 62.832C72.6496 62.832 73.9296 63.328 74.8736 64.32C75.8336 65.312 76.3136 66.736 76.3136 68.592V69.408C76.3136 70.32 76.1856 71.136 75.9296 71.856C75.6896 72.576 75.3376 73.184 74.8736 73.68C74.4096 74.16 73.8496 74.528 73.1936 74.784C72.5536 75.04 71.8336 75.168 71.0336 75.168ZM71.0336 73.728C72.1376 73.728 73.0176 73.368 73.6736 72.648C74.3456 71.928 74.6816 70.848 74.6816 69.408V68.592C74.6816 67.168 74.3456 66.096 73.6736 65.376C73.0016 64.64 72.1216 64.272 71.0336 64.272C69.9296 64.272 69.0416 64.632 68.3696 65.352C67.7136 66.072 67.3856 67.152 67.3856 68.592V69.408C67.3856 70.832 67.7216 71.912 68.3936 72.648C69.0656 73.368 69.9456 73.728 71.0336 73.728ZM77.8745 73.56H79.1945C79.4505 73.16 79.6585 72.752 79.8185 72.336C79.9945 71.92 80.1305 71.448 80.2265 70.92C80.3385 70.392 80.4105 69.784 80.4425 69.096C80.4905 68.392 80.5145 67.56 80.5145 66.6V63H88.6745V73.56H90.2345V78.12H88.6985V75H79.4105V78.12H77.8745V73.56ZM87.0905 73.56V64.44H82.0505V66.6C82.0505 67.464 82.0345 68.224 82.0025 68.88C81.9705 69.536 81.9145 70.136 81.8345 70.68C81.7545 71.208 81.6425 71.704 81.4985 72.168C81.3545 72.616 81.1785 73.064 80.9705 73.512V73.56H87.0905ZM92.8642 63H94.4482V73.2H94.4962L100.496 63H102.704V75H101.12V64.8H101.072L95.0722 75H92.8642V63ZM106.786 63H108.37V68.04H110.53L114.034 63H115.906L111.802 68.712L116.386 75H114.466L110.53 69.48H108.37V75H106.786V63ZM121.906 75.168C120.578 75.168 119.586 74.864 118.93 74.256C118.274 73.632 117.946 72.776 117.946 71.688C117.946 70.552 118.338 69.648 119.122 68.976C119.906 68.304 121.154 67.968 122.866 67.968H125.962V67.08C125.962 66.12 125.73 65.424 125.266 64.992C124.802 64.544 124.042 64.32 122.986 64.32C122.01 64.32 121.29 64.488 120.826 64.824C120.378 65.16 120.122 65.592 120.058 66.12H118.426C118.458 65.688 118.578 65.272 118.786 64.872C118.994 64.472 119.282 64.12 119.65 63.816C120.034 63.512 120.506 63.272 121.066 63.096C121.626 62.92 122.266 62.832 122.986 62.832C124.538 62.832 125.682 63.192 126.418 63.912C127.17 64.616 127.546 65.672 127.546 67.08V75H126.298L126.106 72.96H126.058C125.578 73.68 124.978 74.232 124.258 74.616C123.554 74.984 122.77 75.168 121.906 75.168ZM122.026 73.68C122.602 73.68 123.13 73.592 123.61 73.416C124.09 73.224 124.506 72.968 124.858 72.648C125.21 72.312 125.482 71.92 125.674 71.472C125.866 71.008 125.962 70.504 125.962 69.96V69.312H122.986C121.754 69.312 120.874 69.528 120.346 69.96C119.834 70.392 119.578 70.968 119.578 71.688C119.578 72.296 119.77 72.784 120.154 73.152C120.554 73.504 121.178 73.68 122.026 73.68Z" fill="black"/>
<path d="M220 131.012C220 131.564 220.448 132.012 221 132.012L230 132.012C230.552 132.012 231 131.564 231 131.012C231 130.46 230.552 130.012 230 130.012L222 130.012L222 122.012C222 121.46 221.552 121.012 221 121.012C220.448 121.012 220 121.46 220 122.012L220 131.012ZM221.707 131.719L224.27 129.156L222.856 127.742L220.293 130.305L221.707 131.719ZM229.397 124.03L234.523 118.903L233.109 117.489L227.983 122.615L229.397 124.03ZM239.65 113.776L244.776 108.65L243.362 107.236L238.236 112.362L239.65 113.776ZM249.903 103.523L255.03 98.3969L253.615 96.9827L248.489 102.109L249.903 103.523ZM260.156 93.2704L262.719 90.7071L261.305 89.2929L258.742 91.8562L260.156 93.2704Z" fill="#C0C0C0"/>
<circle cx="282" cy="9" r="9" fill="#C0C0C0"/>
<path d="M258.785 27.2H268.865V28.736H260.465V34.064H264.425C266.297 34.064 267.705 34.512 268.649 35.408C269.593 36.288 270.065 37.496 270.065 39.032C270.065 40.536 269.585 41.744 268.625 42.656C267.665 43.552 266.265 44 264.425 44H258.785V27.2ZM260.465 35.6V42.464H264.305C265.713 42.464 266.737 42.168 267.377 41.576C268.017 40.984 268.337 40.136 268.337 39.032C268.337 37.928 268.017 37.08 267.377 36.488C266.737 35.896 265.713 35.6 264.305 35.6H260.465ZM276.433 44.168C275.105 44.168 274.113 43.864 273.457 43.256C272.801 42.632 272.473 41.776 272.473 40.688C272.473 39.552 272.865 38.648 273.649 37.976C274.433 37.304 275.681 36.968 277.393 36.968H280.489V36.08C280.489 35.12 280.257 34.424 279.793 33.992C279.329 33.544 278.569 33.32 277.513 33.32C276.537 33.32 275.817 33.488 275.353 33.824C274.905 34.16 274.649 34.592 274.585 35.12H272.953C272.985 34.688 273.105 34.272 273.313 33.872C273.521 33.472 273.809 33.12 274.177 32.816C274.561 32.512 275.033 32.272 275.593 32.096C276.153 31.92 276.793 31.832 277.513 31.832C279.065 31.832 280.209 32.192 280.945 32.912C281.697 33.616 282.073 34.672 282.073 36.08V44H280.825L280.633 41.96H280.585C280.105 42.68 279.505 43.232 278.785 43.616C278.081 43.984 277.297 44.168 276.433 44.168ZM276.553 42.68C277.129 42.68 277.657 42.592 278.137 42.416C278.617 42.224 279.033 41.968 279.385 41.648C279.737 41.312 280.009 40.92 280.201 40.472C280.393 40.008 280.489 39.504 280.489 38.96V38.312H277.513C276.281 38.312 275.401 38.528 274.873 38.96C274.361 39.392 274.105 39.968 274.105 40.688C274.105 41.296 274.297 41.784 274.681 42.152C275.081 42.504 275.705 42.68 276.553 42.68ZM289.76 44.168C288.208 44.168 287.048 43.832 286.28 43.16C285.528 42.472 285.088 41.552 284.96 40.4H286.592C286.72 41.168 287.016 41.752 287.48 42.152C287.944 42.536 288.704 42.728 289.76 42.728C290.816 42.728 291.568 42.544 292.016 42.176C292.464 41.792 292.688 41.28 292.688 40.64C292.688 40.032 292.464 39.544 292.016 39.176C291.568 38.792 290.816 38.6 289.76 38.6H288.44V37.16H289.76C290.672 37.16 291.328 36.984 291.728 36.632C292.128 36.28 292.328 35.816 292.328 35.24C292.328 34.632 292.128 34.152 291.728 33.8C291.328 33.448 290.672 33.272 289.76 33.272C288.848 33.272 288.184 33.456 287.768 33.824C287.352 34.176 287.08 34.688 286.952 35.36H285.32C285.448 34.304 285.864 33.456 286.568 32.816C287.288 32.16 288.352 31.832 289.76 31.832C291.152 31.832 292.2 32.152 292.904 32.792C293.608 33.432 293.96 34.248 293.96 35.24C293.96 36.328 293.44 37.176 292.4 37.784V37.832C293.68 38.36 294.32 39.296 294.32 40.64C294.32 41.68 293.944 42.528 293.192 43.184C292.456 43.84 291.312 44.168 289.76 44.168ZM300.808 44.168C299.48 44.168 298.488 43.864 297.832 43.256C297.176 42.632 296.848 41.776 296.848 40.688C296.848 39.552 297.24 38.648 298.024 37.976C298.808 37.304 300.056 36.968 301.768 36.968H304.864V36.08C304.864 35.12 304.632 34.424 304.168 33.992C303.704 33.544 302.944 33.32 301.888 33.32C300.912 33.32 300.192 33.488 299.728 33.824C299.28 34.16 299.024 34.592 298.96 35.12H297.328C297.36 34.688 297.48 34.272 297.688 33.872C297.896 33.472 298.184 33.12 298.552 32.816C298.936 32.512 299.408 32.272 299.968 32.096C300.528 31.92 301.168 31.832 301.888 31.832C303.44 31.832 304.584 32.192 305.32 32.912C306.072 33.616 306.448 34.672 306.448 36.08V44H305.2L305.008 41.96H304.96C304.48 42.68 303.88 43.232 303.16 43.616C302.456 43.984 301.672 44.168 300.808 44.168ZM300.928 42.68C301.504 42.68 302.032 42.592 302.512 42.416C302.992 42.224 303.408 41.968 303.76 41.648C304.112 41.312 304.384 40.92 304.576 40.472C304.768 40.008 304.864 39.504 304.864 38.96V38.312H301.888C300.656 38.312 299.776 38.528 299.248 38.96C298.736 39.392 298.48 39.968 298.48 40.688C298.48 41.296 298.672 41.784 299.056 42.152C299.456 42.504 300.08 42.68 300.928 42.68ZM212.364 63H221.724V75H220.14V64.44H213.948V75H212.364V63ZM230.354 75.168C228.738 75.168 227.45 74.672 226.49 73.68C225.546 72.688 225.074 71.264 225.074 69.408V68.592C225.074 67.68 225.194 66.864 225.434 66.144C225.69 65.424 226.05 64.824 226.514 64.344C226.978 63.848 227.53 63.472 228.17 63.216C228.826 62.96 229.554 62.832 230.354 62.832C231.97 62.832 233.25 63.328 234.194 64.32C235.154 65.312 235.634 66.736 235.634 68.592V69.408C235.634 70.32 235.506 71.136 235.25 71.856C235.01 72.576 234.658 73.184 234.194 73.68C233.73 74.16 233.17 74.528 232.514 74.784C231.874 75.04 231.154 75.168 230.354 75.168ZM230.354 73.728C231.458 73.728 232.338 73.368 232.994 72.648C233.666 71.928 234.002 70.848 234.002 69.408V68.592C234.002 67.168 233.666 66.096 232.994 65.376C232.322 64.64 231.442 64.272 230.354 64.272C229.25 64.272 228.362 64.632 227.69 65.352C227.034 66.072 226.706 67.152 226.706 68.592V69.408C226.706 70.832 227.042 71.912 227.714 72.648C228.386 73.368 229.266 73.728 230.354 73.728ZM243.309 75.168C242.557 75.168 241.869 75.048 241.245 74.808C240.621 74.552 240.085 74.176 239.637 73.68C239.205 73.184 238.869 72.568 238.629 71.832C238.389 71.096 238.269 70.248 238.269 69.288V68.472C238.269 67.576 238.389 66.784 238.629 66.096C238.885 65.392 239.229 64.8 239.661 64.32C240.109 63.84 240.637 63.472 241.245 63.216C241.869 62.96 242.557 62.832 243.309 62.832C244.013 62.832 244.645 62.928 245.205 63.12C245.765 63.296 246.245 63.552 246.645 63.888C247.045 64.208 247.365 64.584 247.605 65.016C247.845 65.432 248.013 65.88 248.109 66.36H246.477C246.301 65.768 245.973 65.272 245.493 64.872C245.013 64.472 244.325 64.272 243.429 64.272C242.405 64.272 241.557 64.632 240.885 65.352C240.229 66.072 239.901 67.112 239.901 68.472V69.288C239.901 70.76 240.237 71.872 240.909 72.624C241.581 73.36 242.421 73.728 243.429 73.728C244.325 73.728 245.013 73.52 245.493 73.104C245.973 72.688 246.301 72.12 246.477 71.4H248.109C248.013 71.944 247.845 72.448 247.605 72.912C247.365 73.36 247.045 73.752 246.645 74.088C246.245 74.424 245.765 74.688 245.205 74.88C244.645 75.072 244.013 75.168 243.309 75.168ZM253.554 64.44H249.546V63H259.146V64.44H255.138V75H253.554V64.44ZM264.562 75.168C263.234 75.168 262.242 74.864 261.586 74.256C260.93 73.632 260.602 72.776 260.602 71.688C260.602 70.552 260.994 69.648 261.778 68.976C262.562 68.304 263.81 67.968 265.522 67.968H268.618V67.08C268.618 66.12 268.386 65.424 267.922 64.992C267.458 64.544 266.698 64.32 265.642 64.32C264.666 64.32 263.946 64.488 263.482 64.824C263.034 65.16 262.778 65.592 262.714 66.12H261.082C261.114 65.688 261.234 65.272 261.442 64.872C261.65 64.472 261.938 64.12 262.306 63.816C262.69 63.512 263.162 63.272 263.722 63.096C264.282 62.92 264.922 62.832 265.642 62.832C267.194 62.832 268.338 63.192 269.074 63.912C269.826 64.616 270.202 65.672 270.202 67.08V75H268.954L268.762 72.96H268.714C268.234 73.68 267.634 74.232 266.914 74.616C266.21 74.984 265.426 75.168 264.562 75.168ZM264.682 73.68C265.258 73.68 265.786 73.592 266.266 73.416C266.746 73.224 267.162 72.968 267.514 72.648C267.866 72.312 268.138 71.92 268.33 71.472C268.522 71.008 268.618 70.504 268.618 69.96V69.312H265.642C264.41 69.312 263.53 69.528 263.002 69.96C262.49 70.392 262.234 70.968 262.234 71.688C262.234 72.296 262.426 72.784 262.81 73.152C263.21 73.504 263.834 73.68 264.682 73.68ZM274.169 63H278.729C280.137 63 281.169 63.296 281.825 63.888C282.481 64.48 282.809 65.28 282.809 66.288C282.809 66.816 282.673 67.296 282.401 67.728C282.145 68.16 281.777 68.496 281.297 68.736V68.784C281.953 69.04 282.449 69.408 282.785 69.888C283.121 70.368 283.289 70.928 283.289 71.568C283.289 72.64 282.961 73.48 282.305 74.088C281.649 74.696 280.617 75 279.209 75H274.169V63ZM281.177 66.312C281.177 65.72 280.985 65.264 280.601 64.944C280.217 64.608 279.553 64.44 278.609 64.44H275.753V68.208H278.609C279.553 68.208 280.217 68.048 280.601 67.728C280.985 67.392 281.177 66.92 281.177 66.312ZM281.657 71.544C281.657 70.888 281.465 70.392 281.081 70.056C280.697 69.72 280.033 69.552 279.089 69.552H275.753V73.56H279.089C280.033 73.56 280.697 73.392 281.081 73.056C281.465 72.72 281.657 72.216 281.657 71.544ZM301.014 75H286.638V63H288.222V73.56H292.926V63H294.51V73.56H299.214V63H300.798V73.56H302.598V78.12H301.014V75ZM305.247 63H306.831V73.2H306.879L312.879 63H315.087V75H313.503V64.8H313.455L307.455 75H305.247V63ZM319.169 63H320.753V68.04H322.913L326.417 63H328.289L324.185 68.712L328.769 75H326.849L322.913 69.48H320.753V75H319.169V63ZM335.612 75.168C333.996 75.168 332.708 74.672 331.748 73.68C330.804 72.688 330.332 71.264 330.332 69.408V68.592C330.332 67.68 330.452 66.864 330.692 66.144C330.948 65.424 331.308 64.824 331.772 64.344C332.236 63.848 332.788 63.472 333.428 63.216C334.084 62.96 334.812 62.832 335.612 62.832C337.228 62.832 338.508 63.328 339.452 64.32C340.412 65.312 340.892 66.736 340.892 68.592V69.408C340.892 70.32 340.764 71.136 340.508 71.856C340.268 72.576 339.916 73.184 339.452 73.68C338.988 74.16 338.428 74.528 337.772 74.784C337.132 75.04 336.412 75.168 335.612 75.168ZM335.612 73.728C336.716 73.728 337.596 73.368 338.252 72.648C338.924 71.928 339.26 70.848 339.26 69.408V68.592C339.26 67.168 338.924 66.096 338.252 65.376C337.58 64.64 336.7 64.272 335.612 64.272C334.508 64.272 333.62 64.632 332.948 65.352C332.292 66.072 331.964 67.152 331.964 68.592V69.408C331.964 70.832 332.3 71.912 332.972 72.648C333.644 73.368 334.524 73.728 335.612 73.728ZM344.247 63H348.807C350.215 63 351.247 63.296 351.903 63.888C352.559 64.48 352.887 65.28 352.887 66.288C352.887 66.816 352.751 67.296 352.479 67.728C352.223 68.16 351.855 68.496 351.375 68.736V68.784C352.031 69.04 352.527 69.408 352.863 69.888C353.199 70.368 353.367 70.928 353.367 71.568C353.367 72.64 353.039 73.48 352.383 74.088C351.727 74.696 350.695 75 349.287 75H344.247V63ZM351.255 66.312C351.255 65.72 351.063 65.264 350.679 64.944C350.295 64.608 349.631 64.44 348.687 64.44H345.831V68.208H348.687C349.631 68.208 350.295 68.048 350.679 67.728C351.063 67.392 351.255 66.92 351.255 66.312ZM351.735 71.544C351.735 70.888 351.543 70.392 351.159 70.056C350.775 69.72 350.111 69.552 349.167 69.552H345.831V73.56H349.167C350.111 73.56 350.775 73.392 351.159 73.056C351.543 72.72 351.735 72.216 351.735 71.544Z" fill="black"/>
<path d="M138.012 132.012C138.564 132.012 139.012 131.564 139.012 131.012L139.012 122.012C139.012 121.46 138.564 121.012 138.012 121.012C137.459 121.012 137.012 121.46 137.012 122.012L137.012 130.012L129.012 130.012C128.459 130.012 128.012 130.46 128.012 131.012C128.012 131.564 128.459 132.012 129.012 132.012L138.012 132.012ZM138.719 130.305L136.156 127.742L134.741 129.156L137.305 131.719L138.719 130.305ZM131.029 122.615L125.903 117.489L124.488 118.903L129.615 124.03L131.029 122.615ZM120.776 112.362L115.649 107.236L114.235 108.65L119.362 113.776L120.776 112.362ZM110.523 102.109L105.396 96.9827L103.982 98.3969L109.109 103.523L110.523 102.109ZM100.27 91.8562L97.7066 89.2929L96.2924 90.7071L98.8557 93.2704L100.27 91.8562Z" fill="#C0C0C0"/>
<path d="M127.234 177.2H132.634C134.634 177.2 136.114 177.656 137.074 178.568C138.034 179.48 138.514 180.76 138.514 182.408C138.514 184.04 138.026 185.32 137.05 186.248C136.074 187.16 134.602 187.616 132.634 187.616H128.914V194H127.234V177.2ZM128.914 178.736V186.08H132.514C134.034 186.08 135.122 185.776 135.778 185.168C136.45 184.544 136.786 183.624 136.786 182.408C136.786 181.208 136.45 180.296 135.778 179.672C135.106 179.048 134.018 178.736 132.514 178.736H128.914ZM145.71 194.168C144.942 194.168 144.238 194.04 143.598 193.784C142.958 193.528 142.414 193.16 141.966 192.68C141.518 192.184 141.166 191.584 140.91 190.88C140.67 190.16 140.55 189.336 140.55 188.408V187.592C140.55 186.68 140.67 185.864 140.91 185.144C141.166 184.424 141.518 183.824 141.966 183.344C142.43 182.848 142.974 182.472 143.598 182.216C144.238 181.96 144.942 181.832 145.71 181.832C146.478 181.832 147.182 181.96 147.822 182.216C148.462 182.472 149.006 182.848 149.454 183.344C149.902 183.84 150.246 184.456 150.486 185.192C150.742 185.912 150.87 186.752 150.87 187.712V188.432H142.182C142.182 189.824 142.486 190.888 143.094 191.624C143.702 192.36 144.574 192.728 145.71 192.728C147.422 192.728 148.558 192.032 149.118 190.64H150.75C150.462 191.792 149.886 192.672 149.022 193.28C148.174 193.872 147.07 194.168 145.71 194.168ZM145.71 183.272C144.686 183.272 143.862 183.6 143.238 184.256C142.614 184.896 142.262 185.84 142.182 187.088H149.238C149.158 185.792 148.798 184.832 148.158 184.208C147.534 183.584 146.718 183.272 145.71 183.272ZM157.951 194.168C156.399 194.168 155.239 193.832 154.471 193.16C153.719 192.472 153.279 191.552 153.151 190.4H154.783C154.911 191.168 155.207 191.752 155.671 192.152C156.135 192.536 156.895 192.728 157.951 192.728C159.007 192.728 159.759 192.544 160.207 192.176C160.655 191.792 160.879 191.28 160.879 190.64C160.879 190.032 160.655 189.544 160.207 189.176C159.759 188.792 159.007 188.6 157.951 188.6H156.631V187.16H157.951C158.863 187.16 159.519 186.984 159.919 186.632C160.319 186.28 160.519 185.816 160.519 185.24C160.519 184.632 160.319 184.152 159.919 183.8C159.519 183.448 158.863 183.272 157.951 183.272C157.039 183.272 156.375 183.456 155.959 183.824C155.543 184.176 155.271 184.688 155.143 185.36H153.511C153.639 184.304 154.055 183.456 154.759 182.816C155.479 182.16 156.543 181.832 157.951 181.832C159.343 181.832 160.391 182.152 161.095 182.792C161.799 183.432 162.151 184.248 162.151 185.24C162.151 186.328 161.631 187.176 160.591 187.784V187.832C161.871 188.36 162.511 189.296 162.511 190.64C162.511 191.68 162.135 192.528 161.383 193.184C160.647 193.84 159.503 194.168 157.951 194.168ZM168.987 194L163.971 182H165.699L169.803 192.032H169.851L173.619 182H175.251L168.771 198.8H167.139L168.987 194ZM175.593 192.728H175.953C176.449 192.728 176.833 192.56 177.105 192.224C177.377 191.888 177.577 191.4 177.705 190.76C177.849 190.12 177.929 189.344 177.945 188.432C177.977 187.52 177.993 186.496 177.993 185.36V182H186.153V194H184.569V183.44H179.577V185.36C179.577 186.656 179.553 187.84 179.505 188.912C179.473 189.984 179.337 190.912 179.097 191.696C178.873 192.48 178.513 193.088 178.017 193.52C177.537 193.952 176.849 194.168 175.953 194.168H175.593V192.728ZM190.231 182H191.815V186.32H194.551C196.103 186.32 197.247 186.664 197.983 187.352C198.735 188.04 199.111 188.976 199.111 190.16C199.111 191.328 198.735 192.264 197.983 192.968C197.231 193.656 196.087 194 194.551 194H190.231V182ZM191.815 187.76V192.56H194.431C195.535 192.56 196.319 192.352 196.783 191.936C197.247 191.52 197.479 190.928 197.479 190.16C197.479 189.392 197.239 188.8 196.759 188.384C196.295 187.968 195.519 187.76 194.431 187.76H191.815ZM203.25 183.44H199.242V182H208.842V183.44H204.834V194H203.25V183.44ZM214.258 194.168C212.93 194.168 211.938 193.864 211.282 193.256C210.626 192.632 210.298 191.776 210.298 190.688C210.298 189.552 210.69 188.648 211.474 187.976C212.258 187.304 213.506 186.968 215.218 186.968H218.314V186.08C218.314 185.12 218.082 184.424 217.618 183.992C217.154 183.544 216.394 183.32 215.338 183.32C214.362 183.32 213.642 183.488 213.178 183.824C212.73 184.16 212.474 184.592 212.41 185.12H210.778C210.81 184.688 210.93 184.272 211.138 183.872C211.346 183.472 211.634 183.12 212.002 182.816C212.386 182.512 212.858 182.272 213.418 182.096C213.978 181.92 214.618 181.832 215.338 181.832C216.89 181.832 218.034 182.192 218.77 182.912C219.522 183.616 219.898 184.672 219.898 186.08V194H218.65L218.458 191.96H218.41C217.93 192.68 217.33 193.232 216.61 193.616C215.906 193.984 215.122 194.168 214.258 194.168ZM214.378 192.68C214.954 192.68 215.482 192.592 215.962 192.416C216.442 192.224 216.858 191.968 217.21 191.648C217.562 191.312 217.834 190.92 218.026 190.472C218.218 190.008 218.314 189.504 218.314 188.96V188.312H215.338C214.106 188.312 213.226 188.528 212.698 188.96C212.186 189.392 211.93 189.968 211.93 190.688C211.93 191.296 212.122 191.784 212.506 192.152C212.906 192.504 213.53 192.68 214.378 192.68ZM225.843 183.44H221.835V182H231.435V183.44H227.427V194H225.843V183.44Z" fill="black"/>
<path d="M167.546 121.091C167.546 119.986 168.425 119.091 169.51 119.091H188.491C189.576 119.091 190.455 119.986 190.455 121.091V121.424C190.455 127.867 185.327 133.091 179 133.091C172.674 133.091 167.546 127.867 167.546 121.424V121.091Z" fill="#CAFFD6"/>
<path d="M199.364 151.068C199.364 161.26 190.247 164.909 179 164.909C167.754 164.909 158.637 161.26 158.637 151.068C158.637 140.876 167.754 128 179 128C190.247 128 199.364 140.876 199.364 151.068Z" fill="#CAFFD6"/>
<path d="M173.887 154.245H172.563C171.901 154.245 171.363 153.708 171.363 153.045C171.363 152.383 171.901 151.845 172.563 151.845H173.887V150.209H172.727C171.974 150.209 171.363 149.598 171.363 148.845C171.363 148.092 171.974 147.482 172.727 147.482H173.887V140.182C173.887 139.077 174.783 138.182 175.887 138.182H180.337C182.973 138.182 184.889 138.709 186.086 139.763C187.301 140.818 187.909 142.291 187.909 144.182C187.909 146.054 187.301 147.527 186.086 148.6C184.871 149.673 182.954 150.209 180.337 150.209H177.252V151.845H182.502C183.165 151.845 183.702 152.383 183.702 153.045C183.702 153.708 183.165 154.245 182.502 154.245H177.252V155.59C177.252 156.519 176.499 157.273 175.57 157.273C174.64 157.273 173.887 156.519 173.887 155.59V154.245ZM177.252 141.073V147.482H180.337C181.739 147.482 182.758 147.191 183.394 146.609C184.048 146.027 184.375 145.245 184.375 144.263C184.375 143.282 184.048 142.509 183.394 141.945C182.758 141.363 181.739 141.073 180.337 141.073H177.252Z" fill="#21EA4D"/>
</svg>
