<svg width="481" height="325" viewBox="0 0 481 325" fill="none" xmlns="http://www.w3.org/2000/svg">
<g clip-path="url(#clip0_170_227)">
<rect width="1440" height="8775" transform="translate(-197 -5417)" fill="white"/>
<circle cx="42" cy="103" r="9" fill="#C0C0C0"/>
<path d="M10.4647 121.2H15.7447C17.6647 121.2 19.0647 121.6 19.9447 122.4C20.8247 123.184 21.2647 124.272 21.2647 125.664C21.2647 126.496 21.0647 127.216 20.6647 127.824C20.2807 128.432 19.7207 128.904 18.9847 129.24V129.288C19.8967 129.608 20.5847 130.112 21.0487 130.8C21.5127 131.472 21.7447 132.304 21.7447 133.296C21.7447 134.816 21.3047 135.984 20.4247 136.8C19.5447 137.6 18.1447 138 16.2247 138H10.4647V121.2ZM12.1447 122.736V128.592H15.6247C17.0327 128.592 18.0327 128.336 18.6247 127.824C19.2327 127.296 19.5367 126.576 19.5367 125.664C19.5367 124.752 19.2327 124.04 18.6247 123.528C18.0327 123 17.0327 122.736 15.6247 122.736H12.1447ZM12.1447 130.128V136.464H16.1047C17.5127 136.464 18.5127 136.2 19.1047 135.672C19.7127 135.128 20.0167 134.336 20.0167 133.296C20.0167 132.256 19.7127 131.472 19.1047 130.944C18.5127 130.4 17.5127 130.128 16.1047 130.128H12.1447ZM25.2275 126H26.8115V136.2H26.8595L32.8595 126H35.0675V138H33.4835V127.8H33.4355L27.4355 138H25.2275V126ZM37.5894 136.56H38.9094C39.1654 136.16 39.3734 135.752 39.5334 135.336C39.7094 134.92 39.8454 134.448 39.9414 133.92C40.0534 133.392 40.1254 132.784 40.1574 132.096C40.2054 131.392 40.2294 130.56 40.2294 129.6V126H48.3894V136.56H49.9494V141.12H48.4134V138H39.1254V141.12H37.5894V136.56ZM46.8054 136.56V127.44H41.7654V129.6C41.7654 130.464 41.7494 131.224 41.7174 131.88C41.6854 132.536 41.6294 133.136 41.5494 133.68C41.4694 134.208 41.3574 134.704 41.2134 135.168C41.0694 135.616 40.8934 136.064 40.6854 136.512V136.56H46.8054ZM57.0191 138.168C56.2511 138.168 55.5471 138.04 54.9071 137.784C54.2671 137.528 53.7231 137.16 53.2751 136.68C52.8271 136.184 52.4751 135.584 52.2191 134.88C51.9791 134.16 51.8591 133.336 51.8591 132.408V131.592C51.8591 130.68 51.9791 129.864 52.2191 129.144C52.4751 128.424 52.8271 127.824 53.2751 127.344C53.7391 126.848 54.2831 126.472 54.9071 126.216C55.5471 125.96 56.2511 125.832 57.0191 125.832C57.7871 125.832 58.4911 125.96 59.1311 126.216C59.7711 126.472 60.3151 126.848 60.7631 127.344C61.2111 127.84 61.5551 128.456 61.7951 129.192C62.0511 129.912 62.1791 130.752 62.1791 131.712V132.432H53.4911C53.4911 133.824 53.7951 134.888 54.4031 135.624C55.0111 136.36 55.8831 136.728 57.0191 136.728C58.7311 136.728 59.8671 136.032 60.4271 134.64H62.0591C61.7711 135.792 61.1951 136.672 60.3311 137.28C59.4831 137.872 58.3791 138.168 57.0191 138.168ZM57.0191 127.272C55.9951 127.272 55.1711 127.6 54.5471 128.256C53.9231 128.896 53.5711 129.84 53.4911 131.088H60.5471C60.4671 129.792 60.1071 128.832 59.4671 128.208C58.8431 127.584 58.0271 127.272 57.0191 127.272ZM70.1 138.168C68.484 138.168 67.196 137.672 66.236 136.68C65.292 135.688 64.82 134.264 64.82 132.408V131.592C64.82 130.68 64.94 129.864 65.18 129.144C65.436 128.424 65.796 127.824 66.26 127.344C66.724 126.848 67.276 126.472 67.916 126.216C68.572 125.96 69.3 125.832 70.1 125.832C71.716 125.832 72.996 126.328 73.94 127.32C74.9 128.312 75.38 129.736 75.38 131.592V132.408C75.38 133.32 75.252 134.136 74.996 134.856C74.756 135.576 74.404 136.184 73.94 136.68C73.476 137.16 72.916 137.528 72.26 137.784C71.62 138.04 70.9 138.168 70.1 138.168ZM70.1 136.728C71.204 136.728 72.084 136.368 72.74 135.648C73.412 134.928 73.748 133.848 73.748 132.408V131.592C73.748 130.168 73.412 129.096 72.74 128.376C72.068 127.64 71.188 127.272 70.1 127.272C68.996 127.272 68.108 127.632 67.436 128.352C66.78 129.072 66.452 130.152 66.452 131.592V132.408C66.452 133.832 66.788 134.912 67.46 135.648C68.132 136.368 69.012 136.728 70.1 136.728Z" fill="black"/>
<path d="M43 103H242.5C251.337 103 258.5 110.163 258.5 119V192.5" stroke="#C0C0C0" stroke-width="2" stroke-dasharray="8 8"/>
<circle cx="42" cy="193" r="9" fill="#C0C0C0"/>
<path d="M12.818 228.168C11.81 228.168 10.89 227.992 10.058 227.64C9.22597 227.288 8.50597 226.776 7.89797 226.104C7.28997 225.416 6.81797 224.576 6.48197 223.584C6.14597 222.576 5.97797 221.424 5.97797 220.128V218.832C5.97797 217.6 6.14597 216.504 6.48197 215.544C6.81797 214.568 7.28997 213.752 7.89797 213.096C8.50597 212.424 9.22597 211.912 10.058 211.56C10.906 211.208 11.826 211.032 12.818 211.032C13.73 211.032 14.546 211.168 15.266 211.44C16.002 211.696 16.642 212.048 17.186 212.496C17.73 212.944 18.162 213.472 18.482 214.08C18.818 214.672 19.05 215.312 19.178 216H17.402C17.274 215.52 17.082 215.072 16.826 214.656C16.586 214.24 16.274 213.88 15.89 213.576C15.506 213.256 15.058 213.008 14.546 212.832C14.034 212.656 13.458 212.568 12.818 212.568C12.082 212.568 11.402 212.704 10.778 212.976C10.154 213.248 9.60997 213.648 9.14597 214.176C8.69797 214.704 8.34597 215.36 8.08997 216.144C7.83397 216.912 7.70597 217.808 7.70597 218.832V220.128C7.70597 221.2 7.83397 222.144 8.08997 222.96C8.36197 223.776 8.72197 224.456 9.16997 225C9.63397 225.544 10.178 225.952 10.802 226.224C11.426 226.496 12.098 226.632 12.818 226.632C14.114 226.632 15.138 226.288 15.89 225.6C16.658 224.912 17.162 224.032 17.402 222.96H19.178C19.05 223.712 18.818 224.408 18.482 225.048C18.162 225.672 17.73 226.216 17.186 226.68C16.642 227.144 16.002 227.512 15.266 227.784C14.546 228.04 13.73 228.168 12.818 228.168ZM25.2185 217.44H21.2105V216H30.8105V217.44H26.8025V228H25.2185V217.44ZM36.2264 228.168C34.8984 228.168 33.9064 227.864 33.2504 227.256C32.5944 226.632 32.2664 225.776 32.2664 224.688C32.2664 223.552 32.6584 222.648 33.4424 221.976C34.2264 221.304 35.4744 220.968 37.1864 220.968H40.2824V220.08C40.2824 219.12 40.0504 218.424 39.5864 217.992C39.1224 217.544 38.3624 217.32 37.3064 217.32C36.3304 217.32 35.6104 217.488 35.1464 217.824C34.6984 218.16 34.4424 218.592 34.3784 219.12H32.7464C32.7784 218.688 32.8984 218.272 33.1064 217.872C33.3144 217.472 33.6024 217.12 33.9704 216.816C34.3544 216.512 34.8264 216.272 35.3864 216.096C35.9464 215.92 36.5864 215.832 37.3064 215.832C38.8584 215.832 40.0024 216.192 40.7384 216.912C41.4904 217.616 41.8664 218.672 41.8664 220.08V228H40.6184L40.4264 225.96H40.3784C39.8984 226.68 39.2984 227.232 38.5784 227.616C37.8744 227.984 37.0904 228.168 36.2264 228.168ZM36.3464 226.68C36.9224 226.68 37.4504 226.592 37.9304 226.416C38.4104 226.224 38.8264 225.968 39.1784 225.648C39.5304 225.312 39.8024 224.92 39.9944 224.472C40.1864 224.008 40.2824 223.504 40.2824 222.96V222.312H37.3064C36.0744 222.312 35.1944 222.528 34.6664 222.96C34.1544 223.392 33.8984 223.968 33.8984 224.688C33.8984 225.296 34.0904 225.784 34.4744 226.152C34.8744 226.504 35.4984 226.68 36.3464 226.68ZM47.8122 217.44H43.8042V216H53.4042V217.44H49.3962V228H47.8122V217.44ZM55.9345 216H57.5185V220.32H60.2545C61.8065 220.32 62.9505 220.664 63.6865 221.352C64.4385 222.04 64.8145 222.976 64.8145 224.16C64.8145 225.328 64.4385 226.264 63.6865 226.968C62.9345 227.656 61.7905 228 60.2545 228H55.9345V216ZM57.5185 221.76V226.56H60.1345C61.2385 226.56 62.0225 226.352 62.4865 225.936C62.9505 225.52 63.1825 224.928 63.1825 224.16C63.1825 223.392 62.9425 222.8 62.4625 222.384C61.9985 221.968 61.2225 221.76 60.1345 221.76H57.5185ZM67.7002 216H69.2842V226.2H69.3322L75.3322 216H77.5402V228H75.9562V217.8H75.9082L69.9082 228H67.7002V216Z" fill="black"/>
<path d="M44.5 192.5H260.5" stroke="#C0C0C0" stroke-width="2" stroke-dasharray="8 8"/>
<path d="M263 194H266.958V192H263V194ZM274.875 194H282.792V192H274.875V194ZM290.708 194H298.625V192H290.708V194ZM306.542 194H314.458V192H306.542V194ZM322.375 194H330.292V192H322.375V194ZM338.208 194H346.125V192H338.208V194ZM354.042 194H358V192H354.042V194Z" fill="#C0C0C0"/>
<circle cx="411" cy="87" r="9" fill="#FF4B53"/>
<path d="M344.262 105.2H345.942V112.592H355.302V105.2H356.982V122H355.302V114.128H345.942V122H344.262V105.2ZM365.621 122.168C364.853 122.168 364.149 122.04 363.509 121.784C362.869 121.528 362.325 121.16 361.877 120.68C361.429 120.184 361.077 119.584 360.821 118.88C360.581 118.16 360.461 117.336 360.461 116.408V115.592C360.461 114.68 360.581 113.864 360.821 113.144C361.077 112.424 361.429 111.824 361.877 111.344C362.341 110.848 362.885 110.472 363.509 110.216C364.149 109.96 364.853 109.832 365.621 109.832C366.389 109.832 367.093 109.96 367.733 110.216C368.373 110.472 368.917 110.848 369.365 111.344C369.813 111.84 370.157 112.456 370.397 113.192C370.653 113.912 370.781 114.752 370.781 115.712V116.432H362.093C362.093 117.824 362.397 118.888 363.005 119.624C363.613 120.36 364.485 120.728 365.621 120.728C367.333 120.728 368.469 120.032 369.029 118.64H370.661C370.373 119.792 369.797 120.672 368.933 121.28C368.085 121.872 366.981 122.168 365.621 122.168ZM365.621 111.272C364.597 111.272 363.773 111.6 363.149 112.256C362.525 112.896 362.173 113.84 362.093 115.088H369.149C369.069 113.792 368.709 112.832 368.069 112.208C367.445 111.584 366.629 111.272 365.621 111.272ZM384.702 122.168C383.086 122.168 381.798 121.672 380.838 120.68C379.894 119.688 379.422 118.264 379.422 116.408V115.592C379.422 114.68 379.542 113.864 379.782 113.144C380.038 112.424 380.398 111.824 380.862 111.344C381.326 110.848 381.878 110.472 382.518 110.216C383.174 109.96 383.902 109.832 384.702 109.832C386.318 109.832 387.598 110.328 388.542 111.32C389.502 112.312 389.982 113.736 389.982 115.592V116.408C389.982 117.32 389.854 118.136 389.598 118.856C389.358 119.576 389.006 120.184 388.542 120.68C388.078 121.16 387.518 121.528 386.862 121.784C386.222 122.04 385.502 122.168 384.702 122.168ZM384.702 120.728C385.806 120.728 386.686 120.368 387.342 119.648C388.014 118.928 388.35 117.848 388.35 116.408V115.592C388.35 114.168 388.014 113.096 387.342 112.376C386.67 111.64 385.79 111.272 384.702 111.272C383.598 111.272 382.71 111.632 382.038 112.352C381.382 113.072 381.054 114.152 381.054 115.592V116.408C381.054 117.832 381.39 118.912 382.062 119.648C382.734 120.368 383.614 120.728 384.702 120.728ZM393.337 110H394.921V115.04H397.081L400.585 110H402.457L398.353 115.712L402.937 122H401.017L397.081 116.48H394.921V122H393.337V110ZM409.382 122L404.366 110H406.094L410.198 120.032H410.246L414.014 110H415.646L409.166 126.8H407.534L409.382 122ZM418.274 110H427.634V122H426.05V111.44H419.858V122H418.274V110ZM431.704 110H433.288V120.2H433.336L439.336 110H441.544V122H439.96V111.8H439.912L433.912 122H431.704V110ZM444.066 120.728H444.426C444.922 120.728 445.306 120.56 445.578 120.224C445.85 119.888 446.05 119.4 446.178 118.76C446.322 118.12 446.402 117.344 446.418 116.432C446.45 115.52 446.466 114.496 446.466 113.36V110H454.626V122H453.042V111.44H448.05V113.36C448.05 114.656 448.026 115.84 447.978 116.912C447.946 117.984 447.81 118.912 447.57 119.696C447.346 120.48 446.986 121.088 446.49 121.52C446.01 121.952 445.322 122.168 444.426 122.168H444.066V120.728ZM463.024 122.168C462.272 122.168 461.584 122.048 460.96 121.808C460.336 121.552 459.8 121.176 459.352 120.68C458.92 120.184 458.584 119.568 458.344 118.832C458.104 118.096 457.984 117.248 457.984 116.288V115.472C457.984 114.576 458.104 113.784 458.344 113.096C458.6 112.392 458.944 111.8 459.376 111.32C459.824 110.84 460.352 110.472 460.96 110.216C461.584 109.96 462.272 109.832 463.024 109.832C463.728 109.832 464.36 109.928 464.92 110.12C465.48 110.296 465.96 110.552 466.36 110.888C466.76 111.208 467.08 111.584 467.32 112.016C467.56 112.432 467.728 112.88 467.824 113.36H466.192C466.016 112.768 465.688 112.272 465.208 111.872C464.728 111.472 464.04 111.272 463.144 111.272C462.12 111.272 461.272 111.632 460.6 112.352C459.944 113.072 459.616 114.112 459.616 115.472V116.288C459.616 117.76 459.952 118.872 460.624 119.624C461.296 120.36 462.136 120.728 463.144 120.728C464.04 120.728 464.728 120.52 465.208 120.104C465.688 119.688 466.016 119.12 466.192 118.4H467.824C467.728 118.944 467.56 119.448 467.32 119.912C467.08 120.36 466.76 120.752 466.36 121.088C465.96 121.424 465.48 121.688 464.92 121.88C464.36 122.072 463.728 122.168 463.024 122.168ZM472.549 117.2C471.733 116.928 471.141 116.504 470.773 115.928C470.405 115.352 470.221 114.632 470.221 113.768C470.221 112.568 470.589 111.64 471.325 110.984C472.077 110.328 473.309 110 475.021 110H478.861V122H477.277V117.536H475.021C474.861 117.536 474.701 117.536 474.541 117.536C474.397 117.536 474.253 117.528 474.109 117.512L471.565 122H469.741L472.549 117.2ZM471.853 113.768C471.853 114.52 472.093 115.096 472.573 115.496C473.053 115.896 473.909 116.096 475.141 116.096H477.277V111.44H475.141C473.909 111.44 473.053 111.64 472.573 112.04C472.093 112.44 471.853 113.016 471.853 113.768Z" fill="black"/>
<path d="M236 8.0002L235.98 8.99999L236 8.0002ZM58.0503 77.8133C58.2232 78.3378 58.7886 78.6228 59.3131 78.4499L67.8606 75.6321C68.3851 75.4591 68.6701 74.8938 68.4972 74.3692C68.3243 73.8447 67.7589 73.5597 67.2344 73.7326L59.6366 76.2374L57.1319 68.6396C56.9589 68.1151 56.3936 67.8301 55.869 68.003C55.3445 68.1759 55.0595 68.7413 55.2324 69.2658L58.0503 77.8133ZM59.8929 77.9504C60.4334 76.8782 61.0917 75.7083 61.8733 74.4545L60.1761 73.3965C59.3662 74.6957 58.6776 75.9182 58.1071 77.05L59.8929 77.9504ZM66.6083 67.8341C68.1801 65.8732 69.9792 63.8093 72.0164 61.675L70.5696 60.2941C68.494 62.4686 66.6569 64.5758 65.0477 66.5832L66.6083 67.8341ZM77.8898 55.9581C79.8165 54.21 81.8948 52.4363 84.1297 50.6527L82.8822 49.0895C80.6145 50.8992 78.504 52.7003 76.5459 54.477L77.8898 55.9581ZM90.6907 45.7237C92.8535 44.1931 95.1345 42.6657 97.5369 41.1513L96.4704 39.4594C94.0379 40.9927 91.7272 42.5399 89.5353 44.0912L90.6907 45.7237ZM104.579 36.9557C106.902 35.6482 109.322 34.358 111.84 33.0918L110.942 31.3049C108.395 32.5851 105.948 33.89 103.598 35.2129L104.579 36.9557ZM119.285 29.5557C121.721 28.4635 124.239 27.3958 126.84 26.3575L126.099 24.5C123.472 25.5485 120.928 26.6271 118.466 27.7307L119.285 29.5557ZM134.535 23.4638C137.066 22.5683 139.668 21.7014 142.344 20.8669L141.748 18.9576C139.049 19.7996 136.422 20.6744 133.867 21.5783L134.535 23.4638ZM150.247 18.5574C152.843 17.8483 155.503 17.1698 158.227 16.525L157.766 14.5788C155.02 15.2289 152.339 15.9129 149.72 16.628L150.247 18.5574ZM166.269 14.7588C168.911 14.2229 171.609 13.7184 174.363 13.2476L174.026 11.2762C171.252 11.7504 168.534 12.2587 165.872 12.7987L166.269 14.7588ZM182.499 11.9804C185.173 11.6038 187.896 11.2585 190.67 10.9465L190.447 8.95905C187.654 9.27311 184.912 9.62073 182.22 10L182.499 11.9804ZM198.872 10.1355C201.571 9.90474 204.314 9.70496 207.103 9.53779L206.983 7.54137C204.177 7.70955 201.417 7.91056 198.702 8.1428L198.872 10.1355ZM215.36 9.14435C218.061 9.0483 220.803 8.98233 223.586 8.94776L223.561 6.94792C220.763 6.98267 218.006 7.04901 215.289 7.14561L215.36 9.14435ZM231.81 8.93708C233.19 8.95041 234.58 8.97133 235.98 8.99999L236.02 7.00041C234.614 6.9716 233.217 6.95057 231.829 6.93717L231.81 8.93708ZM235.98 8.99999C237.388 9.02882 238.786 9.06497 240.174 9.10828L240.237 7.10926C238.841 7.06572 237.436 7.02939 236.02 7.00041L235.98 8.99999ZM248.447 9.45616C251.244 9.60456 253.998 9.78248 256.711 9.98863L256.863 7.99438C254.134 7.78707 251.365 7.60817 248.553 7.45897L248.447 9.45616ZM265.001 10.7177C267.799 10.9978 270.55 11.3084 273.256 11.6479L273.505 9.66341C270.783 9.32185 268.015 9.0094 265.2 8.72762L265.001 10.7177ZM281.476 12.7875C284.254 13.2101 286.98 13.6634 289.657 14.1457L290.011 12.1774C287.317 11.6919 284.572 11.2355 281.777 10.8103L281.476 12.7875ZM297.794 15.7318C300.546 16.3096 303.241 16.9183 305.88 17.5556L306.35 15.6115C303.691 14.9694 300.976 14.3563 298.204 13.7745L297.794 15.7318ZM313.907 19.627C316.623 20.3739 319.275 21.1512 321.863 21.956L322.457 20.0461C319.847 19.2348 317.174 18.4513 314.437 17.6986L313.907 19.627ZM329.735 24.5521C332.398 25.4821 334.988 26.4407 337.506 27.4245L338.234 25.5615C335.693 24.5689 333.08 23.6019 330.395 22.664L329.735 24.5521ZM345.156 30.5809C347.741 31.7061 350.243 32.8567 352.663 34.0279L353.534 32.2276C351.09 31.0447 348.564 29.883 345.954 28.7471L345.156 30.5809ZM360.057 37.801C362.556 39.1446 364.957 40.5076 367.261 41.8834L368.287 40.1662C365.957 38.775 363.53 37.3973 361.004 36.0394L360.057 37.801ZM374.248 46.2812C376.63 47.8623 378.892 49.4511 381.036 51.0381L382.226 49.4305C380.054 47.8231 377.764 46.2147 375.353 44.6148L374.248 46.2812ZM387.542 56.1328C389.758 57.9712 391.819 59.7934 393.73 61.5844L395.097 60.1254C393.157 58.3064 391.066 56.4574 388.819 54.5934L387.542 56.1328ZM399.557 67.4291C401.581 69.6085 403.368 71.7089 404.928 73.6987L406.502 72.4647C404.906 70.4294 403.083 68.2867 401.022 66.068L399.557 67.4291ZM409.635 80.4094C410.414 81.6814 411.068 82.8643 411.604 83.9444L413.396 83.0559C412.831 81.9165 412.147 80.6813 411.34 79.3645L409.635 80.4094Z" fill="#FF4B53"/>
<circle cx="42" cy="283" r="9" fill="#C0C0C0"/>
<path d="M1.02188 316.632H1.26188C1.96588 316.632 2.50988 316.416 2.89388 315.984C3.29388 315.552 3.58188 314.96 3.75788 314.208C3.94988 313.44 4.06188 312.544 4.09388 311.52C4.12588 310.48 4.14188 309.36 4.14188 308.16V301.2H14.7019V318H13.0219V302.736H5.82188V308.16C5.82188 309.488 5.78988 310.752 5.72588 311.952C5.67788 313.152 5.50988 314.216 5.22188 315.144C4.93388 316.072 4.47788 316.808 3.85388 317.352C3.24588 317.896 2.38188 318.168 1.26188 318.168H1.02188V316.632ZM23.3316 318.168C22.5636 318.168 21.8596 318.04 21.2196 317.784C20.5796 317.528 20.0356 317.16 19.5876 316.68C19.1396 316.184 18.7876 315.584 18.5316 314.88C18.2916 314.16 18.1716 313.336 18.1716 312.408V311.592C18.1716 310.68 18.2916 309.864 18.5316 309.144C18.7876 308.424 19.1396 307.824 19.5876 307.344C20.0516 306.848 20.5956 306.472 21.2196 306.216C21.8596 305.96 22.5636 305.832 23.3316 305.832C24.0996 305.832 24.8036 305.96 25.4436 306.216C26.0836 306.472 26.6276 306.848 27.0756 307.344C27.5236 307.84 27.8676 308.456 28.1076 309.192C28.3636 309.912 28.4916 310.752 28.4916 311.712V312.432H19.8036C19.8036 313.824 20.1076 314.888 20.7156 315.624C21.3236 316.36 22.1956 316.728 23.3316 316.728C25.0436 316.728 26.1796 316.032 26.7396 314.64H28.3716C28.0836 315.792 27.5076 316.672 26.6436 317.28C25.7956 317.872 24.6916 318.168 23.3316 318.168ZM23.3316 307.272C22.3076 307.272 21.4836 307.6 20.8596 308.256C20.2356 308.896 19.8836 309.84 19.8036 311.088H26.8596C26.7796 309.792 26.4196 308.832 25.7796 308.208C25.1556 307.584 24.3396 307.272 23.3316 307.272ZM31.8525 306H33.4365V311.04H35.5965L39.1005 306H40.9725L36.8685 311.712L41.4525 318H39.5325L35.5965 312.48H33.4365V318H31.8525V306ZM53.5429 318H44.0869V306H45.6709V316.56H51.7429V306H53.3269V316.56H55.1269V321.12H53.5429V318ZM57.7744 306H59.3584V316.2H59.4064L65.4064 306H67.6144V318H66.0304V307.8H65.9824L59.9824 318H57.7744V306ZM71.6963 306H73.2803V316.2H73.3283L79.3283 306H81.5363V318H79.9523V307.8H79.9043L73.9043 318H71.6963V306Z" fill="black"/>
<path d="M42.5 283.5H242.5C251.06 283.5 258 276.56 258 268V268" stroke="#C0C0C0" stroke-width="2" stroke-dasharray="8 8"/>
<circle cx="259" cy="193" r="9" fill="#C0C0C0"/>
<path d="M168.681 228.168C167.673 228.168 166.753 227.992 165.921 227.64C165.089 227.288 164.369 226.776 163.761 226.104C163.153 225.416 162.681 224.576 162.345 223.584C162.009 222.576 161.841 221.424 161.841 220.128V218.832C161.841 217.6 162.009 216.504 162.345 215.544C162.681 214.568 163.153 213.752 163.761 213.096C164.369 212.424 165.089 211.912 165.921 211.56C166.769 211.208 167.689 211.032 168.681 211.032C169.593 211.032 170.409 211.168 171.129 211.44C171.865 211.696 172.505 212.048 173.049 212.496C173.593 212.944 174.025 213.472 174.345 214.08C174.681 214.672 174.913 215.312 175.041 216H173.265C173.137 215.52 172.945 215.072 172.689 214.656C172.449 214.24 172.137 213.88 171.753 213.576C171.369 213.256 170.921 213.008 170.409 212.832C169.897 212.656 169.321 212.568 168.681 212.568C167.945 212.568 167.265 212.704 166.641 212.976C166.017 213.248 165.473 213.648 165.009 214.176C164.561 214.704 164.209 215.36 163.953 216.144C163.697 216.912 163.569 217.808 163.569 218.832V220.128C163.569 221.2 163.697 222.144 163.953 222.96C164.225 223.776 164.585 224.456 165.033 225C165.497 225.544 166.041 225.952 166.665 226.224C167.289 226.496 167.961 226.632 168.681 226.632C169.977 226.632 171.001 226.288 171.753 225.6C172.521 224.912 173.025 224.032 173.265 222.96H175.041C174.913 223.712 174.681 224.408 174.345 225.048C174.025 225.672 173.593 226.216 173.049 226.68C172.505 227.144 171.865 227.512 171.129 227.784C170.409 228.04 169.593 228.168 168.681 228.168ZM181.519 228.168C180.191 228.168 179.199 227.864 178.543 227.256C177.887 226.632 177.559 225.776 177.559 224.688C177.559 223.552 177.951 222.648 178.735 221.976C179.519 221.304 180.767 220.968 182.479 220.968H185.575V220.08C185.575 219.12 185.343 218.424 184.879 217.992C184.415 217.544 183.655 217.32 182.599 217.32C181.623 217.32 180.903 217.488 180.439 217.824C179.991 218.16 179.735 218.592 179.671 219.12H178.039C178.071 218.688 178.191 218.272 178.399 217.872C178.607 217.472 178.895 217.12 179.263 216.816C179.647 216.512 180.119 216.272 180.679 216.096C181.239 215.92 181.879 215.832 182.599 215.832C184.151 215.832 185.295 216.192 186.031 216.912C186.783 217.616 187.159 218.672 187.159 220.08V228H185.911L185.719 225.96H185.671C185.191 226.68 184.591 227.232 183.871 227.616C183.167 227.984 182.383 228.168 181.519 228.168ZM181.639 226.68C182.215 226.68 182.743 226.592 183.223 226.416C183.703 226.224 184.119 225.968 184.471 225.648C184.823 225.312 185.095 224.92 185.287 224.472C185.479 224.008 185.575 223.504 185.575 222.96V222.312H182.599C181.367 222.312 180.487 222.528 179.959 222.96C179.447 223.392 179.191 223.968 179.191 224.688C179.191 225.296 179.383 225.784 179.767 226.152C180.167 226.504 180.791 226.68 181.639 226.68ZM191.126 216H193.43L197.27 223.392H197.318L201.158 216H203.366V228H201.782V218.04H201.734L198.038 225.12H196.454L192.758 218.04H192.71V228H191.126V216ZM211.998 228.168C210.382 228.168 209.094 227.672 208.134 226.68C207.19 225.688 206.718 224.264 206.718 222.408V221.592C206.718 220.68 206.838 219.864 207.078 219.144C207.334 218.424 207.694 217.824 208.158 217.344C208.622 216.848 209.174 216.472 209.814 216.216C210.47 215.96 211.198 215.832 211.998 215.832C213.614 215.832 214.894 216.328 215.838 217.32C216.798 218.312 217.278 219.736 217.278 221.592V222.408C217.278 223.32 217.15 224.136 216.894 224.856C216.654 225.576 216.302 226.184 215.838 226.68C215.374 227.16 214.814 227.528 214.158 227.784C213.518 228.04 212.798 228.168 211.998 228.168ZM211.998 226.728C213.102 226.728 213.982 226.368 214.638 225.648C215.31 224.928 215.646 223.848 215.646 222.408V221.592C215.646 220.168 215.31 219.096 214.638 218.376C213.966 217.64 213.086 217.272 211.998 217.272C210.894 217.272 210.006 217.632 209.334 218.352C208.678 219.072 208.35 220.152 208.35 221.592V222.408C208.35 223.832 208.686 224.912 209.358 225.648C210.03 226.368 210.91 226.728 211.998 226.728ZM224.954 228.168C224.202 228.168 223.514 228.048 222.89 227.808C222.266 227.552 221.73 227.176 221.282 226.68C220.85 226.184 220.514 225.568 220.274 224.832C220.034 224.096 219.914 223.248 219.914 222.288V221.472C219.914 220.576 220.034 219.784 220.274 219.096C220.53 218.392 220.874 217.8 221.306 217.32C221.754 216.84 222.282 216.472 222.89 216.216C223.514 215.96 224.202 215.832 224.954 215.832C225.658 215.832 226.29 215.928 226.85 216.12C227.41 216.296 227.89 216.552 228.29 216.888C228.69 217.208 229.01 217.584 229.25 218.016C229.49 218.432 229.658 218.88 229.754 219.36H228.122C227.946 218.768 227.618 218.272 227.138 217.872C226.658 217.472 225.97 217.272 225.074 217.272C224.05 217.272 223.202 217.632 222.53 218.352C221.874 219.072 221.546 220.112 221.546 221.472V222.288C221.546 223.76 221.882 224.872 222.554 225.624C223.226 226.36 224.066 226.728 225.074 226.728C225.97 226.728 226.658 226.52 227.138 226.104C227.618 225.688 227.946 225.12 228.122 224.4H229.754C229.658 224.944 229.49 225.448 229.25 225.912C229.01 226.36 228.69 226.752 228.29 227.088C227.89 227.424 227.41 227.688 226.85 227.88C226.29 228.072 225.658 228.168 224.954 228.168ZM235.199 217.44H231.191V216H240.791V217.44H236.783V228H235.199V217.44ZM247.413 228.168C245.797 228.168 244.509 227.672 243.549 226.68C242.605 225.688 242.133 224.264 242.133 222.408V221.592C242.133 220.68 242.253 219.864 242.493 219.144C242.749 218.424 243.109 217.824 243.573 217.344C244.037 216.848 244.589 216.472 245.229 216.216C245.885 215.96 246.613 215.832 247.413 215.832C249.029 215.832 250.309 216.328 251.253 217.32C252.213 218.312 252.693 219.736 252.693 221.592V222.408C252.693 223.32 252.565 224.136 252.309 224.856C252.069 225.576 251.717 226.184 251.253 226.68C250.789 227.16 250.229 227.528 249.573 227.784C248.933 228.04 248.213 228.168 247.413 228.168ZM247.413 226.728C248.517 226.728 249.397 226.368 250.053 225.648C250.725 224.928 251.061 223.848 251.061 222.408V221.592C251.061 220.168 250.725 219.096 250.053 218.376C249.381 217.64 248.501 217.272 247.413 217.272C246.309 217.272 245.421 217.632 244.749 218.352C244.093 219.072 243.765 220.152 243.765 221.592V222.408C243.765 223.832 244.101 224.912 244.773 225.648C245.445 226.368 246.325 226.728 247.413 226.728ZM257.776 223.2C256.96 222.928 256.368 222.504 256 221.928C255.632 221.352 255.448 220.632 255.448 219.768C255.448 218.568 255.816 217.64 256.552 216.984C257.304 216.328 258.536 216 260.248 216H264.088V228H262.504V223.536H260.248C260.088 223.536 259.928 223.536 259.768 223.536C259.624 223.536 259.48 223.528 259.336 223.512L256.792 228H254.968L257.776 223.2ZM257.08 219.768C257.08 220.52 257.32 221.096 257.8 221.496C258.28 221.896 259.136 222.096 260.368 222.096H262.504V217.44H260.368C259.136 217.44 258.28 217.64 257.8 218.04C257.32 218.44 257.08 219.016 257.08 219.768ZM270.613 217.44H266.605V216H276.205V217.44H272.197V228H270.613V217.44ZM282.707 228.168C281.939 228.168 281.235 228.04 280.595 227.784C279.955 227.528 279.411 227.16 278.963 226.68C278.515 226.184 278.163 225.584 277.907 224.88C277.667 224.16 277.547 223.336 277.547 222.408V221.592C277.547 220.68 277.667 219.864 277.907 219.144C278.163 218.424 278.515 217.824 278.963 217.344C279.427 216.848 279.971 216.472 280.595 216.216C281.235 215.96 281.939 215.832 282.707 215.832C283.475 215.832 284.179 215.96 284.819 216.216C285.459 216.472 286.003 216.848 286.451 217.344C286.899 217.84 287.243 218.456 287.483 219.192C287.739 219.912 287.867 220.752 287.867 221.712V222.432H279.179C279.179 223.824 279.483 224.888 280.091 225.624C280.699 226.36 281.571 226.728 282.707 226.728C284.419 226.728 285.555 226.032 286.115 224.64H287.747C287.459 225.792 286.883 226.672 286.019 227.28C285.171 227.872 284.067 228.168 282.707 228.168ZM282.707 217.272C281.683 217.272 280.859 217.6 280.235 218.256C279.611 218.896 279.259 219.84 279.179 221.088H286.235C286.155 219.792 285.795 218.832 285.155 218.208C284.531 217.584 283.715 217.272 282.707 217.272ZM289.433 226.728H289.793C290.289 226.728 290.673 226.56 290.945 226.224C291.217 225.888 291.417 225.4 291.545 224.76C291.689 224.12 291.769 223.344 291.785 222.432C291.817 221.52 291.833 220.496 291.833 219.36V216H299.993V228H298.409V217.44H293.417V219.36C293.417 220.656 293.393 221.84 293.345 222.912C293.313 223.984 293.177 224.912 292.937 225.696C292.713 226.48 292.353 227.088 291.857 227.52C291.377 227.952 290.689 228.168 289.793 228.168H289.433V226.728ZM304.071 216H305.655V220.32H308.391C309.943 220.32 311.087 220.664 311.823 221.352C312.575 222.04 312.951 222.976 312.951 224.16C312.951 225.328 312.575 226.264 311.823 226.968C311.071 227.656 309.927 228 308.391 228H304.071V216ZM305.655 221.76V226.56H308.271C309.375 226.56 310.159 226.352 310.623 225.936C311.087 225.52 311.319 224.928 311.319 224.16C311.319 223.392 311.079 222.8 310.599 222.384C310.135 221.968 309.359 221.76 308.271 221.76H305.655ZM315.837 216H317.421V221.16H324.093V216H325.677V228H324.093V222.6H317.421V228H315.837V216ZM341.135 216H342.719V228H341.135V216ZM329.759 216H331.343V220.32H334.079C335.631 220.32 336.775 220.664 337.511 221.352C338.263 222.04 338.639 222.976 338.639 224.16C338.639 225.328 338.263 226.264 337.511 226.968C336.759 227.656 335.615 228 334.079 228H329.759V216ZM331.343 221.76V226.56H333.959C335.063 226.56 335.847 226.352 336.311 225.936C336.775 225.52 337.007 224.928 337.007 224.16C337.007 223.392 336.767 222.8 336.287 222.384C335.823 221.968 335.047 221.76 333.959 221.76H331.343ZM351.238 228.168C350.47 228.168 349.766 228.04 349.126 227.784C348.486 227.528 347.942 227.16 347.494 226.68C347.046 226.184 346.694 225.584 346.438 224.88C346.198 224.16 346.078 223.336 346.078 222.408V221.592C346.078 220.68 346.198 219.864 346.438 219.144C346.694 218.424 347.046 217.824 347.494 217.344C347.958 216.848 348.502 216.472 349.126 216.216C349.766 215.96 350.47 215.832 351.238 215.832C352.006 215.832 352.71 215.96 353.35 216.216C353.99 216.472 354.534 216.848 354.982 217.344C355.43 217.84 355.774 218.456 356.014 219.192C356.27 219.912 356.398 220.752 356.398 221.712V222.432H347.71C347.71 223.824 348.014 224.888 348.622 225.624C349.23 226.36 350.102 226.728 351.238 226.728C352.95 226.728 354.086 226.032 354.646 224.64H356.278C355.99 225.792 355.414 226.672 354.55 227.28C353.702 227.872 352.598 228.168 351.238 228.168ZM351.238 217.272C350.214 217.272 349.39 217.6 348.766 218.256C348.142 218.896 347.79 219.84 347.71 221.088H354.766C354.686 219.792 354.326 218.832 353.686 218.208C353.062 217.584 352.246 217.272 351.238 217.272ZM212.325 247H221.685V259H220.101V248.44H213.909V259H212.325V247ZM225.755 247H227.003L227.195 248.8H227.243C227.771 248.112 228.355 247.616 228.995 247.312C229.635 246.992 230.387 246.832 231.251 246.832C231.955 246.832 232.603 246.96 233.195 247.216C233.787 247.456 234.291 247.824 234.707 248.32C235.139 248.8 235.475 249.4 235.715 250.12C235.955 250.84 236.075 251.664 236.075 252.592V253.408C236.075 254.336 235.955 255.16 235.715 255.88C235.475 256.584 235.139 257.184 234.707 257.68C234.275 258.16 233.763 258.528 233.171 258.784C232.579 259.04 231.939 259.168 231.251 259.168C229.523 259.168 228.235 258.552 227.387 257.32H227.339V263.8H225.755V247ZM230.891 257.728C231.947 257.728 232.803 257.376 233.459 256.672C234.115 255.952 234.443 254.864 234.443 253.408V252.592C234.443 251.168 234.107 250.096 233.435 249.376C232.779 248.64 231.931 248.272 230.891 248.272C229.835 248.272 228.979 248.632 228.323 249.352C227.667 250.056 227.339 251.136 227.339 252.592V253.408C227.339 254.832 227.667 255.912 228.323 256.648C228.995 257.368 229.851 257.728 230.891 257.728ZM244.002 259.168C242.386 259.168 241.098 258.672 240.138 257.68C239.194 256.688 238.722 255.264 238.722 253.408V252.592C238.722 251.68 238.842 250.864 239.082 250.144C239.338 249.424 239.698 248.824 240.162 248.344C240.626 247.848 241.178 247.472 241.818 247.216C242.474 246.96 243.202 246.832 244.002 246.832C245.618 246.832 246.898 247.328 247.842 248.32C248.802 249.312 249.282 250.736 249.282 252.592V253.408C249.282 254.32 249.154 255.136 248.898 255.856C248.658 256.576 248.306 257.184 247.842 257.68C247.378 258.16 246.818 258.528 246.162 258.784C245.522 259.04 244.802 259.168 244.002 259.168ZM244.002 257.728C245.106 257.728 245.986 257.368 246.642 256.648C247.314 255.928 247.65 254.848 247.65 253.408V252.592C247.65 251.168 247.314 250.096 246.642 249.376C245.97 248.64 245.09 248.272 244.002 248.272C242.898 248.272 242.01 248.632 241.338 249.352C240.682 250.072 240.354 251.152 240.354 252.592V253.408C240.354 254.832 240.69 255.912 241.362 256.648C242.034 257.368 242.914 257.728 244.002 257.728ZM250.843 257.56H252.163C252.419 257.16 252.627 256.752 252.787 256.336C252.963 255.92 253.099 255.448 253.195 254.92C253.307 254.392 253.379 253.784 253.411 253.096C253.459 252.392 253.483 251.56 253.483 250.6V247H261.643V257.56H263.203V262.12H261.667V259H252.379V262.12H250.843V257.56ZM260.059 257.56V248.44H255.019V250.6C255.019 251.464 255.003 252.224 254.971 252.88C254.939 253.536 254.883 254.136 254.803 254.68C254.723 255.208 254.611 255.704 254.467 256.168C254.323 256.616 254.147 257.064 253.939 257.512V257.56H260.059ZM269.187 259.168C267.859 259.168 266.867 258.864 266.211 258.256C265.555 257.632 265.227 256.776 265.227 255.688C265.227 254.552 265.619 253.648 266.403 252.976C267.187 252.304 268.435 251.968 270.147 251.968H273.243V251.08C273.243 250.12 273.011 249.424 272.547 248.992C272.083 248.544 271.323 248.32 270.267 248.32C269.291 248.32 268.571 248.488 268.107 248.824C267.659 249.16 267.403 249.592 267.339 250.12H265.707C265.739 249.688 265.859 249.272 266.067 248.872C266.275 248.472 266.563 248.12 266.931 247.816C267.315 247.512 267.787 247.272 268.347 247.096C268.907 246.92 269.547 246.832 270.267 246.832C271.819 246.832 272.963 247.192 273.699 247.912C274.451 248.616 274.827 249.672 274.827 251.08V259H273.579L273.387 256.96H273.339C272.859 257.68 272.259 258.232 271.539 258.616C270.835 258.984 270.051 259.168 269.187 259.168ZM269.307 257.68C269.883 257.68 270.411 257.592 270.891 257.416C271.371 257.224 271.787 256.968 272.139 256.648C272.491 256.312 272.763 255.92 272.955 255.472C273.147 255.008 273.243 254.504 273.243 253.96V253.312H270.267C269.035 253.312 268.155 253.528 267.627 253.96C267.115 254.392 266.859 254.968 266.859 255.688C266.859 256.296 267.051 256.784 267.435 257.152C267.835 257.504 268.459 257.68 269.307 257.68ZM281.05 252.688L277.594 247H279.37L282.322 252.04H284.482V247H286.066V252.04H288.226L291.178 247H292.954L289.498 252.688L293.194 259H291.37L288.226 253.48H286.066V259H284.482V253.48H282.322L279.178 259H277.354L281.05 252.688ZM295.833 247H297.417V257.2H297.465L303.465 247H305.673V259H304.089V248.8H304.041L298.041 259H295.833V247Z" fill="black"/>
<circle cx="411" cy="273" r="9" fill="#21EA4D"/>
<path d="M366.7 308.168C365.66 308.168 364.716 307.992 363.868 307.64C363.02 307.288 362.284 306.776 361.66 306.104C361.052 305.416 360.58 304.576 360.244 303.584C359.908 302.576 359.74 301.424 359.74 300.128V298.832C359.74 297.6 359.908 296.504 360.244 295.544C360.596 294.568 361.076 293.752 361.684 293.096C362.292 292.424 363.02 291.912 363.868 291.56C364.732 291.208 365.676 291.032 366.7 291.032C367.724 291.032 368.66 291.208 369.508 291.56C370.372 291.896 371.108 292.4 371.716 293.072C372.34 293.728 372.82 294.544 373.156 295.52C373.492 296.48 373.66 297.584 373.66 298.832V300.128C373.66 301.424 373.484 302.576 373.132 303.584C372.796 304.576 372.324 305.416 371.716 306.104C371.108 306.776 370.372 307.288 369.508 307.64C368.66 307.992 367.724 308.168 366.7 308.168ZM366.7 306.632C367.468 306.632 368.172 306.496 368.812 306.224C369.452 305.952 370.004 305.544 370.468 305C370.932 304.456 371.292 303.784 371.548 302.984C371.804 302.168 371.932 301.216 371.932 300.128V298.832C371.932 297.824 371.796 296.936 371.524 296.168C371.268 295.384 370.908 294.728 370.444 294.2C369.98 293.656 369.428 293.248 368.788 292.976C368.148 292.704 367.452 292.568 366.7 292.568C365.932 292.568 365.228 292.704 364.588 292.976C363.948 293.248 363.396 293.648 362.932 294.176C362.468 294.704 362.108 295.36 361.852 296.144C361.596 296.912 361.468 297.808 361.468 298.832V300.128C361.468 301.2 361.596 302.144 361.852 302.96C362.124 303.76 362.492 304.432 362.956 304.976C363.42 305.52 363.972 305.936 364.612 306.224C365.252 306.496 365.948 306.632 366.7 306.632ZM377.259 296H378.843V301.04H381.003L384.507 296H386.379L382.275 301.712L386.859 308H384.939L381.003 302.48H378.843V308H377.259V296ZM393.304 308L388.288 296H390.016L394.12 306.032H394.168L397.936 296H399.568L393.088 312.8H391.456L393.304 308ZM402.196 296H411.556V308H409.972V297.44H403.78V308H402.196V296ZM415.626 296H417.21V306.2H417.258L423.258 296H425.466V308H423.882V297.8H423.834L417.834 308H415.626V296ZM427.988 306.728H428.348C428.844 306.728 429.228 306.56 429.5 306.224C429.772 305.888 429.972 305.4 430.1 304.76C430.244 304.12 430.324 303.344 430.34 302.432C430.372 301.52 430.388 300.496 430.388 299.36V296H438.548V308H436.964V297.44H431.972V299.36C431.972 300.656 431.948 301.84 431.9 302.912C431.868 303.984 431.732 304.912 431.492 305.696C431.268 306.48 430.908 307.088 430.412 307.52C429.932 307.952 429.244 308.168 428.348 308.168H427.988V306.728ZM446.946 308.168C446.194 308.168 445.506 308.048 444.882 307.808C444.258 307.552 443.722 307.176 443.274 306.68C442.842 306.184 442.506 305.568 442.266 304.832C442.026 304.096 441.906 303.248 441.906 302.288V301.472C441.906 300.576 442.026 299.784 442.266 299.096C442.522 298.392 442.866 297.8 443.298 297.32C443.746 296.84 444.274 296.472 444.882 296.216C445.506 295.96 446.194 295.832 446.946 295.832C447.65 295.832 448.282 295.928 448.842 296.12C449.402 296.296 449.882 296.552 450.282 296.888C450.682 297.208 451.002 297.584 451.242 298.016C451.482 298.432 451.65 298.88 451.746 299.36H450.114C449.938 298.768 449.61 298.272 449.13 297.872C448.65 297.472 447.962 297.272 447.066 297.272C446.042 297.272 445.194 297.632 444.522 298.352C443.866 299.072 443.538 300.112 443.538 301.472V302.288C443.538 303.76 443.874 304.872 444.546 305.624C445.218 306.36 446.058 306.728 447.066 306.728C447.962 306.728 448.65 306.52 449.13 306.104C449.61 305.688 449.938 305.12 450.114 304.4H451.746C451.65 304.944 451.482 305.448 451.242 305.912C451.002 306.36 450.682 306.752 450.282 307.088C449.882 307.424 449.402 307.688 448.842 307.88C448.282 308.072 447.65 308.168 446.946 308.168ZM456.471 303.2C455.655 302.928 455.063 302.504 454.695 301.928C454.327 301.352 454.143 300.632 454.143 299.768C454.143 298.568 454.511 297.64 455.247 296.984C455.999 296.328 457.231 296 458.943 296H462.783V308H461.199V303.536H458.943C458.783 303.536 458.623 303.536 458.463 303.536C458.319 303.536 458.175 303.528 458.031 303.512L455.487 308H453.663L456.471 303.2ZM455.775 299.768C455.775 300.52 456.015 301.096 456.495 301.496C456.975 301.896 457.831 302.096 459.063 302.096H461.199V297.44H459.063C457.831 297.44 456.975 297.64 456.495 298.04C456.015 298.44 455.775 299.016 455.775 299.768Z" fill="black"/>
<circle cx="236" cy="9" r="9" fill="#FF4B53"/>
<path d="M199.461 27.2H211.941V44H210.261V28.736H201.141V44H199.461V27.2ZM220.705 44.168C219.089 44.168 217.801 43.672 216.841 42.68C215.897 41.688 215.425 40.264 215.425 38.408V37.592C215.425 36.68 215.545 35.864 215.785 35.144C216.041 34.424 216.401 33.824 216.865 33.344C217.329 32.848 217.881 32.472 218.521 32.216C219.177 31.96 219.905 31.832 220.705 31.832C222.321 31.832 223.601 32.328 224.545 33.32C225.505 34.312 225.985 35.736 225.985 37.592V38.408C225.985 39.32 225.857 40.136 225.601 40.856C225.361 41.576 225.009 42.184 224.545 42.68C224.081 43.16 223.521 43.528 222.865 43.784C222.225 44.04 221.505 44.168 220.705 44.168ZM220.705 42.728C221.809 42.728 222.689 42.368 223.345 41.648C224.017 40.928 224.353 39.848 224.353 38.408V37.592C224.353 36.168 224.017 35.096 223.345 34.376C222.673 33.64 221.793 33.272 220.705 33.272C219.601 33.272 218.713 33.632 218.041 34.352C217.385 35.072 217.057 36.152 217.057 37.592V38.408C217.057 39.832 217.393 40.912 218.065 41.648C218.737 42.368 219.617 42.728 220.705 42.728ZM231.32 33.44H227.312V32H236.912V33.44H232.904V44H231.32V33.44ZM243.414 44.168C242.646 44.168 241.942 44.04 241.302 43.784C240.662 43.528 240.118 43.16 239.67 42.68C239.222 42.184 238.87 41.584 238.614 40.88C238.374 40.16 238.254 39.336 238.254 38.408V37.592C238.254 36.68 238.374 35.864 238.614 35.144C238.87 34.424 239.222 33.824 239.67 33.344C240.134 32.848 240.678 32.472 241.302 32.216C241.942 31.96 242.646 31.832 243.414 31.832C244.182 31.832 244.886 31.96 245.526 32.216C246.166 32.472 246.71 32.848 247.158 33.344C247.606 33.84 247.95 34.456 248.19 35.192C248.446 35.912 248.574 36.752 248.574 37.712V38.432H239.886C239.886 39.824 240.19 40.888 240.798 41.624C241.406 42.36 242.278 42.728 243.414 42.728C245.126 42.728 246.262 42.032 246.822 40.64H248.454C248.166 41.792 247.59 42.672 246.726 43.28C245.878 43.872 244.774 44.168 243.414 44.168ZM243.414 33.272C242.39 33.272 241.566 33.6 240.942 34.256C240.318 34.896 239.966 35.84 239.886 37.088H246.942C246.862 35.792 246.502 34.832 245.862 34.208C245.238 33.584 244.422 33.272 243.414 33.272ZM251.935 32H253.183L253.375 33.8H253.423C253.951 33.112 254.535 32.616 255.175 32.312C255.815 31.992 256.567 31.832 257.431 31.832C258.135 31.832 258.783 31.96 259.375 32.216C259.967 32.456 260.471 32.824 260.887 33.32C261.319 33.8 261.655 34.4 261.895 35.12C262.135 35.84 262.255 36.664 262.255 37.592V38.408C262.255 39.336 262.135 40.16 261.895 40.88C261.655 41.584 261.319 42.184 260.887 42.68C260.455 43.16 259.943 43.528 259.351 43.784C258.759 44.04 258.119 44.168 257.431 44.168C255.703 44.168 254.415 43.552 253.567 42.32H253.519V48.8H251.935V32ZM257.071 42.728C258.127 42.728 258.983 42.376 259.639 41.672C260.295 40.952 260.623 39.864 260.623 38.408V37.592C260.623 36.168 260.287 35.096 259.615 34.376C258.959 33.64 258.111 33.272 257.071 33.272C256.015 33.272 255.159 33.632 254.503 34.352C253.847 35.056 253.519 36.136 253.519 37.592V38.408C253.519 39.832 253.847 40.912 254.503 41.648C255.175 42.368 256.031 42.728 257.071 42.728ZM267.35 39.2C266.534 38.928 265.942 38.504 265.574 37.928C265.206 37.352 265.022 36.632 265.022 35.768C265.022 34.568 265.39 33.64 266.126 32.984C266.878 32.328 268.11 32 269.822 32H273.662V44H272.078V39.536H269.822C269.662 39.536 269.502 39.536 269.342 39.536C269.198 39.536 269.054 39.528 268.91 39.512L266.366 44H264.542L267.35 39.2ZM266.654 35.768C266.654 36.52 266.894 37.096 267.374 37.496C267.854 37.896 268.71 38.096 269.942 38.096H272.078V33.44H269.942C268.71 33.44 267.854 33.64 267.374 34.04C266.894 34.44 266.654 35.016 266.654 35.768ZM194.869 75.168C193.237 75.168 191.941 74.648 190.981 73.608C190.037 72.552 189.565 70.912 189.565 68.688V67.392C189.565 66.48 189.605 65.616 189.685 64.8C189.765 63.984 189.901 63.24 190.093 62.568C190.301 61.896 190.581 61.304 190.933 60.792C191.285 60.264 191.741 59.832 192.301 59.496C192.797 59.208 193.285 59.016 193.765 58.92C194.261 58.808 194.781 58.728 195.325 58.68C195.869 58.632 196.453 58.576 197.077 58.512C197.701 58.432 198.397 58.272 199.165 58.032V59.496C198.557 59.72 197.965 59.864 197.389 59.928C196.829 59.992 196.285 60.048 195.757 60.096C195.245 60.144 194.757 60.208 194.293 60.288C193.829 60.368 193.405 60.528 193.021 60.768C192.429 61.152 191.981 61.696 191.677 62.4C191.389 63.104 191.197 64.024 191.101 65.16H191.149C191.565 64.488 192.109 63.976 192.781 63.624C193.469 63.256 194.261 63.072 195.157 63.072C195.877 63.072 196.541 63.2 197.149 63.456C197.757 63.712 198.277 64.08 198.709 64.56C199.157 65.04 199.501 65.632 199.741 66.336C199.997 67.04 200.125 67.832 200.125 68.712V69.528C200.125 70.408 199.997 71.2 199.741 71.904C199.485 72.592 199.125 73.184 198.661 73.68C198.213 74.16 197.661 74.528 197.005 74.784C196.365 75.04 195.653 75.168 194.869 75.168ZM194.869 73.728C195.957 73.728 196.829 73.376 197.485 72.672C198.157 71.952 198.493 70.904 198.493 69.528V68.712C198.493 67.336 198.157 66.296 197.485 65.592C196.829 64.872 195.957 64.512 194.869 64.512C193.749 64.512 192.853 64.864 192.181 65.568C191.525 66.272 191.197 67.32 191.197 68.712V69.528C191.197 70.888 191.533 71.928 192.205 72.648C192.877 73.368 193.765 73.728 194.869 73.728ZM203.478 63H205.062V68.16H207.75C207.782 67.328 207.926 66.584 208.182 65.928C208.438 65.256 208.79 64.696 209.238 64.248C209.686 63.784 210.214 63.432 210.822 63.192C211.43 62.952 212.094 62.832 212.814 62.832C213.566 62.832 214.254 62.96 214.878 63.216C215.502 63.472 216.03 63.848 216.462 64.344C216.91 64.824 217.254 65.424 217.494 66.144C217.75 66.848 217.878 67.664 217.878 68.592V69.408C217.878 70.32 217.75 71.136 217.494 71.856C217.254 72.576 216.91 73.184 216.462 73.68C216.014 74.16 215.478 74.528 214.854 74.784C214.23 75.04 213.55 75.168 212.814 75.168C212.062 75.168 211.374 75.048 210.75 74.808C210.142 74.552 209.614 74.192 209.166 73.728C208.734 73.248 208.39 72.664 208.134 71.976C207.878 71.288 207.75 70.496 207.75 69.6H205.062V75H203.478V63ZM212.814 73.728C213.806 73.728 214.622 73.368 215.262 72.648C215.918 71.928 216.246 70.848 216.246 69.408V68.592C216.246 67.872 216.158 67.248 215.982 66.72C215.806 66.176 215.566 65.728 215.262 65.376C214.958 65.008 214.598 64.736 214.182 64.56C213.766 64.368 213.31 64.272 212.814 64.272C211.806 64.272 210.982 64.624 210.342 65.328C209.702 66.032 209.382 67.08 209.382 68.472V69.288C209.382 70.776 209.702 71.888 210.342 72.624C210.998 73.36 211.822 73.728 212.814 73.728ZM219.449 73.56H220.769C221.025 73.16 221.233 72.752 221.393 72.336C221.569 71.92 221.705 71.448 221.801 70.92C221.913 70.392 221.985 69.784 222.017 69.096C222.065 68.392 222.089 67.56 222.089 66.6V63H230.249V73.56H231.809V78.12H230.273V75H220.985V78.12H219.449V73.56ZM228.665 73.56V64.44H223.625V66.6C223.625 67.464 223.609 68.224 223.577 68.88C223.545 69.536 223.489 70.136 223.409 70.68C223.329 71.208 223.217 71.704 223.073 72.168C222.929 72.616 222.753 73.064 222.545 73.512V73.56H228.665ZM236.929 68.688L233.473 63H235.249L238.201 68.04H240.361V63H241.945V68.04H244.105L247.057 63H248.833L245.377 68.688L249.073 75H247.249L244.105 69.48H241.945V75H240.361V69.48H238.201L235.057 75H233.233L236.929 68.688ZM255.8 75.168C255.032 75.168 254.328 75.04 253.688 74.784C253.048 74.528 252.504 74.16 252.056 73.68C251.608 73.184 251.256 72.584 251 71.88C250.76 71.16 250.64 70.336 250.64 69.408V68.592C250.64 67.68 250.76 66.864 251 66.144C251.256 65.424 251.608 64.824 252.056 64.344C252.52 63.848 253.064 63.472 253.688 63.216C254.328 62.96 255.032 62.832 255.8 62.832C256.568 62.832 257.272 62.96 257.912 63.216C258.552 63.472 259.096 63.848 259.544 64.344C259.992 64.84 260.336 65.456 260.576 66.192C260.832 66.912 260.96 67.752 260.96 68.712V69.432H252.272C252.272 70.824 252.576 71.888 253.184 72.624C253.792 73.36 254.664 73.728 255.8 73.728C257.512 73.728 258.648 73.032 259.208 71.64H260.84C260.552 72.792 259.976 73.672 259.112 74.28C258.264 74.872 257.16 75.168 255.8 75.168ZM255.8 64.272C254.776 64.272 253.952 64.6 253.328 65.256C252.704 65.896 252.352 66.84 252.272 68.088H259.328C259.248 66.792 258.888 65.832 258.248 65.208C257.624 64.584 256.808 64.272 255.8 64.272ZM266.301 64.44H262.293V63H271.893V64.44H267.885V75H266.301V64.44ZM277.308 75.168C275.98 75.168 274.988 74.864 274.332 74.256C273.676 73.632 273.348 72.776 273.348 71.688C273.348 70.552 273.74 69.648 274.524 68.976C275.308 68.304 276.556 67.968 278.268 67.968H281.364V67.08C281.364 66.12 281.132 65.424 280.668 64.992C280.204 64.544 279.444 64.32 278.388 64.32C277.412 64.32 276.692 64.488 276.228 64.824C275.78 65.16 275.524 65.592 275.46 66.12H273.828C273.86 65.688 273.98 65.272 274.188 64.872C274.396 64.472 274.684 64.12 275.052 63.816C275.436 63.512 275.908 63.272 276.468 63.096C277.028 62.92 277.668 62.832 278.388 62.832C279.94 62.832 281.084 63.192 281.82 63.912C282.572 64.616 282.948 65.672 282.948 67.08V75H281.7L281.508 72.96H281.46C280.98 73.68 280.38 74.232 279.66 74.616C278.956 74.984 278.172 75.168 277.308 75.168ZM277.428 73.68C278.004 73.68 278.532 73.592 279.012 73.416C279.492 73.224 279.908 72.968 280.26 72.648C280.612 72.312 280.884 71.92 281.076 71.472C281.268 71.008 281.364 70.504 281.364 69.96V69.312H278.388C277.156 69.312 276.276 69.528 275.748 69.96C275.236 70.392 274.98 70.968 274.98 71.688C274.98 72.296 275.172 72.784 275.556 73.152C275.956 73.504 276.58 73.68 277.428 73.68Z" fill="black"/>
<path d="M408.996 132.909C408.946 132.359 408.459 131.954 407.909 132.004L398.946 132.819C398.396 132.869 397.991 133.355 398.041 133.905C398.091 134.455 398.577 134.861 399.127 134.811L407.095 134.086L407.819 142.054C407.869 142.604 408.355 143.009 408.905 142.959C409.455 142.909 409.861 142.423 409.811 141.873L408.996 132.909ZM358.768 193.64L361.268 190.64L359.732 189.36L357.232 192.36L358.768 193.64ZM366.268 184.64L371.268 178.64L369.732 177.36L364.732 183.36L366.268 184.64ZM376.268 172.64L381.268 166.64L379.732 165.36L374.732 171.36L376.268 172.64ZM386.268 160.64L391.268 154.64L389.732 153.36L384.732 159.36L386.268 160.64ZM396.268 148.64L401.268 142.64L399.732 141.36L394.732 147.36L396.268 148.64ZM406.268 136.64L408.768 133.64L407.232 132.36L404.732 135.36L406.268 136.64Z" fill="#C0C0C0"/>
<path d="M399.783 259.976C400.322 260.096 400.856 259.756 400.976 259.217L402.929 250.431C403.048 249.892 402.708 249.358 402.169 249.238C401.63 249.118 401.096 249.458 400.976 249.997L399.241 257.807L391.431 256.071C390.892 255.952 390.358 256.292 390.238 256.831C390.118 257.37 390.458 257.904 390.997 258.024L399.783 259.976ZM357.156 193.537L359.256 196.837L360.944 195.763L358.844 192.463L357.156 193.537ZM363.456 203.437L367.656 210.037L369.344 208.963L365.144 202.363L363.456 203.437ZM371.856 216.637L376.056 223.237L377.744 222.163L373.544 215.563L371.856 216.637ZM380.256 229.837L384.456 236.437L386.144 235.363L381.944 228.763L380.256 229.837ZM388.656 243.037L392.856 249.637L394.544 248.563L390.344 241.963L388.656 243.037ZM397.056 256.237L399.156 259.537L400.844 258.463L398.744 255.163L397.056 256.237Z" fill="#C0C0C0"/>
</g>
<defs>
<clipPath id="clip0_170_227">
<rect width="1440" height="8775" fill="white" transform="translate(-197 -5417)"/>
</clipPath>
</defs>
</svg>
