<svg width="481" height="325" viewBox="0 0 481 325" fill="none" xmlns="http://www.w3.org/2000/svg">
<circle cx="138" cy="82" r="9" fill="#C0C0C0"/>
<path d="M63.4334 100.2H75.9134V117H74.2334V101.736H65.1134V117H63.4334V100.2ZM80.1181 105H81.3661L81.5581 106.8H81.6061C82.1341 106.112 82.7181 105.616 83.3581 105.312C83.9981 104.992 84.7501 104.832 85.6141 104.832C86.3181 104.832 86.9661 104.96 87.5581 105.216C88.1501 105.456 88.6541 105.824 89.0701 106.32C89.5021 106.8 89.8381 107.4 90.0781 108.12C90.3181 108.84 90.4381 109.664 90.4381 110.592V111.408C90.4381 112.336 90.3181 113.16 90.0781 113.88C89.8381 114.584 89.5021 115.184 89.0701 115.68C88.6381 116.16 88.1261 116.528 87.5341 116.784C86.9421 117.04 86.3021 117.168 85.6141 117.168C83.8861 117.168 82.5981 116.552 81.7501 115.32H81.7021V121.8H80.1181V105ZM85.2541 115.728C86.3101 115.728 87.1661 115.376 87.8221 114.672C88.4781 113.952 88.8061 112.864 88.8061 111.408V110.592C88.8061 109.168 88.4701 108.096 87.7981 107.376C87.1421 106.64 86.2941 106.272 85.2541 106.272C84.1981 106.272 83.3421 106.632 82.6861 107.352C82.0301 108.056 81.7021 109.136 81.7021 110.592V111.408C81.7021 112.832 82.0301 113.912 82.6861 114.648C83.3581 115.368 84.2141 115.728 85.2541 115.728ZM98.3656 117.168C96.7496 117.168 95.4616 116.672 94.5016 115.68C93.5576 114.688 93.0856 113.264 93.0856 111.408V110.592C93.0856 109.68 93.2056 108.864 93.4456 108.144C93.7016 107.424 94.0616 106.824 94.5256 106.344C94.9896 105.848 95.5416 105.472 96.1816 105.216C96.8376 104.96 97.5656 104.832 98.3656 104.832C99.9816 104.832 101.262 105.328 102.206 106.32C103.166 107.312 103.646 108.736 103.646 110.592V111.408C103.646 112.32 103.518 113.136 103.262 113.856C103.022 114.576 102.67 115.184 102.206 115.68C101.742 116.16 101.182 116.528 100.526 116.784C99.8856 117.04 99.1656 117.168 98.3656 117.168ZM98.3656 115.728C99.4696 115.728 100.35 115.368 101.006 114.648C101.678 113.928 102.014 112.848 102.014 111.408V110.592C102.014 109.168 101.678 108.096 101.006 107.376C100.334 106.64 99.4536 106.272 98.3656 106.272C97.2616 106.272 96.3736 106.632 95.7016 107.352C95.0456 108.072 94.7176 109.152 94.7176 110.592V111.408C94.7176 112.832 95.0536 113.912 95.7256 114.648C96.3976 115.368 97.2776 115.728 98.3656 115.728ZM107.001 105H111.561C112.969 105 114.001 105.296 114.657 105.888C115.313 106.48 115.641 107.28 115.641 108.288C115.641 108.816 115.505 109.296 115.233 109.728C114.977 110.16 114.609 110.496 114.129 110.736V110.784C114.785 111.04 115.281 111.408 115.617 111.888C115.953 112.368 116.121 112.928 116.121 113.568C116.121 114.64 115.793 115.48 115.137 116.088C114.481 116.696 113.449 117 112.041 117H107.001V105ZM114.009 108.312C114.009 107.72 113.817 107.264 113.433 106.944C113.049 106.608 112.385 106.44 111.441 106.44H108.585V110.208H111.441C112.385 110.208 113.049 110.048 113.433 109.728C113.817 109.392 114.009 108.92 114.009 108.312ZM114.489 113.544C114.489 112.888 114.297 112.392 113.913 112.056C113.529 111.72 112.865 111.552 111.921 111.552H108.585V115.56H111.921C112.865 115.56 113.529 115.392 113.913 115.056C114.297 114.72 114.489 114.216 114.489 113.544ZM123.91 117.168C123.142 117.168 122.438 117.04 121.798 116.784C121.158 116.528 120.614 116.16 120.166 115.68C119.718 115.184 119.366 114.584 119.11 113.88C118.87 113.16 118.75 112.336 118.75 111.408V110.592C118.75 109.68 118.87 108.864 119.11 108.144C119.366 107.424 119.718 106.824 120.166 106.344C120.63 105.848 121.174 105.472 121.798 105.216C122.438 104.96 123.142 104.832 123.91 104.832C124.678 104.832 125.382 104.96 126.022 105.216C126.662 105.472 127.206 105.848 127.654 106.344C128.102 106.84 128.446 107.456 128.686 108.192C128.942 108.912 129.07 109.752 129.07 110.712V111.432H120.382C120.382 112.824 120.686 113.888 121.294 114.624C121.902 115.36 122.774 115.728 123.91 115.728C125.622 115.728 126.758 115.032 127.318 113.64H128.95C128.662 114.792 128.086 115.672 127.222 116.28C126.374 116.872 125.27 117.168 123.91 117.168ZM123.91 106.272C122.886 106.272 122.062 106.6 121.438 107.256C120.814 107.896 120.462 108.84 120.382 110.088H127.438C127.358 108.792 126.998 107.832 126.358 107.208C125.734 106.584 124.918 106.272 123.91 106.272ZM132.431 105H133.679L133.871 106.8H133.919C134.447 106.112 135.031 105.616 135.671 105.312C136.311 104.992 137.063 104.832 137.927 104.832C138.631 104.832 139.279 104.96 139.871 105.216C140.463 105.456 140.967 105.824 141.383 106.32C141.815 106.8 142.151 107.4 142.391 108.12C142.631 108.84 142.751 109.664 142.751 110.592V111.408C142.751 112.336 142.631 113.16 142.391 113.88C142.151 114.584 141.815 115.184 141.383 115.68C140.951 116.16 140.439 116.528 139.847 116.784C139.255 117.04 138.615 117.168 137.927 117.168C136.199 117.168 134.911 116.552 134.063 115.32H134.015V121.8H132.431V105ZM137.567 115.728C138.623 115.728 139.479 115.376 140.135 114.672C140.791 113.952 141.119 112.864 141.119 111.408V110.592C141.119 109.168 140.783 108.096 140.111 107.376C139.455 106.64 138.607 106.272 137.567 106.272C136.511 106.272 135.655 106.632 134.999 107.352C134.343 108.056 134.015 109.136 134.015 110.592V111.408C134.015 112.832 134.343 113.912 134.999 114.648C135.671 115.368 136.527 115.728 137.567 115.728ZM150.558 117.168C149.79 117.168 149.086 117.04 148.446 116.784C147.806 116.528 147.262 116.16 146.814 115.68C146.366 115.184 146.014 114.584 145.758 113.88C145.518 113.16 145.398 112.336 145.398 111.408V110.592C145.398 109.68 145.518 108.864 145.758 108.144C146.014 107.424 146.366 106.824 146.814 106.344C147.278 105.848 147.822 105.472 148.446 105.216C149.086 104.96 149.79 104.832 150.558 104.832C151.326 104.832 152.03 104.96 152.67 105.216C153.31 105.472 153.854 105.848 154.302 106.344C154.75 106.84 155.094 107.456 155.334 108.192C155.59 108.912 155.718 109.752 155.718 110.712V111.432H147.03C147.03 112.824 147.334 113.888 147.942 114.624C148.55 115.36 149.422 115.728 150.558 115.728C152.27 115.728 153.406 115.032 153.966 113.64H155.598C155.31 114.792 154.734 115.672 153.87 116.28C153.022 116.872 151.918 117.168 150.558 117.168ZM150.558 106.272C149.534 106.272 148.71 106.6 148.086 107.256C147.462 107.896 147.11 108.84 147.03 110.088H154.086C154.006 108.792 153.646 107.832 153.006 107.208C152.382 106.584 151.566 106.272 150.558 106.272ZM159.079 105H160.663V110.16H167.335V105H168.919V117H167.335V111.6H160.663V117H159.079V105ZM173.001 105H174.585V110.16H181.257V105H182.841V117H181.257V111.6H174.585V117H173.001V105ZM190.043 117.168C188.715 117.168 187.723 116.864 187.067 116.256C186.411 115.632 186.083 114.776 186.083 113.688C186.083 112.552 186.475 111.648 187.259 110.976C188.043 110.304 189.291 109.968 191.003 109.968H194.099V109.08C194.099 108.12 193.867 107.424 193.403 106.992C192.939 106.544 192.179 106.32 191.123 106.32C190.147 106.32 189.427 106.488 188.963 106.824C188.515 107.16 188.259 107.592 188.195 108.12H186.563C186.595 107.688 186.715 107.272 186.923 106.872C187.131 106.472 187.419 106.12 187.787 105.816C188.171 105.512 188.643 105.272 189.203 105.096C189.763 104.92 190.403 104.832 191.123 104.832C192.675 104.832 193.819 105.192 194.555 105.912C195.307 106.616 195.683 107.672 195.683 109.08V117H194.435L194.243 114.96H194.195C193.715 115.68 193.115 116.232 192.395 116.616C191.691 116.984 190.907 117.168 190.043 117.168ZM190.163 115.68C190.739 115.68 191.267 115.592 191.747 115.416C192.227 115.224 192.643 114.968 192.995 114.648C193.347 114.312 193.619 113.92 193.811 113.472C194.003 113.008 194.099 112.504 194.099 111.96V111.312H191.123C189.891 111.312 189.011 111.528 188.483 111.96C187.971 112.392 187.715 112.968 187.715 113.688C187.715 114.296 187.907 114.784 188.291 115.152C188.691 115.504 189.315 115.68 190.163 115.68ZM201.377 112.2C200.561 111.928 199.969 111.504 199.601 110.928C199.233 110.352 199.049 109.632 199.049 108.768C199.049 107.568 199.417 106.64 200.153 105.984C200.905 105.328 202.137 105 203.849 105H207.689V117H206.105V112.536H203.849C203.689 112.536 203.529 112.536 203.369 112.536C203.225 112.536 203.081 112.528 202.937 112.512L200.393 117H198.569L201.377 112.2ZM200.681 108.768C200.681 109.52 200.921 110.096 201.401 110.496C201.881 110.896 202.737 111.096 203.969 111.096H206.105V106.44H203.969C202.737 106.44 201.881 106.64 201.401 107.04C200.921 107.44 200.681 108.016 200.681 108.768ZM88.5673 136H90.8713L94.7113 143.392H94.7593L98.5993 136H100.807V148H99.2233V138.04H99.1753L95.4793 145.12H93.8953L90.1993 138.04H90.1513V148H88.5673V136ZM109.32 148.168C108.552 148.168 107.848 148.04 107.208 147.784C106.568 147.528 106.024 147.16 105.576 146.68C105.128 146.184 104.776 145.584 104.52 144.88C104.28 144.16 104.16 143.336 104.16 142.408V141.592C104.16 140.68 104.28 139.864 104.52 139.144C104.776 138.424 105.128 137.824 105.576 137.344C106.04 136.848 106.584 136.472 107.208 136.216C107.848 135.96 108.552 135.832 109.32 135.832C110.088 135.832 110.792 135.96 111.432 136.216C112.072 136.472 112.616 136.848 113.064 137.344C113.512 137.84 113.856 138.456 114.096 139.192C114.352 139.912 114.48 140.752 114.48 141.712V142.432H105.792C105.792 143.824 106.096 144.888 106.704 145.624C107.312 146.36 108.184 146.728 109.32 146.728C111.032 146.728 112.168 146.032 112.728 144.64H114.36C114.072 145.792 113.496 146.672 112.632 147.28C111.784 147.872 110.68 148.168 109.32 148.168ZM109.32 137.272C108.296 137.272 107.472 137.6 106.848 138.256C106.224 138.896 105.872 139.84 105.792 141.088H112.848C112.768 139.792 112.408 138.832 111.768 138.208C111.144 137.584 110.328 137.272 109.32 137.272ZM119.82 137.44H115.812V136H125.412V137.44H121.404V148H119.82V137.44ZM132.034 148.168C130.418 148.168 129.13 147.672 128.17 146.68C127.226 145.688 126.754 144.264 126.754 142.408V141.592C126.754 140.68 126.874 139.864 127.114 139.144C127.37 138.424 127.73 137.824 128.194 137.344C128.658 136.848 129.21 136.472 129.85 136.216C130.506 135.96 131.234 135.832 132.034 135.832C133.65 135.832 134.93 136.328 135.874 137.32C136.834 138.312 137.314 139.736 137.314 141.592V142.408C137.314 143.32 137.186 144.136 136.93 144.856C136.69 145.576 136.338 146.184 135.874 146.68C135.41 147.16 134.85 147.528 134.194 147.784C133.554 148.04 132.834 148.168 132.034 148.168ZM132.034 146.728C133.138 146.728 134.018 146.368 134.674 145.648C135.346 144.928 135.682 143.848 135.682 142.408V141.592C135.682 140.168 135.346 139.096 134.674 138.376C134.002 137.64 133.122 137.272 132.034 137.272C130.93 137.272 130.042 137.632 129.37 138.352C128.714 139.072 128.386 140.152 128.386 141.592V142.408C128.386 143.832 128.722 144.912 129.394 145.648C130.066 146.368 130.946 146.728 132.034 146.728ZM138.875 146.56H140.195C140.451 146.16 140.659 145.752 140.819 145.336C140.995 144.92 141.131 144.448 141.227 143.92C141.339 143.392 141.411 142.784 141.443 142.096C141.491 141.392 141.515 140.56 141.515 139.6V136H149.675V146.56H151.235V151.12H149.699V148H140.411V151.12H138.875V146.56ZM148.091 146.56V137.44H143.051V139.6C143.051 140.464 143.035 141.224 143.003 141.88C142.971 142.536 142.915 143.136 142.835 143.68C142.755 144.208 142.643 144.704 142.499 145.168C142.355 145.616 142.179 146.064 141.971 146.512V146.56H148.091ZM153.864 136H155.448V146.2H155.496L161.496 136H163.704V148H162.12V137.8H162.072L156.072 148H153.864V136ZM167.786 136H169.37V141.04H171.53L175.034 136H176.906L172.802 141.712L177.386 148H175.466L171.53 142.48H169.37V148H167.786V136ZM182.906 148.168C181.578 148.168 180.586 147.864 179.93 147.256C179.274 146.632 178.946 145.776 178.946 144.688C178.946 143.552 179.338 142.648 180.122 141.976C180.906 141.304 182.154 140.968 183.866 140.968H186.962V140.08C186.962 139.12 186.73 138.424 186.266 137.992C185.802 137.544 185.042 137.32 183.986 137.32C183.01 137.32 182.29 137.488 181.826 137.824C181.378 138.16 181.122 138.592 181.058 139.12H179.426C179.458 138.688 179.578 138.272 179.786 137.872C179.994 137.472 180.282 137.12 180.65 136.816C181.034 136.512 181.506 136.272 182.066 136.096C182.626 135.92 183.266 135.832 183.986 135.832C185.538 135.832 186.682 136.192 187.418 136.912C188.17 137.616 188.546 138.672 188.546 140.08V148H187.298L187.106 145.96H187.058C186.578 146.68 185.978 147.232 185.258 147.616C184.554 147.984 183.77 148.168 182.906 148.168ZM183.026 146.68C183.602 146.68 184.13 146.592 184.61 146.416C185.09 146.224 185.506 145.968 185.858 145.648C186.21 145.312 186.482 144.92 186.674 144.472C186.866 144.008 186.962 143.504 186.962 142.96V142.312H183.986C182.754 142.312 181.874 142.528 181.346 142.96C180.834 143.392 180.578 143.968 180.578 144.688C180.578 145.296 180.77 145.784 181.154 146.152C181.554 146.504 182.178 146.68 183.026 146.68Z" fill="black"/>
<path d="M281 204.012C281 204.564 281.448 205.012 282 205.012L291 205.012C291.552 205.012 292 204.564 292 204.012C292 203.46 291.552 203.012 291 203.012L283 203.012L283 195.012C283 194.46 282.552 194.012 282 194.012C281.448 194.012 281 194.46 281 195.012L281 204.012ZM282.707 204.719L285.27 202.156L283.856 200.742L281.293 203.305L282.707 204.719ZM290.397 197.03L295.523 191.903L294.109 190.489L288.983 195.615L290.397 197.03ZM300.65 186.776L305.776 181.65L304.362 180.236L299.236 185.362L300.65 186.776ZM310.903 176.523L316.03 171.397L314.615 169.983L309.489 175.109L310.903 176.523ZM321.156 166.27L323.719 163.707L322.305 162.293L319.742 164.856L321.156 166.27Z" fill="#C0C0C0"/>
<circle cx="343" cy="82" r="9" fill="#C0C0C0"/>
<path d="M319.785 100.2H329.865V101.736H321.465V107.064H325.425C327.297 107.064 328.705 107.512 329.649 108.408C330.593 109.288 331.065 110.496 331.065 112.032C331.065 113.536 330.585 114.744 329.625 115.656C328.665 116.552 327.265 117 325.425 117H319.785V100.2ZM321.465 108.6V115.464H325.305C326.713 115.464 327.737 115.168 328.377 114.576C329.017 113.984 329.337 113.136 329.337 112.032C329.337 110.928 329.017 110.08 328.377 109.488C327.737 108.896 326.713 108.6 325.305 108.6H321.465ZM337.433 117.168C336.105 117.168 335.113 116.864 334.457 116.256C333.801 115.632 333.473 114.776 333.473 113.688C333.473 112.552 333.865 111.648 334.649 110.976C335.433 110.304 336.681 109.968 338.393 109.968H341.489V109.08C341.489 108.12 341.257 107.424 340.793 106.992C340.329 106.544 339.569 106.32 338.513 106.32C337.537 106.32 336.817 106.488 336.353 106.824C335.905 107.16 335.649 107.592 335.585 108.12H333.953C333.985 107.688 334.105 107.272 334.313 106.872C334.521 106.472 334.809 106.12 335.177 105.816C335.561 105.512 336.033 105.272 336.593 105.096C337.153 104.92 337.793 104.832 338.513 104.832C340.065 104.832 341.209 105.192 341.945 105.912C342.697 106.616 343.073 107.672 343.073 109.08V117H341.825L341.633 114.96H341.585C341.105 115.68 340.505 116.232 339.785 116.616C339.081 116.984 338.297 117.168 337.433 117.168ZM337.553 115.68C338.129 115.68 338.657 115.592 339.137 115.416C339.617 115.224 340.033 114.968 340.385 114.648C340.737 114.312 341.009 113.92 341.201 113.472C341.393 113.008 341.489 112.504 341.489 111.96V111.312H338.513C337.281 111.312 336.401 111.528 335.873 111.96C335.361 112.392 335.105 112.968 335.105 113.688C335.105 114.296 335.297 114.784 335.681 115.152C336.081 115.504 336.705 115.68 337.553 115.68ZM350.76 117.168C349.208 117.168 348.048 116.832 347.28 116.16C346.528 115.472 346.088 114.552 345.96 113.4H347.592C347.72 114.168 348.016 114.752 348.48 115.152C348.944 115.536 349.704 115.728 350.76 115.728C351.816 115.728 352.568 115.544 353.016 115.176C353.464 114.792 353.688 114.28 353.688 113.64C353.688 113.032 353.464 112.544 353.016 112.176C352.568 111.792 351.816 111.6 350.76 111.6H349.44V110.16H350.76C351.672 110.16 352.328 109.984 352.728 109.632C353.128 109.28 353.328 108.816 353.328 108.24C353.328 107.632 353.128 107.152 352.728 106.8C352.328 106.448 351.672 106.272 350.76 106.272C349.848 106.272 349.184 106.456 348.768 106.824C348.352 107.176 348.08 107.688 347.952 108.36H346.32C346.448 107.304 346.864 106.456 347.568 105.816C348.288 105.16 349.352 104.832 350.76 104.832C352.152 104.832 353.2 105.152 353.904 105.792C354.608 106.432 354.96 107.248 354.96 108.24C354.96 109.328 354.44 110.176 353.4 110.784V110.832C354.68 111.36 355.32 112.296 355.32 113.64C355.32 114.68 354.944 115.528 354.192 116.184C353.456 116.84 352.312 117.168 350.76 117.168ZM361.808 117.168C360.48 117.168 359.488 116.864 358.832 116.256C358.176 115.632 357.848 114.776 357.848 113.688C357.848 112.552 358.24 111.648 359.024 110.976C359.808 110.304 361.056 109.968 362.768 109.968H365.864V109.08C365.864 108.12 365.632 107.424 365.168 106.992C364.704 106.544 363.944 106.32 362.888 106.32C361.912 106.32 361.192 106.488 360.728 106.824C360.28 107.16 360.024 107.592 359.96 108.12H358.328C358.36 107.688 358.48 107.272 358.688 106.872C358.896 106.472 359.184 106.12 359.552 105.816C359.936 105.512 360.408 105.272 360.968 105.096C361.528 104.92 362.168 104.832 362.888 104.832C364.44 104.832 365.584 105.192 366.32 105.912C367.072 106.616 367.448 107.672 367.448 109.08V117H366.2L366.008 114.96H365.96C365.48 115.68 364.88 116.232 364.16 116.616C363.456 116.984 362.672 117.168 361.808 117.168ZM361.928 115.68C362.504 115.68 363.032 115.592 363.512 115.416C363.992 115.224 364.408 114.968 364.76 114.648C365.112 114.312 365.384 113.92 365.576 113.472C365.768 113.008 365.864 112.504 365.864 111.96V111.312H362.888C361.656 111.312 360.776 111.528 360.248 111.96C359.736 112.392 359.48 112.968 359.48 113.688C359.48 114.296 359.672 114.784 360.056 115.152C360.456 115.504 361.08 115.68 361.928 115.68ZM273.364 136H282.724V148H281.14V137.44H274.948V148H273.364V136ZM291.354 148.168C289.738 148.168 288.45 147.672 287.49 146.68C286.546 145.688 286.074 144.264 286.074 142.408V141.592C286.074 140.68 286.194 139.864 286.434 139.144C286.69 138.424 287.05 137.824 287.514 137.344C287.978 136.848 288.53 136.472 289.17 136.216C289.826 135.96 290.554 135.832 291.354 135.832C292.97 135.832 294.25 136.328 295.194 137.32C296.154 138.312 296.634 139.736 296.634 141.592V142.408C296.634 143.32 296.506 144.136 296.25 144.856C296.01 145.576 295.658 146.184 295.194 146.68C294.73 147.16 294.17 147.528 293.514 147.784C292.874 148.04 292.154 148.168 291.354 148.168ZM291.354 146.728C292.458 146.728 293.338 146.368 293.994 145.648C294.666 144.928 295.002 143.848 295.002 142.408V141.592C295.002 140.168 294.666 139.096 293.994 138.376C293.322 137.64 292.442 137.272 291.354 137.272C290.25 137.272 289.362 137.632 288.69 138.352C288.034 139.072 287.706 140.152 287.706 141.592V142.408C287.706 143.832 288.042 144.912 288.714 145.648C289.386 146.368 290.266 146.728 291.354 146.728ZM304.309 148.168C303.557 148.168 302.869 148.048 302.245 147.808C301.621 147.552 301.085 147.176 300.637 146.68C300.205 146.184 299.869 145.568 299.629 144.832C299.389 144.096 299.269 143.248 299.269 142.288V141.472C299.269 140.576 299.389 139.784 299.629 139.096C299.885 138.392 300.229 137.8 300.661 137.32C301.109 136.84 301.637 136.472 302.245 136.216C302.869 135.96 303.557 135.832 304.309 135.832C305.013 135.832 305.645 135.928 306.205 136.12C306.765 136.296 307.245 136.552 307.645 136.888C308.045 137.208 308.365 137.584 308.605 138.016C308.845 138.432 309.013 138.88 309.109 139.36H307.477C307.301 138.768 306.973 138.272 306.493 137.872C306.013 137.472 305.325 137.272 304.429 137.272C303.405 137.272 302.557 137.632 301.885 138.352C301.229 139.072 300.901 140.112 300.901 141.472V142.288C300.901 143.76 301.237 144.872 301.909 145.624C302.581 146.36 303.421 146.728 304.429 146.728C305.325 146.728 306.013 146.52 306.493 146.104C306.973 145.688 307.301 145.12 307.477 144.4H309.109C309.013 144.944 308.845 145.448 308.605 145.912C308.365 146.36 308.045 146.752 307.645 147.088C307.245 147.424 306.765 147.688 306.205 147.88C305.645 148.072 305.013 148.168 304.309 148.168ZM314.554 137.44H310.546V136H320.146V137.44H316.138V148H314.554V137.44ZM325.562 148.168C324.234 148.168 323.242 147.864 322.586 147.256C321.93 146.632 321.602 145.776 321.602 144.688C321.602 143.552 321.994 142.648 322.778 141.976C323.562 141.304 324.81 140.968 326.522 140.968H329.618V140.08C329.618 139.12 329.386 138.424 328.922 137.992C328.458 137.544 327.698 137.32 326.642 137.32C325.666 137.32 324.946 137.488 324.482 137.824C324.034 138.16 323.778 138.592 323.714 139.12H322.082C322.114 138.688 322.234 138.272 322.442 137.872C322.65 137.472 322.938 137.12 323.306 136.816C323.69 136.512 324.162 136.272 324.722 136.096C325.282 135.92 325.922 135.832 326.642 135.832C328.194 135.832 329.338 136.192 330.074 136.912C330.826 137.616 331.202 138.672 331.202 140.08V148H329.954L329.762 145.96H329.714C329.234 146.68 328.634 147.232 327.914 147.616C327.21 147.984 326.426 148.168 325.562 148.168ZM325.682 146.68C326.258 146.68 326.786 146.592 327.266 146.416C327.746 146.224 328.162 145.968 328.514 145.648C328.866 145.312 329.138 144.92 329.33 144.472C329.522 144.008 329.618 143.504 329.618 142.96V142.312H326.642C325.41 142.312 324.53 142.528 324.002 142.96C323.49 143.392 323.234 143.968 323.234 144.688C323.234 145.296 323.426 145.784 323.81 146.152C324.21 146.504 324.834 146.68 325.682 146.68ZM335.169 136H339.729C341.137 136 342.169 136.296 342.825 136.888C343.481 137.48 343.809 138.28 343.809 139.288C343.809 139.816 343.673 140.296 343.401 140.728C343.145 141.16 342.777 141.496 342.297 141.736V141.784C342.953 142.04 343.449 142.408 343.785 142.888C344.121 143.368 344.289 143.928 344.289 144.568C344.289 145.64 343.961 146.48 343.305 147.088C342.649 147.696 341.617 148 340.209 148H335.169V136ZM342.177 139.312C342.177 138.72 341.985 138.264 341.601 137.944C341.217 137.608 340.553 137.44 339.609 137.44H336.753V141.208H339.609C340.553 141.208 341.217 141.048 341.601 140.728C341.985 140.392 342.177 139.92 342.177 139.312ZM342.657 144.544C342.657 143.888 342.465 143.392 342.081 143.056C341.697 142.72 341.033 142.552 340.089 142.552H336.753V146.56H340.089C341.033 146.56 341.697 146.392 342.081 146.056C342.465 145.72 342.657 145.216 342.657 144.544ZM362.014 148H347.638V136H349.222V146.56H353.926V136H355.51V146.56H360.214V136H361.798V146.56H363.598V151.12H362.014V148ZM366.247 136H367.831V146.2H367.879L373.879 136H376.087V148H374.503V137.8H374.455L368.455 148H366.247V136ZM380.169 136H381.753V141.04H383.913L387.417 136H389.289L385.185 141.712L389.769 148H387.849L383.913 142.48H381.753V148H380.169V136ZM396.612 148.168C394.996 148.168 393.708 147.672 392.748 146.68C391.804 145.688 391.332 144.264 391.332 142.408V141.592C391.332 140.68 391.452 139.864 391.692 139.144C391.948 138.424 392.308 137.824 392.772 137.344C393.236 136.848 393.788 136.472 394.428 136.216C395.084 135.96 395.812 135.832 396.612 135.832C398.228 135.832 399.508 136.328 400.452 137.32C401.412 138.312 401.892 139.736 401.892 141.592V142.408C401.892 143.32 401.764 144.136 401.508 144.856C401.268 145.576 400.916 146.184 400.452 146.68C399.988 147.16 399.428 147.528 398.772 147.784C398.132 148.04 397.412 148.168 396.612 148.168ZM396.612 146.728C397.716 146.728 398.596 146.368 399.252 145.648C399.924 144.928 400.26 143.848 400.26 142.408V141.592C400.26 140.168 399.924 139.096 399.252 138.376C398.58 137.64 397.7 137.272 396.612 137.272C395.508 137.272 394.62 137.632 393.948 138.352C393.292 139.072 392.964 140.152 392.964 141.592V142.408C392.964 143.832 393.3 144.912 393.972 145.648C394.644 146.368 395.524 146.728 396.612 146.728ZM405.247 136H409.807C411.215 136 412.247 136.296 412.903 136.888C413.559 137.48 413.887 138.28 413.887 139.288C413.887 139.816 413.751 140.296 413.479 140.728C413.223 141.16 412.855 141.496 412.375 141.736V141.784C413.031 142.04 413.527 142.408 413.863 142.888C414.199 143.368 414.367 143.928 414.367 144.568C414.367 145.64 414.039 146.48 413.383 147.088C412.727 147.696 411.695 148 410.287 148H405.247V136ZM412.255 139.312C412.255 138.72 412.063 138.264 411.679 137.944C411.295 137.608 410.631 137.44 409.687 137.44H406.831V141.208H409.687C410.631 141.208 411.295 141.048 411.679 140.728C412.063 140.392 412.255 139.92 412.255 139.312ZM412.735 144.544C412.735 143.888 412.543 143.392 412.159 143.056C411.775 142.72 411.111 142.552 410.167 142.552H406.831V146.56H410.167C411.111 146.56 411.775 146.392 412.159 146.056C412.543 145.72 412.735 145.216 412.735 144.544Z" fill="black"/>
<path d="M199.012 205.012C199.564 205.012 200.012 204.564 200.012 204.012L200.012 195.012C200.012 194.46 199.564 194.012 199.012 194.012C198.459 194.012 198.012 194.46 198.012 195.012L198.012 203.012L190.012 203.012C189.459 203.012 189.012 203.46 189.012 204.012C189.012 204.564 189.459 205.012 190.012 205.012L199.012 205.012ZM199.719 203.305L197.156 200.742L195.741 202.156L198.305 204.719L199.719 203.305ZM192.029 195.615L186.903 190.489L185.488 191.903L190.615 197.03L192.029 195.615ZM181.776 185.362L176.649 180.236L175.235 181.65L180.362 186.776L181.776 185.362ZM171.523 175.109L166.396 169.983L164.982 171.397L170.109 176.523L171.523 175.109ZM161.27 164.856L158.707 162.293L157.292 163.707L159.856 166.27L161.27 164.856Z" fill="#C0C0C0"/>
<path d="M188.234 250.2H193.634C195.634 250.2 197.114 250.656 198.074 251.568C199.034 252.48 199.514 253.76 199.514 255.408C199.514 257.04 199.026 258.32 198.05 259.248C197.074 260.16 195.602 260.616 193.634 260.616H189.914V267H188.234V250.2ZM189.914 251.736V259.08H193.514C195.034 259.08 196.122 258.776 196.778 258.168C197.45 257.544 197.786 256.624 197.786 255.408C197.786 254.208 197.45 253.296 196.778 252.672C196.106 252.048 195.018 251.736 193.514 251.736H189.914ZM206.71 267.168C205.942 267.168 205.238 267.04 204.598 266.784C203.958 266.528 203.414 266.16 202.966 265.68C202.518 265.184 202.166 264.584 201.91 263.88C201.67 263.16 201.55 262.336 201.55 261.408V260.592C201.55 259.68 201.67 258.864 201.91 258.144C202.166 257.424 202.518 256.824 202.966 256.344C203.43 255.848 203.974 255.472 204.598 255.216C205.238 254.96 205.942 254.832 206.71 254.832C207.478 254.832 208.182 254.96 208.822 255.216C209.462 255.472 210.006 255.848 210.454 256.344C210.902 256.84 211.246 257.456 211.486 258.192C211.742 258.912 211.87 259.752 211.87 260.712V261.432H203.182C203.182 262.824 203.486 263.888 204.094 264.624C204.702 265.36 205.574 265.728 206.71 265.728C208.422 265.728 209.558 265.032 210.118 263.64H211.75C211.462 264.792 210.886 265.672 210.022 266.28C209.174 266.872 208.07 267.168 206.71 267.168ZM206.71 256.272C205.686 256.272 204.862 256.6 204.238 257.256C203.614 257.896 203.262 258.84 203.182 260.088H210.238C210.158 258.792 209.798 257.832 209.158 257.208C208.534 256.584 207.718 256.272 206.71 256.272ZM218.951 267.168C217.399 267.168 216.239 266.832 215.471 266.16C214.719 265.472 214.279 264.552 214.151 263.4H215.783C215.911 264.168 216.207 264.752 216.671 265.152C217.135 265.536 217.895 265.728 218.951 265.728C220.007 265.728 220.759 265.544 221.207 265.176C221.655 264.792 221.879 264.28 221.879 263.64C221.879 263.032 221.655 262.544 221.207 262.176C220.759 261.792 220.007 261.6 218.951 261.6H217.631V260.16H218.951C219.863 260.16 220.519 259.984 220.919 259.632C221.319 259.28 221.519 258.816 221.519 258.24C221.519 257.632 221.319 257.152 220.919 256.8C220.519 256.448 219.863 256.272 218.951 256.272C218.039 256.272 217.375 256.456 216.959 256.824C216.543 257.176 216.271 257.688 216.143 258.36H214.511C214.639 257.304 215.055 256.456 215.759 255.816C216.479 255.16 217.543 254.832 218.951 254.832C220.343 254.832 221.391 255.152 222.095 255.792C222.799 256.432 223.151 257.248 223.151 258.24C223.151 259.328 222.631 260.176 221.591 260.784V260.832C222.871 261.36 223.511 262.296 223.511 263.64C223.511 264.68 223.135 265.528 222.383 266.184C221.647 266.84 220.503 267.168 218.951 267.168ZM229.987 267L224.971 255H226.699L230.803 265.032H230.851L234.619 255H236.251L229.771 271.8H228.139L229.987 267ZM236.593 265.728H236.953C237.449 265.728 237.833 265.56 238.105 265.224C238.377 264.888 238.577 264.4 238.705 263.76C238.849 263.12 238.929 262.344 238.945 261.432C238.977 260.52 238.993 259.496 238.993 258.36V255H247.153V267H245.569V256.44H240.577V258.36C240.577 259.656 240.553 260.84 240.505 261.912C240.473 262.984 240.337 263.912 240.097 264.696C239.873 265.48 239.513 266.088 239.017 266.52C238.537 266.952 237.849 267.168 236.953 267.168H236.593V265.728ZM251.231 255H252.815V259.32H255.551C257.103 259.32 258.247 259.664 258.983 260.352C259.735 261.04 260.111 261.976 260.111 263.16C260.111 264.328 259.735 265.264 258.983 265.968C258.231 266.656 257.087 267 255.551 267H251.231V255ZM252.815 260.76V265.56H255.431C256.535 265.56 257.319 265.352 257.783 264.936C258.247 264.52 258.479 263.928 258.479 263.16C258.479 262.392 258.239 261.8 257.759 261.384C257.295 260.968 256.519 260.76 255.431 260.76H252.815ZM264.25 256.44H260.242V255H269.842V256.44H265.834V267H264.25V256.44ZM275.258 267.168C273.93 267.168 272.938 266.864 272.282 266.256C271.626 265.632 271.298 264.776 271.298 263.688C271.298 262.552 271.69 261.648 272.474 260.976C273.258 260.304 274.506 259.968 276.218 259.968H279.314V259.08C279.314 258.12 279.082 257.424 278.618 256.992C278.154 256.544 277.394 256.32 276.338 256.32C275.362 256.32 274.642 256.488 274.178 256.824C273.73 257.16 273.474 257.592 273.41 258.12H271.778C271.81 257.688 271.93 257.272 272.138 256.872C272.346 256.472 272.634 256.12 273.002 255.816C273.386 255.512 273.858 255.272 274.418 255.096C274.978 254.92 275.618 254.832 276.338 254.832C277.89 254.832 279.034 255.192 279.77 255.912C280.522 256.616 280.898 257.672 280.898 259.08V267H279.65L279.458 264.96H279.41C278.93 265.68 278.33 266.232 277.61 266.616C276.906 266.984 276.122 267.168 275.258 267.168ZM275.378 265.68C275.954 265.68 276.482 265.592 276.962 265.416C277.442 265.224 277.858 264.968 278.21 264.648C278.562 264.312 278.834 263.92 279.026 263.472C279.218 263.008 279.314 262.504 279.314 261.96V261.312H276.338C275.106 261.312 274.226 261.528 273.698 261.96C273.186 262.392 272.93 262.968 272.93 263.688C272.93 264.296 273.122 264.784 273.506 265.152C273.906 265.504 274.53 265.68 275.378 265.68ZM286.843 256.44H282.835V255H292.435V256.44H288.427V267H286.843V256.44Z" fill="black"/>
<path d="M228.546 194.091C228.546 192.986 229.425 192.091 230.51 192.091H249.491C250.576 192.091 251.455 192.986 251.455 194.091V194.424C251.455 200.867 246.327 206.091 240 206.091C233.674 206.091 228.546 200.867 228.546 194.424V194.091Z" fill="#CAFFD6"/>
<path d="M260.364 224.068C260.364 234.26 251.247 237.909 240 237.909C228.754 237.909 219.637 234.26 219.637 224.068C219.637 213.876 228.754 201 240 201C251.247 201 260.364 213.876 260.364 224.068Z" fill="#CAFFD6"/>
<path d="M234.887 227.245H233.563C232.901 227.245 232.363 226.708 232.363 226.045C232.363 225.383 232.901 224.845 233.563 224.845H234.887V223.209H233.727C232.974 223.209 232.363 222.598 232.363 221.845C232.363 221.092 232.974 220.482 233.727 220.482H234.887V213.182C234.887 212.077 235.783 211.182 236.887 211.182H241.337C243.973 211.182 245.889 211.709 247.086 212.763C248.301 213.818 248.909 215.291 248.909 217.182C248.909 219.054 248.301 220.527 247.086 221.6C245.871 222.673 243.954 223.209 241.337 223.209H238.252V224.845H243.502C244.165 224.845 244.702 225.383 244.702 226.045C244.702 226.708 244.165 227.245 243.502 227.245H238.252V228.59C238.252 229.519 237.499 230.273 236.57 230.273C235.64 230.273 234.887 229.519 234.887 228.59V227.245ZM238.252 214.073V220.482H241.337C242.739 220.482 243.758 220.191 244.394 219.609C245.048 219.027 245.375 218.245 245.375 217.263C245.375 216.282 245.048 215.509 244.394 214.945C243.758 214.363 242.739 214.073 241.337 214.073H238.252Z" fill="#21EA4D"/>
</svg>
