<svg width="91" height="79" viewBox="0 0 91 79" fill="none" xmlns="http://www.w3.org/2000/svg">
<g clip-path="url(#clip0_170_446)">
<path d="M-1.39377 10.3371C-2.14115 6.49108 -0.188827 2.89605 3.46385 1.47894C7.93191 -0.254509 15.4392 -2.86008 27.5313 -6.30983C39.6234 -9.75958 47.3755 -11.5074 52.0857 -12.3924C55.9362 -13.1158 59.4914 -11.0921 60.8858 -7.43066C62.5229 -3.13204 64.9386 3.89549 68.0525 14.8102C71.1663 25.7248 72.8222 32.9691 73.6997 37.4845C74.447 41.3305 72.4947 44.9255 68.8421 46.3426C64.374 48.0759 56.8667 50.6816 44.7746 54.1313C32.6825 57.5811 24.9304 59.3288 20.2203 60.2139C16.3698 60.9373 12.8145 58.9136 11.4201 55.2522C9.78297 50.9536 7.3673 43.926 4.25346 33.0113C1.13961 22.0967 -0.516317 14.8524 -1.39377 10.3371Z" fill="#FFCAE3"/>
<path fill-rule="evenodd" clip-rule="evenodd" d="M62.8846 -1.87132L-0.15938 16.1145C-0.685554 13.8283 -1.08753 11.9159 -1.39433 10.3371C-2.14171 6.49111 -0.189379 2.89609 3.4633 1.47897C7.93126 -0.254448 15.4386 -2.86002 27.5309 -6.30981C39.6229 -9.75956 47.375 -11.5073 52.085 -12.3923C55.9357 -13.1158 59.4909 -11.092 60.8853 -7.43065C61.4577 -5.92765 62.1253 -4.09103 62.8846 -1.87132Z" fill="#FA5E78"/>
<path d="M12.6966 24.424C12.324 23.118 13.0118 21.7533 14.2974 21.3155C16.3543 20.615 19.8258 19.4907 24.7526 18.0851C29.0528 16.8583 31.7573 16.189 33.3832 15.8264C34.6254 15.5497 35.7977 16.3032 36.1469 17.5269L36.6421 19.2629C36.9913 20.4867 36.393 21.7453 35.1917 22.1657C33.6193 22.7156 30.9687 23.574 26.6685 24.8008C21.7417 26.2064 18.1996 27.0829 16.0827 27.5732C14.7596 27.8797 13.4552 27.0833 13.0826 25.7772L12.6966 24.424Z" fill="#FA5E78"/>
<path d="M16.4465 37.5675C16.1097 36.387 16.6559 35.1675 17.8087 34.7458C18.8426 34.3677 20.352 33.8652 22.4794 33.2583C24.6067 32.6514 26.154 32.2818 27.2318 32.0575C28.4336 31.8074 29.5411 32.5552 29.8778 33.7357L30.4282 35.6647C30.7649 36.8452 30.2187 38.0648 29.0659 38.4864C28.032 38.8646 26.5226 39.367 24.3953 39.974C22.2679 40.5809 20.7206 40.9504 19.6428 41.1747C18.4411 41.4248 17.3336 40.677 16.9968 39.4966L16.4465 37.5675Z" fill="#FA5E78"/>
<path d="M54.9585 24.7601C55.5223 21.987 58.9779 21.0012 60.92 23.0594L66.5289 29.0036L74.7097 28.319C77.4105 28.0929 79.3281 30.8961 78.1383 33.3315L74.373 41.0387L77.7087 48.9134C78.7951 51.4781 76.5888 54.2201 73.851 53.7076L66.0222 52.2422L60.145 57.6178C58.0898 59.4977 54.7688 58.3325 54.3385 55.5807L53.0171 47.1313L45.7519 42.571C43.4563 41.13 43.6061 37.737 46.0197 36.5039L53.3303 32.769L54.9585 24.7601Z" fill="#FA5E78"/>
</g>
<defs>
<clipPath id="clip0_170_446">
<rect width="83.8036" height="83.8036" fill="white" transform="translate(-13 -2.00903) rotate(-15.9229)"/>
</clipPath>
</defs>
</svg>
