<svg width="82" height="73" viewBox="0 0 82 73" fill="none" xmlns="http://www.w3.org/2000/svg">
<path d="M28.5449 67.6581C24.5023 58.8186 24.9567 38.8342 24.9567 38.8342L68.9965 4.69336C67.7547 16.801 48.2678 64.2612 28.5449 67.6581Z" fill="#FFCAE3"/>
<path d="M9.26682 30.3306C7.31287 28.6191 7.39485 25.8627 9.53927 24.3969C21.4036 16.2866 54.647 -0.167229 71.9824 -3.33916C74.7667 -3.8486 77.0543 -1.58832 76.8568 1.23523C75.6321 18.7416 69.121 52.1577 63.3429 63.434C62.3421 65.387 60.007 65.7926 58.1034 64.7008C53.6831 62.1656 44.6307 56.6542 30.5489 46.6287C18.8388 38.2915 12.5424 33.1998 9.26682 30.3306Z" fill="#FFCAE3"/>
<path d="M68.7402 4.66687C67.0321 2.95854 27.2754 35.274 24.0941 41.9527C24.0941 41.9527 23.9614 66.9362 28.5445 67.6575C31.024 67.6575 35.5718 54.4946 36.5298 51.6371C36.6523 51.2718 36.8199 50.9502 37.0534 50.6437C47.0442 37.5384 70.4288 6.35554 68.7402 4.66687Z" fill="#FA5E78"/>
</svg>
