<svg width="82" height="80" viewBox="0 0 82 80" fill="none" xmlns="http://www.w3.org/2000/svg">
<g clip-path="url(#clip0_170_486)">
<path d="M3.86856 22.6607C4.93564 19.8616 7.4699 18.1526 10.4582 18.3606C15.1098 18.6843 23.6554 19.8618 38.0068 23.6294C52.3583 27.397 60.3803 30.5689 64.5912 32.5718C67.2963 33.8584 68.6642 36.5918 68.2188 39.5541C67.6176 43.5525 66.2685 50.5328 63.2457 62.0471C60.2229 73.5615 57.9694 80.3043 56.5291 84.0825C55.462 86.8816 52.9278 88.5906 49.9396 88.3826C45.2879 88.0589 36.7423 86.8814 22.3908 83.1138C8.03941 79.3462 0.0173351 76.1743 -4.19345 74.1715C-6.89854 72.8848 -8.26655 70.1514 -7.82114 67.1891C-7.21996 63.1906 -5.87082 56.2104 -2.84804 44.696C0.174743 33.1817 2.42821 26.4389 3.86856 22.6607Z" fill="#FFCAE3"/>
<path d="M59.2628 22.2549C60.2733 22.6112 60.7845 23.5542 60.5831 24.6066C60.3981 25.5736 60.0698 27.0516 59.4878 29.2685C59.3944 29.6246 59.3045 29.9609 59.2183 30.2784C61.4656 31.1523 63.2282 31.9232 64.5914 32.5716C67.2965 33.8583 68.6644 36.5917 68.219 39.554C67.9929 41.0583 67.6608 42.9847 67.1736 45.4159L1.90014 28.2802C2.6699 25.9232 3.32692 24.082 3.86881 22.6606C4.93588 19.8615 7.47013 18.1525 10.4584 18.3605C11.9644 18.4653 13.8785 18.6596 16.2656 19.0023C16.3465 18.6834 16.4334 18.3463 16.5269 17.9902C17.1089 15.7734 17.5489 14.3247 17.8627 13.3916C18.2043 12.3759 19.1127 11.8056 20.168 11.9916C20.8861 12.1182 21.8767 12.3298 23.219 12.6822C24.5614 13.0346 25.5282 13.3369 26.2159 13.5793C27.2264 13.9357 27.7376 14.8786 27.5362 15.9311C27.3513 16.898 27.0229 18.376 26.441 20.5929C26.4189 20.6768 26.3972 20.7597 26.3755 20.8414C29.7423 21.56 33.6011 22.4726 38.007 23.6293C42.4133 24.786 46.2229 25.8866 49.5087 26.9144L49.5738 26.6658C50.1558 24.4489 50.5958 23.0002 50.9096 22.0671C51.2511 21.0515 52.1596 20.4812 53.2148 20.6672C53.933 20.7938 54.9236 21.0054 56.2659 21.3578C57.6083 21.7102 58.5751 22.0124 59.2628 22.2549Z" fill="#FA5E78"/>
<path fill-rule="evenodd" clip-rule="evenodd" d="M10.0081 43.124C10.315 42.19 11.1254 41.617 12.1005 41.7416C12.8533 41.8376 13.9262 42.0347 15.4111 42.4245C16.8961 42.8143 17.9274 43.1697 18.6303 43.4558C19.5408 43.8262 19.9653 44.7234 19.7738 45.6877C19.6369 46.3773 19.4177 47.3463 19.0668 48.6829C18.7159 50.0194 18.431 50.9712 18.2114 51.6391C17.9046 52.5731 17.0942 53.1461 16.1191 53.0215C15.3663 52.9254 14.2934 52.7284 12.8085 52.3386C11.3235 51.9487 10.2922 51.5934 9.58932 51.3073C8.67877 50.9369 8.25427 50.0396 8.44577 49.0754C8.58266 48.3858 8.80189 47.4168 9.15277 46.0802C9.50365 44.7436 9.78864 43.7919 10.0081 43.124ZM5.67037 59.6474C5.9772 58.7134 6.78767 58.1404 7.76277 58.265C8.51557 58.3611 9.5884 58.5581 11.0734 58.9479C12.5583 59.3378 13.5896 59.6931 14.2925 59.9792C15.2031 60.3496 15.6275 61.2469 15.4361 62.2111C15.2992 62.9007 15.0799 63.8697 14.7291 65.2063C14.3782 66.5429 14.0932 67.4946 13.8737 68.1625C13.5668 69.0965 12.7564 69.6695 11.7813 69.5449C11.0285 69.4489 9.95565 69.2518 8.47069 68.862C6.98573 68.4722 5.95446 68.1168 5.25155 67.8307C4.34099 67.4603 3.9165 66.5631 4.10799 65.5988C4.24488 64.9092 4.46411 63.9402 4.81499 62.6036C5.16588 61.2671 5.45087 60.3153 5.67037 59.6474ZM28.624 46.0793C27.6489 45.9548 26.8384 46.5278 26.5316 47.4617C26.3121 48.1297 26.0271 49.0814 25.6762 50.418C25.3253 51.7546 25.1061 52.7235 24.9692 53.4132C24.7777 54.3774 25.2022 55.2746 26.1128 55.6451C26.8157 55.9312 27.8469 56.2865 29.3319 56.6763C30.8169 57.0662 31.8897 57.2632 32.6425 57.3593C33.6176 57.4839 34.4281 56.9108 34.7349 55.9769C34.9544 55.3089 35.2394 54.3572 35.5903 53.0206C35.9412 51.6841 36.1604 50.7151 36.2973 50.0255C36.4888 49.0612 36.0643 48.164 35.1537 47.7935C34.4508 47.5074 33.4195 47.1521 31.9346 46.7623C30.4496 46.3724 29.3768 46.1754 28.624 46.0793ZM22.1938 63.9852C22.5006 63.0512 23.3111 62.4782 24.2862 62.6028C25.039 62.6988 26.1118 62.8959 27.5968 63.2857C29.0818 63.6756 30.113 64.0309 30.8159 64.317C31.7265 64.6874 32.151 65.5847 31.9595 66.5489C31.8226 67.2385 31.6034 68.2075 31.2525 69.5441C30.9016 70.8807 30.6166 71.8324 30.3971 72.5003C30.0903 73.4343 29.2798 74.0073 28.3047 73.8827C27.5519 73.7867 26.4791 73.5896 24.9941 73.1998C23.5092 72.8099 22.4779 72.4546 21.775 72.1685C20.8644 71.7981 20.4399 70.9008 20.6314 69.9366C20.7683 69.247 20.9875 68.278 21.3384 66.9414C21.6893 65.6048 21.9743 64.6531 22.1938 63.9852ZM45.1474 50.4171C44.1723 50.2925 43.3619 50.8656 43.055 51.7995C42.8355 52.4675 42.5505 53.4192 42.1996 54.7558C41.8488 56.0923 41.6295 57.0613 41.4926 57.7509C41.3012 58.7152 41.7256 59.6124 42.6362 59.9829C43.3391 60.2689 44.3704 60.6243 45.8553 61.0141C47.3403 61.404 48.4131 61.601 49.1659 61.6971C50.141 61.8216 50.9515 61.2486 51.2583 60.3146C51.4778 59.6467 51.7628 58.695 52.1137 57.3584C52.4646 56.0218 52.6838 55.0529 52.8207 54.3632C53.0122 53.399 52.5877 52.5018 51.6772 52.1313C50.9742 51.8452 49.943 51.4899 48.458 51.1001C46.973 50.7102 45.9002 50.5132 45.1474 50.4171Z" fill="#FA5E78"/>
</g>
<defs>
<clipPath id="clip0_170_486">
<rect width="82" height="82" fill="white" transform="translate(1.82129) rotate(14.7095)"/>
</clipPath>
</defs>
</svg>
